<?xml version="1.0" encoding="UTF-8"?>
<svg width="1241px" height="1623px" viewBox="0 0 1241 1623" version="1.1" xmlns="http://www.w3.org/2000/svg" xmlns:xlink="http://www.w3.org/1999/xlink">
    <!-- Generator: Sketch 52.6 (67491) - http://www.bohemiancoding.com/sketch -->
    <title>Group 24</title>
    <desc>Created with Sketch.</desc>
    <g id="Page-1" stroke="none" stroke-width="1" fill="none" fill-rule="evenodd">
        <g id="Home-Page-Copy-4" transform="translate(-100.000000, -995.000000)" fill-rule="nonzero">
            <g id="Group-24" transform="translate(100.000000, 995.000000)">
                <path d="M8.48192974,-2.27373675e-13 L8.40227408,114.195059 C8.40227408,296.449026 156.148307,444.195059 338.402274,444.195059 C338.428829,444.195059 338.455384,444.195056 338.481939,444.195049 L1043.29387,443.945245 C1151.90544,443.919025 1239.97377,531.944844 1239.99999,640.556415 C1240,640.572241 1240,640.588066 1240,640.603891 L1240,640.603891 C1240,749.246809 1151.93679,837.324196 1043.29387,837.341681 L205.13851,837.476574 C96.5229604,837.494055 8.48192974,925.549256 8.48192974,1034.16481 L8.48192974,1034.16481 C8.48192974,1142.7665 96.520996,1230.80557 205.122688,1230.80557 C205.127963,1230.80557 205.133237,1230.80556 205.138512,1230.80556 L1043.29387,1230.73812 C1151.92292,1230.72938 1239.99126,1318.78354 1240,1427.41259 C1240,1427.41787 1240,1427.42315 1240,1427.42842 L1240,1621.16068 C1240,1621.71296 1239.55228,1622.16068 1239,1622.16068 C1238.6871,1622.16068 1238.39223,1622.01422 1238.20317,1621.76488" id="Line-26" stroke="#4A90E2" stroke-linecap="square" stroke-dasharray="9"></path>
                <polygon id="Line" fill="#4A90E2" points="332.090825 445 331.015998 444.983934 329.407783 444.959896 329.459329 441.959896 331.067543 441.983934 332.14237 442 332.279824 434 352.48731 443.804487 331.953371 453 332.090825 445"></polygon>
                <polygon id="Line-Copy-9" fill="#4A90E2" transform="translate(10.490694, 145.500000) rotate(90.000000) translate(-10.490694, -145.500000) " points="2.04823799 147.073604 1.02368494 147.05675 -0.509306261 147.031532 -0.460171927 143.884324 1.07281928 143.909542 2.09737233 143.926396 2.22839722 135.533841 21.4906937 145.819428 1.91721311 155.466159 2.04823799 147.073604"></polygon>
                <polygon id="Line-Copy" fill="#4A90E2" points="868.170918 445 867.09609 444.983934 865.487876 444.959896 865.539422 441.959896 867.147636 441.983934 868.222463 442 868.359917 434 888.567403 443.804487 868.033463 453 868.170918 445"></polygon>
                <polygon id="Line-Copy-6" fill="#4A90E2" points="332.090825 1232.5 331.015998 1232.48393 329.407783 1232.4599 329.459329 1229.4599 331.067543 1229.48393 332.14237 1229.5 332.279824 1221.5 352.48731 1231.30449 331.953371 1240.5 332.090825 1232.5"></polygon>
                <polygon id="Line-Copy-5" fill="#4A90E2" points="742.27695 1232.5 741.202123 1232.48393 739.593909 1232.4599 739.645454 1229.4599 741.253668 1229.48393 742.328495 1229.5 742.46595 1221.5 762.673435 1231.30449 742.139496 1240.5 742.27695 1232.5"></polygon>
                <polygon id="Line-Copy-4" fill="#4A90E2" transform="translate(329.407783, 837.500000) scale(-1, 1) translate(-329.407783, -837.500000) " points="320.551062 839 319.476234 838.983934 317.86802 838.959896 317.919566 835.959896 319.52778 835.983934 320.602607 836 320.740061 828 340.947547 837.804487 320.413607 847 320.551062 839"></polygon>
                <polygon id="Line-Copy-3" fill="#4A90E2" transform="translate(853.942470, 837.500000) scale(-1, 1) translate(-853.942470, -837.500000) " points="845.085749 839 844.010921 838.983934 842.402707 838.959896 842.454253 835.959896 844.062467 835.983934 845.137294 836 845.274748 828 865.482234 837.804487 844.948294 847 845.085749 839"></polygon>
            </g>
        </g>
    </g>
</svg>