<?xml version="1.0" encoding="UTF-8"?>
<svg width="270px" height="270px" viewBox="0 0 270 270" version="1.1" xmlns="http://www.w3.org/2000/svg" xmlns:xlink="http://www.w3.org/1999/xlink">
    <!-- Generator: Sketch 52.6 (67491) - http://www.bohemiancoding.com/sketch -->
    <title>Artboard</title>
    <desc>Created with Sketch.</desc>
    <defs>
        <path d="M257.126681,0.364697251 L4.13199566,0.364697251 C1.11221258,0.451920189 0.00819956616,0.772713276 0,1.48630228 L0,1.50210778 C0.0204989154,3.33203331 7.09262473,7.70840031 7.73043384,17.2373599 C8.61950108,30.5414922 107.093362,33.5667818 139.349284,35.3820726 C163.452495,36.7372478 167.337918,54.9773788 178.016681,55.0265515 L178.11039,55.0265515 C181.704729,55.0072336 186.072169,52.9308594 192.229458,47.4762061 C216.804143,25.7044242 256.449631,29.333835 266.748872,14.1283598 C275.406443,1.34639434 262.708829,0.328403142 258.442126,0.328403142 C257.632711,0.328403142 257.126681,0.364697251 257.126681,0.364697251" id="path-1"></path>
        <linearGradient x1="50.3383509%" y1="46.8174233%" x2="49.913643%" y2="-3.41765986%" id="linearGradient-3">
            <stop stop-color="#FFEBE2" offset="0%"></stop>
            <stop stop-color="#EDDAD4" offset="100%"></stop>
        </linearGradient>
        <path d="M3.42145842,0.171352202 C-7.23190618,5.23413724 12.9166823,13.9801174 5.96901493,26.1771192 C-0.978063966,38.3747059 8.65721962,37.9290732 12.6565714,49.2798407 C15.4095096,57.0942029 1.337629,63.9208045 10.1372623,69.6754314 C18.937484,75.4283038 27.4711215,94.0238191 27.4711215,94.0238191 C37.1617228,101.573258 28.8134584,83.2028983 35.2544392,67.8004991 C41.69542,52.3980999 22.1800426,60.699617 32.5438721,41.5964782 C42.90829,22.4950937 20.4428316,35.0383089 21.7163156,16.7422213 C22.1153092,11.0121569 20.0603156,11.216259 17.2444094,11.4209459 C14.9216546,11.589374 12.0816205,11.7578021 9.67412367,8.59626629 C9.67412367,8.59626629 6.97591471,0.0187142337 4.07703198,0.0187142337 C3.85929211,0.0187142337 3.64037527,0.0672542774 3.42145842,0.171352202" id="path-4"></path>
        <linearGradient x1="0.000232719282%" y1="50.0000331%" x2="100.000801%" y2="50.0000331%" id="linearGradient-6">
            <stop stop-color="#3FD4E6" offset="0%"></stop>
            <stop stop-color="#5477FF" offset="100%"></stop>
        </linearGradient>
        <path d="M25.2096858,1.50523439 C24.3568987,1.97982594 23.6548421,2.72831112 22.9116245,3.52047761 C21.1625703,5.38578768 18.983934,7.70798066 13.4770511,7.73395333 C10.3372176,7.74930082 8.61657031,8.19083624 7.72552082,9.21026361 C6.71446661,10.3666378 6.90461901,12.0985428 7.16897722,14.4957023 C7.26057502,15.3238764 7.36318775,16.2636149 7.42637863,17.2789102 C7.80146583,23.3352651 4.28944383,27.7051671 4.25465986,27.7476679 C2.15718617,30.2923994 -0.427263158,35.5683935 0.688142969,38.8167484 C1.15482797,40.1785428 2.20182561,41.035641 3.79609112,41.3632508 C4.43205813,41.494885 5.01179104,41.5568653 5.54572506,41.5568653 C9.39805027,41.556275 10.8079607,38.3031978 12.671802,34.0023595 C13.062542,33.1003994 13.4666159,32.1683347 13.9240251,31.1849149 C16.288176,26.1048964 18.382751,25.2666874 21.8518727,23.8806912 C22.700022,23.5418659 23.6600597,23.1575884 24.7145939,22.6753231 C29.6846441,20.4009435 28.723447,17.0492882 27.8735585,14.0925356 C27.7547133,13.6787437 27.635868,13.2667227 27.5344148,12.8588337 C27.0967164,11.119255 27.9367494,10.2473996 29.2081037,8.9257448 C30.1536481,7.94527643 31.328187,6.72338028 32.2348892,4.79431911 C33.2268123,2.68285894 32.7212852,1.55068657 32.1224211,0.97220433 C31.5786316,0.448028589 30.7287431,0.191253311 29.7176889,0.191253311 C28.3843032,0.191253311 26.7703268,0.637511036 25.2096858,1.50523439 M3.93232836,40.6808779 C2.58966693,40.4040328 1.71658916,39.6998192 1.33396544,38.5871263 C0.350738413,35.7236393 2.70271485,30.7120942 4.77989788,28.1945159 C4.9317879,28.0097557 8.50178319,23.5778734 8.10930401,17.2352289 C8.04611312,16.2034055 7.94118146,15.2542224 7.84842419,14.4177843 C7.60493637,12.199482 7.4292773,10.5980307 8.23742498,9.67363969 C8.97600471,8.82834728 10.5928798,8.44584066 13.4799497,8.43108346 C19.2784383,8.40274963 21.5678036,5.96249905 23.4072962,4.00156233 C24.1429772,3.21706958 24.7783645,2.53882867 25.5378146,2.11736304 C27.9889254,0.75438806 30.6174344,0.479904141 31.6516779,1.47808114 C32.4377958,2.23660122 32.0667667,3.53700568 31.6174737,4.49327223 C30.7600487,6.31844272 29.6759482,7.44471221 28.7188091,8.4387572 C27.3889018,9.82121169 26.337846,10.9126542 26.8712003,13.0317881 C26.976132,13.4467606 27.0961367,13.8676359 27.2167211,14.2885112 C28.0619717,17.2328678 28.8602639,20.0143048 24.4345829,22.0401732 C23.3951218,22.5153551 22.4426206,22.8960908 21.6020079,23.232555 C18.0992616,24.6309472 15.7855475,25.5559285 13.3054501,30.8868194 C12.8445625,31.8790935 12.4387494,32.8152903 12.0456905,33.7213824 C10.1743126,38.0399294 8.95223566,40.861506 5.54920346,40.8609157 C5.05816968,40.8609157 4.52191673,40.8018869 3.93232836,40.6808779" id="path-7"></path>
        <linearGradient x1="-0.000342847432%" y1="49.9996778%" x2="99.9999592%" y2="49.9996778%" id="linearGradient-9">
            <stop stop-color="#3FD4E6" offset="0%"></stop>
            <stop stop-color="#5477FF" offset="100%"></stop>
        </linearGradient>
        <path d="M17.0706165,5.75743024 C16.0665651,9.28909799 13.9596841,14.5506814 7.2776293,19.4472421 C1.18650052,23.9092797 0.322481777,39.1584685 0.288780979,39.8049968 L0.973255814,39.840623 C0.981390489,39.6852693 1.85180076,24.2748864 7.68145783,20.0049968 C14.5349219,14.9822842 16.6987456,9.5770279 17.7295252,5.94724205 C18.7940056,2.20240104 24.5876376,1.12894225 24.6451614,1.11842959 L24.5260465,0.438611291 C24.2703853,0.48358209 18.2530496,1.59617132 17.0706165,5.75743024" id="path-10"></path>
        <linearGradient x1="-0.000778663104%" y1="49.9993518%" x2="100.001367%" y2="49.9993518%" id="linearGradient-12">
            <stop stop-color="#3FD4E6" offset="0%"></stop>
            <stop stop-color="#5477FF" offset="100%"></stop>
        </linearGradient>
        <path d="M18.3333707,13.5883157 C16.506591,19.8467979 -1.99158448,16.3188186 5.77338985,31.9891722 C13.5372036,47.6601148 -4.04642149,37.2304891 1.2058603,50.9053846 C6.45814209,64.5802801 1.66255522,79.2051975 7.37153194,75.4858002 C13.0799284,71.765225 10.5794221,54.5446808 16.5164561,52.4991596 C22.4534901,50.4524604 23.4225887,48.0665098 17.5441648,42.5030218 C11.6651606,36.9407118 32.9481887,31.4178634 27.6953266,20.1860494 C22.4436251,8.95364638 28.5802818,2.11560964 23.5850722,0.377535017 C23.2421158,0.257972445 22.9310758,0.20143054 22.6502113,0.20143054 C19.3866125,0.200841561 20.0150758,7.82693111 18.3333707,13.5883157" id="path-13"></path>
        <linearGradient x1="-0.000562284449%" y1="49.9999479%" x2="100.000028%" y2="49.9999479%" id="linearGradient-15">
            <stop stop-color="#3FD4E6" offset="0%"></stop>
            <stop stop-color="#5477FF" offset="100%"></stop>
        </linearGradient>
        <polygon id="path-16" points="0.0907767683 0.351481616 6.24162557 24.151387 19.9870785 24.151387 26.1367709 0.351481616"></polygon>
        <linearGradient x1="-0.000513241725%" y1="50.0001462%" x2="100.001487%" y2="50.0001462%" id="linearGradient-18">
            <stop stop-color="#FF933F" offset="0%"></stop>
            <stop stop-color="#FFCD44" offset="100%"></stop>
        </linearGradient>
        <path d="M0.0907767683,0.351481616 L6.24162557,24.151387 L12.5965775,24.151387 C12.5965775,2.94454314 26.1367709,0.351481616 26.1367709,0.351481616 L0.0907767683,0.351481616 Z" id="path-19"></path>
        <linearGradient x1="-0.000513241725%" y1="50.0001462%" x2="100.001487%" y2="50.0001462%" id="linearGradient-21">
            <stop stop-color="#C87231" offset="0%"></stop>
            <stop stop-color="#FFCD44" offset="100%"></stop>
        </linearGradient>
        <polygon id="path-22" points="0.526224072 0.26144187 22.2947498 0.26144187 22.2947498 22.0980712 0.526224072 22.0980712"></polygon>
        <polygon id="path-24" points="0 223.253731 269.704816 223.253731 269.704816 0.26144187 0 0.26144187"></polygon>
    </defs>
    <g id="Artboard" stroke="none" stroke-width="1" fill="none" fill-rule="evenodd">
        <g id="Group-18-Copy" transform="translate(0.000000, 15.000000)">
            <path d="M142.656716,251.149254 C211.032866,251.149254 266.462687,195.719433 266.462687,127.343284 C266.462687,58.9671343 211.032866,3.53731343 142.656716,3.53731343 C74.2805672,3.53731343 18.8507463,58.9671343 18.8507463,127.343284 C18.8507463,195.719433 74.2805672,251.149254 142.656716,251.149254 Z" id="Oval-Copy-11" stroke="#4A90E2" stroke-dasharray="9" fill-rule="nonzero"></path>
            <g id="Group-237">
                <g id="Group-3" transform="translate(0.000000, 168.447761)">
                    <mask id="mask-2" fill="white">
                        <use xlink:href="#path-1"></use>
                    </mask>
                    <g id="Clip-2"></g>
                    <path d="M257.126681,0.364697251 L4.13199566,0.364697251 C1.11221258,0.451920189 0.00819956616,0.772713276 0,1.48630228 L0,1.50210778 C0.0204989154,3.33203331 7.09262473,7.70840031 7.73043384,17.2373599 C8.61950108,30.5414922 107.093362,33.5667818 139.349284,35.3820726 C163.452495,36.7372478 167.337918,54.9773788 178.016681,55.0265515 L178.11039,55.0265515 C181.704729,55.0072336 186.072169,52.9308594 192.229458,47.4762061 C216.804143,25.7044242 256.449631,29.333835 266.748872,14.1283598 C275.406443,1.34639434 262.708829,0.328403142 258.442126,0.328403142 C257.632711,0.328403142 257.126681,0.364697251 257.126681,0.364697251" id="Fill-1" fill="url(#linearGradient-3)" mask="url(#mask-2)"></path>
                </g>
                <g id="Group-6" transform="translate(48.358209, 67.701493)">
                    <mask id="mask-5" fill="white">
                        <use xlink:href="#path-4"></use>
                    </mask>
                    <g id="Clip-5"></g>
                    <path d="M3.42145842,0.171352202 C-7.23190618,5.23413724 12.9166823,13.9801174 5.96901493,26.1771192 C-0.978063966,38.3747059 8.65721962,37.9290732 12.6565714,49.2798407 C15.4095096,57.0942029 1.337629,63.9208045 10.1372623,69.6754314 C18.937484,75.4283038 27.4711215,94.0238191 27.4711215,94.0238191 C37.1617228,101.573258 28.8134584,83.2028983 35.2544392,67.8004991 C41.69542,52.3980999 22.1800426,60.699617 32.5438721,41.5964782 C42.90829,22.4950937 20.4428316,35.0383089 21.7163156,16.7422213 C22.1153092,11.0121569 20.0603156,11.216259 17.2444094,11.4209459 C14.9216546,11.589374 12.0816205,11.7578021 9.67412367,8.59626629 C9.67412367,8.59626629 6.97591471,0.0187142337 4.07703198,0.0187142337 C3.85929211,0.0187142337 3.64037527,0.0672542774 3.42145842,0.171352202" id="Fill-4" fill="url(#linearGradient-6)" mask="url(#mask-5)"></path>
                </g>
                <path d="M78.5931739,154.746269 C74.4727332,151.806468 69.651604,131.319223 69.3635944,119.116123 C69.2158381,112.865241 67.3954332,110.261 65.7880054,107.963036 C64.2527242,105.76697 62.9258026,103.870741 63.6980606,99.5160883 C65.1756244,91.1921199 61.2929791,87.599356 61.2537313,87.5648045 L61.7027722,87.0447761 C61.8759242,87.1976223 65.9184466,90.9034104 64.3693132,99.6384824 C63.6466922,103.707353 64.8374008,105.409158 66.3438233,107.563645 C67.9247012,109.824129 69.8928624,112.638022 70.0440819,119.09914 C70.354024,132.195307 75.2830846,151.538841 78.9850746,154.181148 L78.5931739,154.746269 Z" id="Fill-7" fill="#FFFFFF"></path>
                <g id="Group-11" transform="translate(74.955224, 115.253731)">
                    <mask id="mask-8" fill="white">
                        <use xlink:href="#path-7"></use>
                    </mask>
                    <g id="Clip-10"></g>
                    <path d="M25.2096858,1.50523439 C24.3568987,1.97982594 23.6548421,2.72831112 22.9116245,3.52047761 C21.1625703,5.38578768 18.983934,7.70798066 13.4770511,7.73395333 C10.3372176,7.74930082 8.61657031,8.19083624 7.72552082,9.21026361 C6.71446661,10.3666378 6.90461901,12.0985428 7.16897722,14.4957023 C7.26057502,15.3238764 7.36318775,16.2636149 7.42637863,17.2789102 C7.80146583,23.3352651 4.28944383,27.7051671 4.25465986,27.7476679 C2.15718617,30.2923994 -0.427263158,35.5683935 0.688142969,38.8167484 C1.15482797,40.1785428 2.20182561,41.035641 3.79609112,41.3632508 C4.43205813,41.494885 5.01179104,41.5568653 5.54572506,41.5568653 C9.39805027,41.556275 10.8079607,38.3031978 12.671802,34.0023595 C13.062542,33.1003994 13.4666159,32.1683347 13.9240251,31.1849149 C16.288176,26.1048964 18.382751,25.2666874 21.8518727,23.8806912 C22.700022,23.5418659 23.6600597,23.1575884 24.7145939,22.6753231 C29.6846441,20.4009435 28.723447,17.0492882 27.8735585,14.0925356 C27.7547133,13.6787437 27.635868,13.2667227 27.5344148,12.8588337 C27.0967164,11.119255 27.9367494,10.2473996 29.2081037,8.9257448 C30.1536481,7.94527643 31.328187,6.72338028 32.2348892,4.79431911 C33.2268123,2.68285894 32.7212852,1.55068657 32.1224211,0.97220433 C31.5786316,0.448028589 30.7287431,0.191253311 29.7176889,0.191253311 C28.3843032,0.191253311 26.7703268,0.637511036 25.2096858,1.50523439 M3.93232836,40.6808779 C2.58966693,40.4040328 1.71658916,39.6998192 1.33396544,38.5871263 C0.350738413,35.7236393 2.70271485,30.7120942 4.77989788,28.1945159 C4.9317879,28.0097557 8.50178319,23.5778734 8.10930401,17.2352289 C8.04611312,16.2034055 7.94118146,15.2542224 7.84842419,14.4177843 C7.60493637,12.199482 7.4292773,10.5980307 8.23742498,9.67363969 C8.97600471,8.82834728 10.5928798,8.44584066 13.4799497,8.43108346 C19.2784383,8.40274963 21.5678036,5.96249905 23.4072962,4.00156233 C24.1429772,3.21706958 24.7783645,2.53882867 25.5378146,2.11736304 C27.9889254,0.75438806 30.6174344,0.479904141 31.6516779,1.47808114 C32.4377958,2.23660122 32.0667667,3.53700568 31.6174737,4.49327223 C30.7600487,6.31844272 29.6759482,7.44471221 28.7188091,8.4387572 C27.3889018,9.82121169 26.337846,10.9126542 26.8712003,13.0317881 C26.976132,13.4467606 27.0961367,13.8676359 27.2167211,14.2885112 C28.0619717,17.2328678 28.8602639,20.0143048 24.4345829,22.0401732 C23.3951218,22.5153551 22.4426206,22.8960908 21.6020079,23.232555 C18.0992616,24.6309472 15.7855475,25.5559285 13.3054501,30.8868194 C12.8445625,31.8790935 12.4387494,32.8152903 12.0456905,33.7213824 C10.1743126,38.0399294 8.95223566,40.861506 5.54920346,40.8609157 C5.05816968,40.8609157 4.52191673,40.8018869 3.93232836,40.6808779" id="Fill-9" fill="url(#linearGradient-9)" mask="url(#mask-8)"></path>
                </g>
                <g id="Group-14" transform="translate(78.179104, 120.895522)">
                    <mask id="mask-11" fill="white">
                        <use xlink:href="#path-10"></use>
                    </mask>
                    <g id="Clip-13"></g>
                    <path d="M17.0706165,5.75743024 C16.0665651,9.28909799 13.9596841,14.5506814 7.2776293,19.4472421 C1.18650052,23.9092797 0.322481777,39.1584685 0.288780979,39.8049968 L0.973255814,39.840623 C0.981390489,39.6852693 1.85180076,24.2748864 7.68145783,20.0049968 C14.5349219,14.9822842 16.6987456,9.5770279 17.7295252,5.94724205 C18.7940056,2.20240104 24.5876376,1.12894225 24.6451614,1.11842959 L24.5260465,0.438611291 C24.2703853,0.48358209 18.2530496,1.59617132 17.0706165,5.75743024" id="Fill-12" fill="url(#linearGradient-12)" mask="url(#mask-11)"></path>
                </g>
                <g id="Group-17" transform="translate(69.313433, 83.014925)">
                    <mask id="mask-14" fill="white">
                        <use xlink:href="#path-13"></use>
                    </mask>
                    <g id="Clip-16"></g>
                    <path d="M18.3333707,13.5883157 C16.506591,19.8467979 -1.99158448,16.3188186 5.77338985,31.9891722 C13.5372036,47.6601148 -4.04642149,37.2304891 1.2058603,50.9053846 C6.45814209,64.5802801 1.66255522,79.2051975 7.37153194,75.4858002 C13.0799284,71.765225 10.5794221,54.5446808 16.5164561,52.4991596 C22.4534901,50.4524604 23.4225887,48.0665098 17.5441648,42.5030218 C11.6651606,36.9407118 32.9481887,31.4178634 27.6953266,20.1860494 C22.4436251,8.95364638 28.5802818,2.11560964 23.5850722,0.377535017 C23.2421158,0.257972445 22.9310758,0.20143054 22.6502113,0.20143054 C19.3866125,0.200841561 20.0150758,7.82693111 18.3333707,13.5883157" id="Fill-15" fill="url(#linearGradient-15)" mask="url(#mask-14)"></path>
                </g>
                <path d="M79.3353918,157.970149 C78.7750136,155.629689 73.989372,135.039409 78.4538577,132.55061 C82.3902602,130.357312 82.2933752,121.824875 81.679172,113.768064 C81.1361375,106.636019 90.4418839,103.3031 90.8383949,103.164179 L91.0746269,103.819343 C90.9831243,103.85113 81.8801187,107.114 82.3836816,113.716264 C83.0140323,121.990284 83.0816126,130.770542 78.8025242,133.15515 C75.4115484,135.045884 78.5333991,151.593337 80.0231558,157.810626 L79.3353918,157.970149 Z" id="Fill-18" fill="#FFFFFF"></path>
                <g id="Group-22" transform="translate(62.865672, 149.910448)">
                    <mask id="mask-17" fill="white">
                        <use xlink:href="#path-16"></use>
                    </mask>
                    <g id="Clip-21"></g>
                    <polygon id="Fill-20" fill="url(#linearGradient-18)" mask="url(#mask-17)" points="0.0907767683 0.351481616 6.24162557 24.151387 19.9870785 24.151387 26.1367709 0.351481616"></polygon>
                </g>
                <g id="Group-25" transform="translate(62.865672, 149.910448)">
                    <mask id="mask-20" fill="white">
                        <use xlink:href="#path-19"></use>
                    </mask>
                    <g id="Clip-24"></g>
                    <path d="M0.0907767683,0.351481616 L6.24162557,24.151387 L12.5965775,24.151387 C12.5965775,2.94454314 26.1367709,0.351481616 26.1367709,0.351481616 L0.0907767683,0.351481616 Z" id="Fill-23" fill="url(#linearGradient-21)" mask="url(#mask-20)"></path>
                </g>
                <g id="Group-236">
                    <polygon id="Fill-26" fill="#FFCA55" points="129.43595 23.3367713 99.8817852 23.4730736 99.9807657 44.9612452 100.001265 49.4874209 104.49287 44.9395073 129.534931 44.8243554"></polygon>
                    <path d="M116.968158,35.0008975 C116.971672,36.2511184 115.964883,37.2680979 114.717963,37.2716229 C113.471043,37.276323 112.457811,36.2652186 112.453711,35.0149977 C112.449612,33.7653643 113.456987,32.7477973 114.703907,32.7436848 C115.950826,32.7389847 116.964059,33.7500891 116.968158,35.0008975" id="Fill-28" fill="#FFFFFF"></path>
                    <path d="M124.381328,34.9768096 C124.385427,36.227618 123.377466,37.245185 122.131132,37.2487101 C120.884213,37.2522351 119.87098,36.2423057 119.866881,34.9914973 C119.862781,33.7406889 120.870742,32.7242969 122.117076,32.7201844 C123.36341,32.7160718 124.377228,33.7271762 124.381328,34.9768096" id="Fill-30" fill="#FFFFFF"></path>
                    <path d="M109.724896,35.0238691 C109.728996,36.27409 108.721035,37.2910695 107.474701,37.2945946 C106.228367,37.2992947 105.214549,36.2881903 105.211035,35.0379694 C105.206349,33.787161 106.21431,32.770769 107.460644,32.7666564 C108.706978,32.7625438 109.720796,33.7736482 109.724896,35.0238691" id="Fill-32" fill="#FFFFFF"></path>
                    <polygon id="Fill-34" fill="#78C2FF" points="18.5816811 42.4549283 48.1352603 42.5918181 48.0374512 64.0794022 48.0157809 68.6055779 43.5247614 64.0588394 18.4832863 63.9425125"></polygon>
                    <path d="M31.0500586,54.1191133 C31.0453731,55.3699217 32.0533341,56.3863137 33.3002538,56.3910137 C34.5465879,56.3945388 35.55982,55.3840219 35.5639197,54.1332135 C35.5686052,52.8829926 34.5606443,51.8660131 33.3143102,51.8619005 C32.0673905,51.8572005 31.0535727,52.8683049 31.0500586,54.1191133" id="Fill-36" fill="#FFFFFF"></path>
                    <path d="M23.6366551,54.0961416 C23.6325553,55.3463625 24.6393449,56.363342 25.8862646,56.3668671 C27.1331844,56.3703921 28.1470022,55.3604628 28.151102,54.1096544 C28.1546161,52.8594335 27.1478265,51.842454 25.9009067,51.8383414 C24.653987,51.8342288 23.6407549,52.8453332 23.6366551,54.0961416" id="Fill-38" fill="#FFFFFF"></path>
                    <path d="M38.2927939,54.1420262 C38.2886941,55.392247 39.2960694,56.4092265 40.5429892,56.4127516 C41.7899089,56.4174517 42.803141,55.4063473 42.8078265,54.1561264 C42.8107549,52.9059055 41.8039653,51.888926 40.5570456,51.8848134 C39.3107115,51.8807009 38.2974794,52.8918053 38.2927939,54.1420262" id="Fill-40" fill="#FFFFFF"></path>
                    <polygon id="Fill-42" fill="#FFCA55" points="198.218714 13.8605904 156.19828 14.0544686 156.337672 44.6073293 156.367542 51.0423243 162.752662 44.5773663 198.358106 44.412276"></polygon>
                    <path d="M180.490373,30.4451701 C180.497401,32.2235623 179.063649,33.668249 177.291957,33.6741241 C175.520265,33.6799992 174.077727,32.2435377 174.072456,30.4651454 C174.067184,28.6879282 175.499766,27.241479 177.272043,27.2361915 C179.043735,27.2303164 180.486273,28.6673654 180.490373,30.4451701" id="Fill-44" fill="#FFFFFF"></path>
                    <path d="M191.032087,30.4118583 C191.037358,32.189663 189.604191,33.6355247 187.832499,33.6413998 C186.059636,33.6466874 184.618269,32.2102258 184.612998,30.4324211 C184.606555,28.6540289 186.039137,27.2081672 187.811414,27.2022921 C189.584863,27.196417 191.025644,28.6346411 191.032087,30.4118583" id="Fill-46" fill="#FFFFFF"></path>
                    <path d="M170.193416,30.4778356 C170.197516,32.2556404 168.766692,33.701502 166.992657,33.7073771 C165.220965,33.7132522 163.779599,32.2762032 163.773742,30.497811 C163.768471,28.7205938 165.201052,27.2741446 166.97333,27.268857 C168.746193,27.2629819 170.186974,28.7000309 170.193416,30.4778356" id="Fill-48" fill="#FFFFFF"></path>
                    <polygon id="Fill-50" fill="#78C2FF" points="266.107607 36.4120373 229.134592 36.5830027 229.258171 63.465102 229.283356 69.1275216 234.902987 63.438664 266.231187 63.2941366"></polygon>
                    <path d="M250.510393,51.0045475 C250.515664,52.5690861 249.254102,53.8410449 247.694427,53.8463325 C246.135338,53.85162 244.866748,52.5867114 244.861477,51.0221728 C244.857377,49.4576341 246.118354,48.1856753 247.677443,48.1803878 C249.237117,48.1756877 250.505121,49.4394213 250.510393,51.0045475" id="Fill-52" fill="#FFFFFF"></path>
                    <path d="M259.784102,50.974702 C259.789373,52.5392406 258.528397,53.8117869 256.968722,53.8170745 C255.410219,53.8217745 254.140458,52.5568659 254.135772,50.9929148 C254.131087,49.4283761 255.391477,48.1564174 256.951152,48.1517173 C258.510241,48.1464297 259.778831,49.4107508 259.784102,50.974702" id="Fill-54" fill="#FFFFFF"></path>
                    <path d="M241.448291,51.0332179 C241.453562,52.5977566 240.193171,53.8697153 238.633497,53.8750029 C237.074408,53.8802905 235.805232,52.6153819 235.800547,51.0508432 C235.795861,49.4863046 237.056837,48.2143458 238.616512,48.2090582 C240.175601,48.2049457 241.444191,49.4680918 241.448291,51.0332179" id="Fill-56" fill="#FFFFFF"></path>
                    <path d="M55.9100889,71.0971483 C54.3884837,70.5343139 53.6101106,68.8405231 54.1706095,67.313585 C54.7316941,65.7872345 56.4208048,65.0058465 57.9435813,65.5692684 C59.4646009,66.1326903 60.242974,67.8264811 59.6818894,69.3522441 C59.1208048,70.8797696 57.4328655,71.6605702 55.9100889,71.0971483 M61.3493297,69.9697169 C62.2501106,67.519801 60.9996768,64.800218 58.5573774,63.8972154 C56.1156638,62.9930378 53.4051215,64.2467838 52.5043406,66.6972872 C52.5043406,66.6972872 52.4065315,66.8864654 52.3122364,67.3635234 C52.2806095,67.519801 52.2554252,67.6772536 52.239026,67.8335312 C52.0527787,69.2823304 52.0346226,72.3221063 53.3418677,78.081465 C58.0642321,74.5540561 60.0174859,72.2316297 60.8140152,71.0084343 C60.9036247,70.8774196 60.9862061,70.7417048 61.0629306,70.6007025 C61.300718,70.1771079 61.3493297,69.9697169 61.3493297,69.9697169" id="Fill-58" fill="#FFCA55"></path>
                    <path d="M219.531495,15.0161047 L214.204119,12.6942659 C213.7672,12.5045002 213.566896,11.9939542 213.757243,11.5562594 C213.94759,11.1179771 214.454792,10.9170487 214.891711,11.1079894 L218.658826,12.7500793 L221.378154,6.70284078 C221.575529,6.26632098 222.085659,6.07244274 222.520236,6.26984604 C222.954228,6.46607432 223.147503,6.97779537 222.951885,7.41431517 L219.531495,15.0161047 Z" id="Fill-60" fill="#FFCA55"></path>
                    <g id="Group-64" transform="translate(207.917570, 0.000000)">
                        <mask id="mask-23" fill="white">
                            <use xlink:href="#path-22"></use>
                        </mask>
                        <g id="Clip-63"></g>
                        <path d="M6.04425163,3.51953632 C1.83494577,6.48822344 0.816442516,12.3386462 3.77472885,16.5616668 C6.7324295,20.7858624 12.5652495,21.8069545 16.7763124,18.8394424 C20.9867896,15.8713428 22.0047072,10.02092 19.0464208,5.79731189 C16.0869631,1.57311629 10.2547289,0.552024226 6.04425163,3.51953632 M17.6700651,20.1161012 C12.7579393,23.5788841 5.95347072,22.3862392 2.50145336,17.4593818 C-0.949392625,12.531937 0.238373102,5.70566036 5.1510846,2.243465 C10.0626247,-1.21931788 16.8670933,-0.0272604556 20.3185249,4.90077191 C23.771128,9.82762925 22.5821909,16.6533183 17.6700651,20.1161012" id="Fill-62" fill="#FFCA55" mask="url(#mask-23)"></path>
                    </g>
                    <polygon id="Fill-65" fill="#FFC655" points="183.377616 108.478224 169.204666 105.575338 171.186033 95.8408881 185.358397 98.7443616"></polygon>
                    <polygon id="Fill-67" fill="#FFBC55" points="169.204549 105.575103 177.398258 101.585324 183.377499 108.477989"></polygon>
                    <polygon id="Fill-69" fill="#FFA655" points="185.35828 98.7441266 177.038063 103.357254 171.185915 95.8412406"></polygon>
                    <path d="M197.352781,58.7345317 C193.639549,58.6963435 192.362174,62.0498496 192.362174,62.0498496 C192.362174,62.0498496 189.272694,60.2373818 186.402846,62.5985837 C183.532998,64.9609607 185.007163,67.2733994 185.007163,67.2733994 C187.032456,72.2296322 196.813367,74.7377116 196.813367,74.7377116 C196.813367,74.7377116 202.874017,66.6377137 201.35944,61.5011154 C201.35944,61.5011154 201.064256,58.7727198 197.352781,58.7345317" id="Fill-71" fill="#FFCA55"></path>
                    <path d="M136.389709,31.3219697 C133.22292,32.3483494 131.479926,35.7682441 132.503115,38.9449097 C133.127453,40.8795795 134.667215,42.3630418 136.622811,42.912951 L136.697193,42.9335138 L136.749319,42.9905023 C137.484351,43.7971533 138.499341,45.0426741 139.161163,46.3898341 L139.169362,46.4080469 C139.374351,46.9215305 139.806,47.310462 140.385241,47.5043402 C140.980295,47.703506 141.655002,47.672368 142.286369,47.4179763 C143.574872,46.8997926 144.273592,45.6025709 143.843701,44.5262529 L143.839601,44.5168528 L143.836672,44.5068651 C143.489948,43.4058717 143.289644,42.0798621 143.242204,40.5664368 L143.23869,40.4812478 L143.285544,40.4101591 C144.297605,38.8655958 144.553549,36.9744017 143.988364,35.2200974 C142.96459,32.0440193 139.555913,30.2950026 136.389709,31.3219697 M142.252985,48.0043111 C141.571835,48.2246273 140.85613,48.2299148 140.214807,48.0154738 C139.487388,47.7728322 138.94036,47.2763864 138.673874,46.6189629 C138.055393,45.3622794 137.108343,44.1901973 136.40318,43.4105718 C134.308777,42.794274 132.663007,41.1927222 131.991813,39.1099999 C130.877258,35.6513296 132.775458,31.9265174 136.223961,30.8084862 C139.672464,29.690455 143.385111,31.5939868 144.499666,35.0538321 C145.10702,36.9368011 144.844633,38.9654725 143.782204,40.6340004 C143.833158,42.0575367 144.02292,43.3030575 144.346217,44.3353122 C144.879189,45.6854098 144.047518,47.2916617 142.487258,47.9185346 C142.409362,47.9502602 142.331466,47.9790481 142.252985,48.0043111" id="Fill-73" fill="#FFD255"></path>
                    <polygon id="Fill-75" fill="#FFD255" points="140.276128 46.3855453 136.766714 40.0621771 138.616887 40.6420493 139.084848 39.3360149 140.191204 39.9270498 141.034588 38.2990601 142.966171 45.2822018 142.447842 45.4267292 140.881725 39.7637221 140.417278 40.6596746 139.380618 40.1056528 138.948384 41.3118105 137.891226 40.9804549 140.746432 46.1235159"></polygon>
                    <polygon id="Fill-77" fill="#FFD255" points="145.101748 48.1876141 140.775306 49.9295807 140.075414 48.180564 144.402443 46.4385974"></polygon>
                    <polygon id="Fill-79" fill="#FFD255" points="145.50956 47.1876724 139.790948 49.4901234 138.664679 46.6747763 144.382705 44.3723254"></polygon>
                    <path d="M156.501898,49.3397796 C156.501898,49.3397796 160.557755,48.913835 162.01962,52.8431007 C163.480315,56.7717789 164.857256,58.0584254 165.028861,60.1223474 C165.724653,68.4708619 169.611833,66.5826053 168.518362,71.3943107 C167.424892,76.2066037 166.668189,76.9357034 166.668189,76.9357034 L157.377495,75.1073728 L147.963807,75.1379233 C147.963807,75.1379233 151.646584,73.2931425 150.827798,69.3644643 C150.007256,65.4351986 147.963807,58.9955035 149.118189,54.6091552 C150.271399,50.2233944 154.077755,49.6752477 156.501898,49.3397796" id="Fill-81" fill="#464240"></path>
                    <path d="M153.935492,178.336608 C153.935492,178.336608 151.022304,182.349888 151.435796,182.997324 C151.85046,183.643584 155.030134,183.735823 156.963475,182.997324 C158.898573,182.257649 158.944842,177.474144 159.819852,175.419622 C160.18649,174.55892 159.401675,172.019703 158.300004,171.835812 C157.197163,171.651334 155.903974,172.231206 155.903974,172.231206 C155.903974,172.231206 157.033171,175.155242 153.935492,178.336608" id="Fill-83" fill="#EB4747"></path>
                    <path d="M155.90415,172.231441 C155.90415,172.231441 155.674562,174.12616 155.306167,175.46627 C154.937772,176.805793 152.957577,179.854968 153.048944,180.224512 C153.140896,180.594056 155.628293,180.928936 156.641525,179.976583 C157.654171,179.023642 158.43723,176.264108 158.529768,174.593818 C158.622892,172.924703 158.30018,171.835459 158.30018,171.835459 C158.30018,171.835459 156.871698,171.215049 155.90415,172.231441" id="Fill-85" fill="#EEA886"></path>
                    <polygon id="Fill-87" fill="#EB4747" points="159.819794 175.419739 159.819794 179.692111 159.266909 179.692111 159.266909 176.389718"></polygon>
                    <path d="M161.558512,178.336608 C161.558512,178.336608 158.645909,182.349888 159.059401,182.997324 C159.474065,183.643584 162.653154,183.735823 164.58708,182.997324 C166.522178,182.257649 166.567861,177.474144 167.442872,175.419622 C167.808924,174.55892 167.024694,172.019703 165.922438,171.835812 C164.820768,171.651334 163.527579,172.231206 163.527579,172.231206 C163.527579,172.231206 164.655605,175.155242 161.558512,178.336608" id="Fill-89" fill="#EB4747"></path>
                    <path d="M163.527755,172.231441 C163.527755,172.231441 163.298167,174.12616 162.929772,175.46627 C162.561377,176.805793 160.580011,179.854968 160.671963,180.224512 C160.764501,180.594056 163.251898,180.928936 164.264544,179.976583 C165.277191,179.023642 166.060835,176.264108 166.153373,174.593818 C166.245911,172.924703 165.922614,171.835459 165.922614,171.835459 C165.922614,171.835459 164.494132,171.215049 163.527755,172.231441" id="Fill-91" fill="#EEA886"></path>
                    <polygon id="Fill-93" fill="#EB4747" points="167.442813 175.419739 167.442813 179.692111 166.890514 179.692111 166.890514 176.389718"></polygon>
                    <path d="M148.580824,105.711993 C148.580824,105.711993 146.376898,117.891072 145.781844,120.937898 C145.186204,123.985898 143.518764,138.741208 143.340716,141.250462 C143.160911,143.760304 148.773514,155.828931 149.124924,156.661432 C154.996985,170.597165 155.67462,173.750918 155.67462,173.750918 C155.67462,173.750918 157.60269,174.962363 158.4941,173.516501 C158.764685,173.075869 154.879262,157.096189 154.239111,152.662253 C153.644056,148.539109 152.094338,142.172852 152.511931,140.725228 C152.928937,139.278192 156.74115,119.336933 157.455683,118.500907 C158.170803,117.664293 159.242603,118.978552 159.65961,120.830971 C160.076616,122.682802 160.969197,138.694207 161.504512,140.725228 C162.040998,142.75625 161.624577,149.627177 161.922104,153.09231 C162.220217,156.557443 163.460694,172.731588 163.460694,172.731588 C163.460694,172.731588 165.859653,173.162233 166.09744,172.776826 C166.336399,172.392008 168.413232,154.812539 168.473557,150.691157 C168.532711,146.568013 168.596551,140.883268 168.711345,139.100176 C169.814772,122.017741 171.899219,119.783441 168.256269,107.488035 C159.341584,77.4045949 148.580824,105.711993 148.580824,105.711993" id="Fill-95" fill="#EEA886"></path>
                    <path d="M148.580824,105.711993 C148.580824,105.711993 146.376898,117.891072 145.781844,120.937898 C145.186204,123.985898 143.518764,138.741208 143.340716,141.250462 C143.160911,143.760304 148.580824,155.828343 148.700304,156.724296 C148.819197,157.620836 153.28269,170.448525 153.28269,170.448525 C153.28269,170.448525 157.79128,170.370974 159.020043,169.198892 C159.266616,168.9633 154.879262,157.096189 154.239111,152.662253 C153.644056,148.539109 152.094338,142.172852 152.511931,140.725228 C152.928937,139.278192 156.74115,119.336933 157.455683,118.500907 C158.170803,117.664293 159.242603,118.978552 159.65961,120.830971 C160.076616,122.682802 160.969197,138.694207 161.504512,140.725228 C162.040998,142.75625 161.624577,149.627177 161.922104,153.09231 C162.220217,156.557443 161.592364,168.869299 161.592364,168.869299 C161.592364,168.869299 167.498395,169.179504 167.735597,168.794685 C167.97397,168.410453 168.413232,154.812539 168.473557,150.691157 C168.532711,146.568013 168.596551,140.883268 168.711345,139.100176 C169.814772,122.017741 171.899219,119.783441 168.256269,107.488035 C159.341584,77.4045949 148.580824,105.711993 148.580824,105.711993" id="Fill-97" fill="#FAA146"></path>
                    <path d="M169.140944,109.810814 C169.48474,109.671574 166.727343,100.525221 166.180315,97.7915382 C165.687169,95.326347 164.00743,93.0679592 165.648514,88.867264 C166.58795,86.4625863 166.524696,83.6196263 166.524696,83.6196263 C166.524696,83.6196263 169.034935,89.1745317 169.273308,90.6086431 C169.511681,92.0427546 160.596996,89.4336235 160.474002,89.6322018 C160.238557,90.0099706 159.9791,92.4299236 159.9791,93.2665376 C159.9791,93.9580366 172.918601,97.0248379 174.450163,94.3070174 C174.885325,93.5362046 172.074046,78.7844205 170.26077,76.8197877 C167.283156,73.5931837 159.461356,70.8448128 159.461356,70.8448128 C159.461356,70.8448128 157.317169,69.690356 153.544197,70.8847635 C149.772983,72.080346 144.492462,75.7434697 143.57821,76.6999357 C142.665716,77.6564017 139.012223,92.0603799 138.693026,93.9263111 C138.393742,95.6806154 138.511464,99.3725271 142.505239,98.9007567 L153.285325,96.4244028 L152.615889,93.1278852 L144.535803,93.769446 C142.886518,94.0520382 143.677191,92.5997139 143.888037,91.7924754 C144.093026,91.0010997 146.121247,83.6701522 146.121247,83.6701522 C146.003525,85.7011736 147.530987,92.3699976 148.325759,94.6806737 C149.11936,96.9907623 147.363482,109.352556 147.244588,110.705592 C147.244588,110.705592 153.734544,116.053106 169.140944,109.810814" id="Fill-99" fill="#EB4747"></path>
                    <path d="M161.2211,71.5211541 C161.2211,71.5211541 158.561512,77.0261211 156.340601,78.6394231 C156.340601,78.6394231 152.342141,72.6291976 152.545959,71.2426745 C152.545959,71.2426745 156.975482,69.272754 161.2211,71.5211541" id="Fill-101" fill="#EEA886"></path>
                    <path d="M161.316625,90.0821756 C161.316625,90.0821756 160.084347,89.5839673 159.757536,89.1356973 C159.430725,88.6868398 158.337839,88.4195228 157.529597,88.6604018 C156.721354,88.9024559 157.168816,92.3863891 157.168816,92.3863891 L161.434347,92.9404109 L161.316625,90.0821756 Z" id="Fill-103" fill="#EEA886"></path>
                    <path d="M153.59521,92.7431838 C153.59521,92.7431838 154.005189,90.4918462 153.906794,90.0764767 C153.807813,89.6616948 154.635384,89.2445628 154.750764,90.27153 C154.866143,91.2984972 154.927054,91.9512206 154.927054,91.9512206 L153.59521,92.7431838 Z" id="Fill-105" fill="#EEA886"></path>
                    <path d="M155.368835,94.3060774 L158.474128,94.1785878 C158.871221,94.162725 159.186905,93.8378321 159.19159,93.4383254 L159.274757,86.6179239 C159.2812,86.1908043 158.929204,85.845936 158.503412,85.8594488 L154.785495,85.9810633 C154.358531,85.995751 154.030549,86.3629447 154.063933,86.7888893 L154.592805,93.6139909 C154.62326,94.0170226 154.967056,94.3219402 155.368835,94.3060774" id="Fill-107" fill="#51578C"></path>
                    <path d="M153.526568,92.9262519 C153.526568,92.9262519 153.468586,92.2864537 154.693249,91.7012939 C156.319106,90.9234309 158.487892,90.1326427 158.857458,90.3370961 C159.391601,90.630851 159.11633,91.0379953 158.089041,91.377576 C157.062338,91.7171567 156.723228,91.825846 156.723228,91.825846 C156.723228,91.825846 158.732707,91.6337303 159.183683,91.8746093 C159.634659,92.1166633 159.659844,92.6730351 159.330104,92.7652742 C159.00095,92.8557507 158.223748,92.9115641 158.223748,92.9115641 C158.223748,92.9115641 159.076503,92.9438772 159.162013,93.2869829 C159.224681,93.5419622 159.256308,93.9056307 158.449236,94.0560333 C158.449236,94.0560333 158.99685,94.6652809 158.175722,95.055975 C157.35518,95.4460815 155.869302,95.8026999 155.123141,95.924902 C153.57108,96.1804688 150.066937,95.9907031 150.066937,95.9907031 L151.505961,93.5478373 C151.505961,93.5478373 152.307176,93.6101133 152.857718,93.4226977 C153.602121,93.1677184 153.526568,92.9262519 153.526568,92.9262519" id="Fill-109" fill="#EEA886"></path>
                    <polygon id="Fill-111" fill="#EB4747" points="152.616007 93.128179 153.285443 96.4241091 146.415963 98.002748 146.150649 93.6410751"></polygon>
                    <path d="M160.474119,89.6323781 C160.474119,89.6323781 159.907764,90.8508734 159.978631,93.2667138 C159.978631,93.2667138 164.238892,94.8271399 167.547416,95.1896334 L167.547416,90.9971634 L160.474119,89.6323781 Z" id="Fill-113" fill="#EB4747"></path>
                    <path d="M153.285208,96.4243441 L148.46972,99.110439 C148.503104,98.5499546 148.527117,98.0141457 148.538245,97.5153498 L153.285208,96.4243441 Z" id="Fill-115" fill="#B33636"></path>
                    <path d="M165.943698,96.7817851 C162.079946,95.2419218 160.533742,93.8530486 160.108536,93.4124162 C160.017755,93.3178272 159.9791,93.2667138 159.9791,93.2667138 L165.465195,94.8717906 L165.465781,94.8717906 C165.602245,95.5380268 165.78205,96.1637247 165.943698,96.7817851" id="Fill-117" fill="#B33636"></path>
                    <path d="M157.0361,51.6381768 C157.0361,51.6381768 162.407987,52.4160398 161.622,60.3691602 C160.835427,68.3246307 156.094321,67.6930576 155.778052,67.6860075 C155.460612,67.6801324 151.021132,67.8522728 150.63751,58.1454356 C150.63751,58.1454356 150.459462,50.9678281 157.0361,51.6381768" id="Fill-119" fill="#EEA886"></path>
                    <path d="M159.422876,66.2753964 C159.422876,66.2753964 159.09138,70.4132281 159.88498,71.6522863 C160.679753,72.8925195 159.206174,74.5751477 156.168234,73.9988005 C153.132052,73.4242159 153.308928,71.6975246 153.308928,71.6975246 C153.308928,71.6975246 154.159341,69.1430319 153.910425,67.0990852 C153.66151,65.0557261 159.422876,66.2753964 159.422876,66.2753964" id="Fill-121" fill="#EEA886"></path>
                    <path d="M156.421777,54.521205 C156.421777,54.521205 158.932015,57.1679367 160.098111,58.5080466 C161.263035,59.8481565 161.397156,62.4373123 161.397156,62.4373123 C161.397156,62.4373123 163.362124,60.0308721 162.539824,57.2284502 C161.719282,54.4266159 159.775399,48.9751123 154.856831,50.6489278 C149.937677,52.3245058 149.756115,59.6959915 150.332427,63.3503026 C150.332427,63.3503026 152.541039,55.2820302 156.421777,54.521205" id="Fill-123" fill="#464240"></path>
                    <path d="M154.305586,67.3259227 C154.305586,67.3259227 156.59385,68.4110534 158.821204,66.8077391 C158.821204,66.8077391 158.202722,68.090273 156.562809,68.2718136 C154.924067,68.4545291 154.305586,67.3259227 154.305586,67.3259227" id="Fill-125" fill="#A77860"></path>
                    <path d="M153.525397,68.7689056 C153.525397,68.7689056 146.135245,75.3648784 148.052772,79.4797971 C149.689171,82.9919308 155.493879,80.8381198 154.536872,77.1579583 C153.578694,73.4783843 153.525397,68.7689056 153.525397,68.7689056" id="Fill-127" fill="#464240"></path>
                    <path d="M155.538098,87.2960865 C155.538098,87.5522408 155.330766,87.7596318 155.076579,87.7596318 C154.820636,87.7596318 154.613889,87.5522408 154.613889,87.2960865 C154.613889,87.0405197 154.820636,86.8325413 155.076579,86.8325413 C155.330766,86.8325413 155.538098,87.0405197 155.538098,87.2960865" id="Fill-129" fill="#48484D"></path>
                    <polygon id="Fill-131" fill="#5C5049" points="65.6563861 182.445652 60.264 146.471251 61.3018308 146.311448 66.6942169 182.285262"></polygon>
                    <polygon id="Fill-133" fill="#5C5049" points="59.0714902 182.445652 53.6791041 146.471251 54.7181063 146.311448 60.1099067 182.285262"></polygon>
                    <polygon id="Fill-135" fill="#5C5049" points="26.6386334 182.445652 25.6002169 182.285262 30.992603 146.311448 32.0304338 146.471251"></polygon>
                    <path d="M61.9512364,146.838209 L66.1751844,102.258552 C66.1751844,102.258552 58.787961,101.289748 54.3238829,101.528277 L47.614295,146.838209 L61.9512364,146.838209 Z" id="Fill-137" fill="#FAB46C"></path>
                    <mask id="mask-25" fill="white">
                        <use xlink:href="#path-24"></use>
                    </mask>
                    <g id="Clip-140"></g>
                    <polygon id="Fill-139" fill="#FAB46C" mask="url(#mask-25)" points="47.614295 146.838092 61.9512364 146.838092 61.9512364 144.572066 47.614295 144.572066"></polygon>
                    <path d="M38.2344599,145.021746 L35.9930499,102.539499 C35.9930499,102.539499 54.6909892,100.50319 66.1750672,102.258669 L38.2344599,145.021746 Z" id="Fill-141" fill="#FAB46C" mask="url(#mask-25)"></path>
                    <path d="M53.1654599,88.7837789 C53.1654599,88.7837789 56.0528785,80.2907369 50.5427701,77.6581054 C45.0332473,75.0242989 40.3553948,78.830775 39.4721844,80.889997 C38.5883883,82.9492189 38.8220759,86.6940065 39.5758503,89.3060751 C40.3296247,91.9175563 40.2195163,95.8932352 38.5825315,97.2221824 C36.9455466,98.5523047 34.9155683,100.760167 35.0157202,105.255204 C35.0778026,108.043526 45.9539414,98.12166 45.9539414,98.12166 L53.1654599,88.7837789 Z" id="Fill-142" fill="#FCCCA2" mask="url(#mask-25)"></path>
                    <path d="M45.8140803,180.175984 C45.8140803,180.175984 45.6424751,186.178572 46.496987,186.538715 C47.3509132,186.900034 50.5850564,184.813199 52.0111952,182.748689 C53.4379197,180.685355 50.2236898,175.8807 49.6965748,173.231618 C49.4757722,172.120637 46.9631909,170.125453 45.7379414,170.696513 C44.5121063,171.269335 43.6183536,172.734584 43.6183536,172.734584 C43.6183536,172.734584 46.7359458,174.87782 45.8140803,180.175984" id="Fill-143" fill="#D4C3BD" mask="url(#mask-25)"></path>
                    <path d="M43.618295,172.734526 C43.618295,172.734526 44.6795531,174.782585 45.2248243,176.371799 C45.7706811,177.961013 45.87259,182.362637 46.2163861,182.668142 C46.5590108,182.973647 49.2695531,181.602399 49.6315054,179.956784 C49.992872,178.310581 48.8941302,175.021701 47.8480998,173.292073 C46.8020694,171.563031 45.7378829,170.696454 45.7378829,170.696454 C45.7378829,170.696454 43.8900521,171.057185 43.618295,172.734526" id="Fill-144" fill="#DE9673" mask="url(#mask-25)"></path>
                    <polygon id="Fill-145" fill="#D4C3BD" mask="url(#mask-25)" points="49.6965163 173.231442 52.6091193 177.494413 52.05682 177.872769 49.806039 174.578014"></polygon>
                    <path d="M39.2148351,126.095822 C39.2148351,126.095822 40.6392169,128.50755 39.2148351,130.263617 C37.7904534,132.019684 28.2174599,136.843727 28.2871562,139.629699 C28.3574382,142.416258 30.110974,146.777343 30.7411692,147.883624 C31.3713644,148.989905 33.6965271,153.580707 34.9047918,156.267977 C36.1124707,158.954659 43.0973297,171.808787 44.4631432,174.705797 C45.8283709,177.603983 44.9879154,163.117166 44.9879154,163.117166 L38.0036421,142.570773 L54.3237072,126.622231 C54.3237072,126.622231 52.3476117,122.211795 39.2148351,126.095822" id="Fill-146" fill="#DE9673" mask="url(#mask-25)"></path>
                    <path d="M45.4234881,98.886774 C45.4234881,98.886774 40.8949848,99.8937658 39.0981085,100.948346 C37.3006464,102.001751 33.3092148,106.848707 33.3092148,108.932604 C33.3092148,111.016502 50.7649197,112.963509 50.7649197,112.963509 L54.0740304,125.080899 C54.0740304,125.080899 62.8967636,122.920038 63.9474794,121.128721 C64.9970239,119.337991 60.4726204,106.589028 59.8424252,103.901758 C59.2128156,101.215663 55.9113189,99.4037826 52.2361562,98.886774 C48.5592364,98.3709404 45.4234881,98.886774 45.4234881,98.886774" id="Fill-147" fill="#2F4563" mask="url(#mask-25)"></path>
                    <path d="M56.1264403,126.493978 C56.1264403,126.493978 55.8113427,128.565538 56.6512126,129.443277 C57.4922538,130.322779 61.362449,135.44234 59.3125575,140.472599 C57.430757,145.091601 53.7801931,145.003475 53.7801931,145.003475 L48.1318633,145.003475 C48.1318633,145.003475 49.7711909,153.317914 49.2423189,158.795855 C48.7122755,164.275559 46.2207787,176.787168 46.1686529,177.418742 C46.1159414,178.05149 43.7802364,180.027873 43.0973297,179.026756 C43.0973297,179.026756 43.0340759,171.493117 42.6662668,168.648395 C42.2990434,165.803085 40.7340976,154.424195 40.2608655,152.738629 C39.7888048,151.052476 37.0050521,145.941728 37.0050521,145.415319 C37.0050521,144.88891 34.2863102,136.640272 40.2216247,134.53405 C46.1557679,132.426065 48.2536855,126.538041 56.1264403,126.493978" id="Fill-148" fill="#EEA886" mask="url(#mask-25)"></path>
                    <path d="M40.2849957,184.837052 C40.2849957,184.837052 36.3890304,189.39554 36.8271215,190.215117 C37.2652126,191.03528 41.0873818,191.452412 43.491026,190.747401 C45.8934989,190.041801 46.4065575,184.279505 47.6581627,181.886577 C48.1823492,180.884873 47.4795293,177.747571 46.1687701,177.418565 C44.8574252,177.090735 43.243282,177.666494 43.243282,177.666494 C43.243282,177.666494 44.323282,181.299655 40.2849957,184.837052" id="Fill-149" fill="#E6D3CC" mask="url(#mask-25)"></path>
                    <path d="M43.2431063,177.666436 C43.2431063,177.666436 42.7845163,179.928348 42.2111323,181.508162 C41.6395054,183.088564 38.96059,186.573672 39.0355575,187.027817 C39.1111106,187.48255 42.0781822,188.125873 43.3906985,187.074818 C44.7032148,186.023175 45.9114794,182.772484 46.1826508,180.767312 C46.4526508,178.763317 46.1685944,177.418507 46.1685944,177.418507 C46.1685944,177.418507 44.5058395,176.533717 43.2431063,177.666436" id="Fill-150" fill="#EEA886" mask="url(#mask-25)"></path>
                    <polygon id="Fill-151" fill="#E6D3CC" mask="url(#mask-25)" points="47.6580456 181.886284 47.2498243 187.038157 46.5833167 186.984694 46.899 183.00314"></polygon>
                    <path d="M59.3127918,140.472599 C57.5358286,145.152702 53.7804273,145.003475 53.7804273,145.003475 L48.1320976,145.003475 C48.1320976,145.003475 45.775308,141.2581 40.0051562,140.614189 C38.7266095,140.472012 37.2793861,140.481412 35.6535293,140.718178 C35.6342017,140.721116 35.6148742,140.723466 35.594961,140.726991 C27.9283666,141.866172 29.408974,144.689157 29.4318156,144.762596 C28.7957636,143.20217 28.1263275,140.719941 28.2868048,139.383356 C29.022423,133.296167 37.7906876,132.019508 39.2150694,130.263441 C40.6388655,128.507374 39.2150694,126.095646 39.2150694,126.095646 C52.347846,122.211619 54.3233557,126.622055 54.3233557,126.622055 C54.8990824,126.542154 56.3744187,125.689677 57.0022711,125.685564 C57.0022711,125.685564 57.6594078,127.125551 58.1220976,128.42571 C58.5303189,129.571942 61.2408612,135.394164 59.3127918,140.472599" id="Fill-152" fill="#2F4563" mask="url(#mask-25)"></path>
                    <polygon id="Fill-153" fill="#DED1C5" mask="url(#mask-25)" points="53.8638286 106.957573 55.8065401 125.081076 30.2303362 125.081076 28.287039 106.957573"></polygon>
                    <polygon id="Fill-154" fill="#DED1C5" mask="url(#mask-25)" points="53.5701085 125.080841 57.8420824 125.080841 57.8420824 123.450501 53.5701085 123.450501"></polygon>
                    <polygon id="Fill-155" fill="#BC8551" mask="url(#mask-25)" points="12.6039046 127.547207 83.0522343 127.547207 83.0522343 125.080841 12.6039046 125.080841"></polygon>
                    <path d="M48.2540369,79.1059059 C48.2540369,79.1059059 53.9837766,80.8067468 53.165577,88.7839551 C52.3462061,96.7611635 48.6042755,96.3504941 48.2540369,96.4086576 C47.9026269,96.4674086 43.4590477,96.7611635 42.0557505,87.0831142 C40.6524534,77.405065 48.2540369,79.1059059 48.2540369,79.1059059" id="Fill-156" fill="#EEA886" mask="url(#mask-25)"></path>
                    <path d="M50.9846095,94.9417043 C50.9846095,94.9417043 50.6812256,97.5825609 51.1884273,99.2252384 C51.6950434,100.867916 44.5133948,100.912567 44.5180803,99.5618815 C44.52218,98.0278934 45.2525271,96.745947 44.5643492,94.117428 C43.876757,91.4871466 50.9846095,94.9417043 50.9846095,94.9417043" id="Fill-157" fill="#EEA886" mask="url(#mask-25)"></path>
                    <path d="M46.7743666,82.6631016 C46.7743666,82.6631016 49.8884447,87.6316721 53.1653427,88.7837789 C53.1653427,88.7837789 54.9546052,80.4476021 47.5644534,78.6997603 C40.1737158,76.9536812 41.331026,87.1211261 41.8827397,89.8318964 C41.8827397,89.8318964 43.4213297,85.8432922 46.7743666,82.6631016" id="Fill-158" fill="#FCCCA2" mask="url(#mask-25)"></path>
                    <path d="M45.4142343,95.2785237 C45.4142343,95.2785237 47.6814143,97.6479508 50.5811323,95.5252778 C50.5811323,95.5252778 50.3415879,97.0398781 48.2565553,97.2361064 C46.1709371,97.4311597 45.4142343,95.2785237 45.4142343,95.2785237" id="Fill-159" fill="#A77860" mask="url(#mask-25)"></path>
                    <path d="M42.5985033,81.9143791 C42.5985033,81.9143791 44.2378308,78.7306634 47.0045987,78.588486 C49.772538,78.4463086 51.418308,80.8545114 51.418308,80.8545114 C51.418308,80.8545114 50.3377223,78.1431535 47.0081128,78.1431535 C43.6790889,78.1431535 42.5985033,81.9143791 42.5985033,81.9143791" id="Fill-160" fill="#23344A" mask="url(#mask-25)"></path>
                    <path d="M51.92141,98.8448845 C51.92141,98.8448845 51.8195011,104.366302 47.4549892,104.530805 C43.0893059,104.69472 43.9982863,99.2349911 43.9982863,99.2349911 C43.9982863,99.2349911 47.1914317,97.9371819 51.92141,98.8448845" id="Fill-161" fill="#EEA886" mask="url(#mask-25)"></path>
                    <polygon id="Fill-162" fill="#807066" mask="url(#mask-25)" points="81.2430586 184.211941 83.05282 184.211941 83.05282 127.547794 81.2430586 127.547794"></polygon>
                    <polygon id="Fill-163" fill="#807066" mask="url(#mask-25)" points="12.6039046 184.211941 14.4130803 184.211941 14.4130803 127.547794 12.6039046 127.547794"></polygon>
                    <path d="M116.251575,73.9348795 C116.251575,73.9348795 121.855978,75.5857821 121.513354,83.2281098 C121.168972,90.8704375 116.251575,73.9348795 116.251575,73.9348795" id="Fill-164" fill="#EEA886" mask="url(#mask-25)"></path>
                    <path d="M115.735705,73.9348795 C115.735705,73.9348795 116.167939,74.5247393 115.626768,78.3276904 C115.086768,82.1300539 116.111714,83.720443 116.233536,85.3031945 C116.355944,86.8853584 118.206117,97.1062667 118.256486,97.5580618 C118.306269,98.0104443 118.554599,103.450198 119.276746,104.893709 C119.998308,106.337221 125.302842,114.518883 125.374295,114.926615 C125.445163,115.336109 127.95013,113.502491 127.95013,113.502491 C127.95013,113.502491 123.186768,103.561825 122.878113,102.581858 C122.495076,101.364538 121.321952,98.350025 121.250499,96.7725612 C121.074208,92.9167342 121.42269,83.961322 121.287983,82.0107894 C121.034382,78.3588284 118.165705,74.5153392 115.735705,73.9348795" id="Fill-165" fill="#EEA886" mask="url(#mask-25)"></path>
                    <path d="M122.878816,106.568054 C122.878816,106.568054 123.713414,108.407547 124.207145,108.521524 C124.699119,108.636088 125.287145,109.248273 125.710009,109.436864 C126.132286,109.624867 127.461787,109.727094 127.820226,110.075487 C127.965475,110.218252 128.525974,111.444973 128.852785,111.701714 C129.181354,111.959631 129.907015,112.400851 129.682113,112.676981 C129.457796,112.952523 128.703436,112.736907 128.703436,112.736907 C128.703436,112.736907 128.988078,112.989536 128.866842,113.294454 C128.62964,113.889013 128.232547,113.916039 128.232547,113.916039 C128.232547,113.916039 128.35964,114.361959 128.198577,114.58345 C127.84541,115.071083 127.458859,115.085771 127.458859,115.085771 C127.458859,115.085771 127.426061,115.430052 127.117406,115.699719 C126.722069,116.043999 126.234781,115.847771 126.234781,115.847771 C126.234781,115.847771 125.84003,116.39533 125.475735,116.288404 C125.110269,116.182652 124.898252,115.908872 124.638208,115.749657 C124.377579,115.589267 122.55669,113.489507 121.884911,111.525461 C121.211961,109.559654 120.045866,107.963389 120.045866,107.963389 L122.878816,106.568054 Z" id="Fill-166" fill="#EEA987" mask="url(#mask-25)"></path>
                    <polygon id="Fill-167" fill="#214361" mask="url(#mask-25)" points="117.754087 120.729097 107.807427 108.426053 128.273544 91.7748501 138.22079 104.076718"></polygon>
                    <path d="M128.60182,112.493031 C128.60182,112.493031 127.015204,110.724627 126.224531,110.758702 C125.433859,110.791603 125.973273,111.461952 125.973273,111.461952 C125.973273,111.461952 125.450844,110.791015 124.889174,111.146459 C124.326332,111.501902 124.997525,112.25274 124.997525,112.25274 C124.997525,112.25274 124.469239,111.849708 124.052818,112.407842 C123.636983,112.967739 124.331017,113.464185 124.331017,113.464185 C124.331017,113.464185 123.283816,113.30967 123.508718,114.166847 C123.886484,115.613884 125.444987,116.321245 125.444987,116.321245 C125.444987,116.321245 125.880735,116.44286 126.244445,115.8765 C126.244445,115.8765 127.222536,116.252507 127.491364,115.115088 C127.491364,115.115088 128.63579,114.850708 128.27208,113.933605 C128.27208,113.933605 129.477416,113.510598 128.60182,112.493031" id="Fill-168" fill="#DB9C7C" mask="url(#mask-25)"></path>
                    <path d="M111.128017,51.6066275 C111.128017,51.6066275 103.022161,50.9304037 103.244134,59.4833717 C103.466108,68.0357521 104.81728,69.3229861 103.238863,75.3666996 C101.662204,81.4110007 111.141488,71.9344673 111.141488,71.9344673 L111.128017,51.6066275 Z" id="Fill-169" fill="#FCCCA2" mask="url(#mask-25)"></path>
                    <path d="M102.29644,104.458952 C102.29644,104.458952 99.3117983,108.274241 98.258154,110.799946 C97.2045098,113.323888 95.4492169,118.857055 95.6834902,123.142352 C95.9171779,127.428236 97.3210607,135.470658 96.9116681,137.290763 C96.5016898,139.110281 96.0934685,142.868582 95.6542061,144.159341 C95.2143579,145.451275 93.4596508,149.207813 93.2827744,153.08244 C93.1082408,156.957067 95.7420586,173.982514 95.6243362,175.567028 C95.5071996,177.152717 98.609564,176.213289 98.609564,176.213289 C98.609564,176.213289 99.6620369,160.832282 100.24772,158.19025 C100.832818,155.548218 101.535052,146.566956 102.062753,145.920695 C102.589282,145.275022 104.029477,138.582697 103.805746,137.525767 C103.583187,136.468837 109.553056,120.617822 109.903881,117.447619 C110.255291,114.278004 119.057525,104.458952 119.057525,104.458952 C119.057525,104.458952 111.367503,101.509065 102.29644,104.458952" id="Fill-170" fill="#EEA987" mask="url(#mask-25)"></path>
                    <path d="M116.54102,104.458952 C116.54102,104.458952 116.692711,106.058741 116.868416,106.645664 C117.044121,107.232586 121.082993,122.203511 121.492386,127.956995 C121.902364,133.709891 122.954837,138.589748 123.130542,139.818818 C123.306247,141.047889 122.954837,145.15752 122.604013,146.21445 C122.253774,147.270793 124.359892,172.22116 124.535597,172.808669 C124.711302,173.395004 123.130542,173.571845 122.019501,173.395004 C120.906703,173.219339 115.288829,155.078798 115.640239,152.026685 C115.991649,148.973396 116.341302,142.464375 115.347397,139.818818 C114.352321,137.173849 105.398395,118.034542 105.339826,116.860697 C105.281258,115.686265 101.464946,95.4624143 116.54102,104.458952" id="Fill-171" fill="#EEA987" mask="url(#mask-25)"></path>
                    <path d="M98.5535141,174.341659 C98.5535141,174.341659 98.8416703,176.36798 99.1567679,176.921414 C99.4724512,177.474261 100.337505,180.290196 100.732256,180.816605 C101.125835,181.343601 101.991475,185.291079 100.732256,185.764612 C99.4724512,186.238733 96.506551,187.028346 95.5103037,185.449119 C94.512885,183.869893 94.3822777,182.290079 94.5392408,181.079809 C94.6967896,179.868951 95.8933406,174.311696 95.8775271,173.762374 C95.8599566,173.212465 98.5535141,174.341659 98.5535141,174.341659" id="Fill-172" fill="#EEA987" mask="url(#mask-25)"></path>
                    <path d="M100.229388,179.722779 C100.229388,179.722779 100.364095,182.790755 98.0553319,182.790755 C95.7459826,182.790755 94.7227939,179.998908 94.7227939,179.998908 C94.7227939,179.998908 93.9362213,181.369569 94.7227939,184.291255 C95.5099523,187.212354 98.7903644,186.607219 99.5248113,186.501467 C100.259258,186.396303 103.741731,185.47215 100.229388,179.722779" id="Fill-173" fill="#FFFFFF" mask="url(#mask-25)"></path>
                    <path d="M124.286447,171.586003 C124.286447,171.586003 125.918746,174.514739 126.887466,175.108124 C128.095731,175.848387 130.439636,178.220164 131.258421,178.330028 C132.078377,178.439305 135.021436,178.962776 134.452738,180.629541 C133.986534,181.995502 126.965948,181.800449 126.174104,181.116 C125.38226,180.430963 123.014343,177.97341 122.058508,178.028048 C121.102672,178.083274 121.458768,181.572495 121.458768,181.572495 L120.420937,181.572495 C120.420937,181.572495 120.057813,178.177275 120.014473,177.593878 C119.885037,175.866012 121.1138,174.594053 121.168269,173.609387 C121.222738,172.622958 121.278377,171.887983 121.278377,171.887983 L124.286447,171.586003 Z" id="Fill-174" fill="#FFFFFF" mask="url(#mask-25)"></path>
                    <path d="M131.024675,178.249422 C131.024675,178.249422 128.709469,179.051373 126.928991,178.024993 C125.147928,176.998026 121.729295,175.438775 120.520445,175.427024 C120.520445,175.427024 121.178167,173.404816 121.192809,173.178037 C121.206866,172.951846 121.278319,171.887865 121.278319,171.887865 L124.267646,171.40787 C124.267646,171.40787 126.205672,174.261405 127.059599,174.933516 C127.914696,175.606215 130.10398,177.282968 131.024675,178.249422" id="Fill-175" fill="#EEA987" mask="url(#mask-25)"></path>
                    <path d="M119.107952,104.195043 C119.107952,104.195043 119.940794,107.673101 120.248278,108.686555 C120.555761,109.698247 122.528343,125.409435 123.013289,135.236712 C123.013289,135.236712 111.206499,139.727049 94.9660868,138.978562 C94.9660868,138.978562 94.5707505,120.926735 96.0624859,115.818924 C97.5553926,110.711114 100.25715,105.932309 102.296499,104.458835 C104.11036,103.147513 119.107952,104.195043 119.107952,104.195043" id="Fill-176" fill="#5779D4" mask="url(#mask-25)"></path>
                    <path d="M121.136642,83.6287915 C121.004863,85.6985886 120.160308,87.0228357 119.984603,87.7713232 C119.808898,88.5198107 119.984603,90.2371019 119.765557,91.9549806 C119.545341,93.6716843 118.888204,101.860984 119.107835,104.19516 C119.326295,106.528749 103.13918,105.474757 101.911588,104.769745 C101.911588,104.769745 104.637358,99.8799006 104.710568,97.8541667 C104.735167,97.1585551 105.149831,94.9924064 104.007748,93.4078924 C103.405666,92.5712784 102.287597,89.9080964 101.172456,87.9605014 C101.172456,87.9605014 101.379787,87.5568821 101.172456,87.9605014 C100.740221,87.2055513 100.287488,86.4529512 99.9712191,85.8924668 C99.558898,85.1604296 99.3298959,84.2932651 99.3298959,84.2932651 C99.3298959,84.2932651 98.6095054,75.311415 100.583844,74.298548 C102.559939,73.2856811 103.612412,73.1100157 105.544581,73.0213017 C107.475579,72.9331752 108.74944,72.5371936 108.74944,72.5371936 L113.269158,73.0213017 C113.269158,73.0213017 114.86456,73.7709642 116.006056,73.8596782 C117.146967,73.9472172 118.541479,76.4341462 119.232,78.2354513 C119.801284,79.7206762 121.268421,81.5595819 121.136642,83.6287915" id="Fill-177" fill="#E8E8E8" mask="url(#mask-25)"></path>
                    <path d="M103.038267,73.3611174 C103.038267,73.3611174 99.4609132,73.6589848 98.1144273,76.9578525 C96.7696985,80.2561326 96.8821497,83.6055261 96.5910651,84.8240215 C96.2993948,86.0425168 95.8730174,93.1002723 95.5661193,94.1436897 C95.2598069,95.1859321 94.2067484,100.0229 93.9713037,103.932191 C93.735859,107.842069 94.3162711,116.087769 94.3162711,116.087769 L96.2988091,115.121315 C96.2988091,115.121315 98.0646443,102.895236 98.828961,100.309605 C99.4837549,98.0993933 99.4837549,94.339918 99.851564,92.9821828 C100.218202,91.6244476 102.464883,83.4557111 102.826835,82.6273222 C103.382649,81.3588885 106.113104,73.3199917 103.038267,73.3611174" id="Fill-178" fill="#EEA886" mask="url(#mask-25)"></path>
                    <path d="M110.335295,52.4729695 C112.344189,52.142789 116.941217,52.6480474 118.244362,57.9397484 C118.244362,57.9397484 118.247291,59.4067604 118.025902,60.5841301 C117.805685,61.7614997 119.204297,64.9992664 118.95831,65.1949071 C118.712323,65.3905479 117.639937,65.7277785 117.639937,65.7277785 C117.639937,65.7277785 116.87972,69.5272045 115.592974,69.6435315 C114.307985,69.7586834 109.337876,69.3104134 106.533039,65.0145416 C103.725859,60.7174948 102.22241,53.8048543 110.335295,52.4729695" id="Fill-179" fill="#EEA886" mask="url(#mask-25)"></path>
                    <path d="M113.669766,68.1704681 C113.669766,68.1704681 113.571371,68.7021645 113.478833,69.4847276 C113.431978,69.8854093 113.386295,70.3501295 113.357011,70.8424628 C113.277358,72.2066606 113.31777,73.7847119 113.781631,74.7858287 C113.781631,74.7858287 111.260265,76.3239294 108.563193,72.5615165 C108.563193,72.5615165 108.829679,67.8919885 107.279961,65.410347 C105.730243,62.9287055 113.669766,68.1704681 113.669766,68.1704681" id="Fill-180" fill="#EEA886" mask="url(#mask-25)"></path>
                    <path d="M118.244304,57.9395721 C118.244304,57.9395721 115.219249,60.5586909 112.016733,61.3847297 C108.814217,62.2119435 107.118664,65.8198413 107.118664,65.8198413 C107.118664,65.8198413 101.451592,60.1503716 104.871397,54.6477546 C108.291202,49.1445501 118.237861,51.5991662 118.244304,57.9395721" id="Fill-181" fill="#FCCCA2" mask="url(#mask-25)"></path>
                    <path d="M113.478716,69.4849038 C113.431861,69.8855855 113.386178,70.3503058 113.356894,70.842639 C110.532729,69.467866 108.975983,67.5837221 108.975983,67.5837221 C110.635809,68.7757795 113.478716,69.4849038 113.478716,69.4849038" id="Fill-182" fill="#A77860" mask="url(#mask-25)"></path>
                    <path d="M111.428297,61.5730266 C111.428297,61.5730266 108.151399,70.4103493 108.544393,72.5371348 C108.544393,72.5371348 106.809599,72.2375048 103.722462,73.1845707 C103.722462,73.1845707 105.215369,57.4193322 111.428297,61.5730266" id="Fill-183" fill="#FCCCA2" mask="url(#mask-25)"></path>
                    <path d="M107.450336,72.8223709 C107.450336,72.8223709 108.529165,79.4494816 112.523525,78.7015816 C116.517885,77.9519191 113.488145,73.0967379 113.488145,73.0967379 C113.488145,73.0967379 111.714111,71.605638 107.450336,72.8223709" id="Fill-184" fill="#EEA886" mask="url(#mask-25)"></path>
                    <path d="M96.3469523,114.786317 C96.3469523,114.786317 96.6608785,115.835022 97.1546095,116.891365 C97.3947397,117.407199 97.7549349,120.878794 97.7684056,121.330589 C97.7795336,121.708945 97.5136334,121.50508 97.3672126,121.265963 C97.2834599,121.128486 96.9666052,119.942891 96.6966052,119.320131 C96.4693601,118.797247 96.2936551,118.608656 96.2122451,118.788434 C96.1308351,118.970562 96.127321,121.218962 96.4037636,122.158978 C96.6790347,123.098406 96.630423,125.316843 96.1056508,125.036601 C95.5802928,124.756359 94.1096421,120.862931 94.095,119.356556 C94.082115,117.849006 94.3117028,116.0289 94.3117028,116.0289 L96.3469523,114.786317 Z" id="Fill-185" fill="#EEA886" mask="url(#mask-25)"></path>
                    <path d="M263.49095,118.12067 C263.476308,155.332367 262.43672,162.616314 253.122013,170.953666 C249.473792,174.218458 242.76479,181.001259 223.4062,184.378265 C217.595636,185.392895 210.645332,186.099669 202.297588,186.312935 C198.891839,186.399887 195.766048,186.275922 192.906156,185.963367 C190.508369,185.703688 188.297414,185.309468 186.26685,184.79951 C164.991319,179.451996 163.40236,161.16634 172.707696,145.784158 C175.172252,141.710365 177.988803,137.965577 180.940646,134.474594 C185.497848,129.082429 190.383618,124.293049 194.807284,119.822099 C198.885397,115.703068 202.572859,111.853703 205.25236,108.05369 C206.382729,106.452725 207.333879,104.860574 208.060126,103.25961 C208.232317,102.881253 208.40685,102.505834 208.581384,102.135116 C209.154182,100.925433 209.742794,99.7633386 210.337848,98.6511826 C211.455332,96.5631727 212.593315,94.6543533 213.691471,92.9458747 C214.566482,91.5816769 215.416308,90.3461437 216.20698,89.2486754 C218.92338,85.48215 220.941059,83.3677021 220.941059,83.3677021 C220.941059,83.3677021 221.192902,83.2490251 221.658521,83.0551469 C221.905093,82.9517452 222.214334,82.8266056 222.578629,82.6867782 C222.724464,82.6309648 222.878499,82.5722138 223.041905,82.5122878 C223.203553,82.4523618 223.373987,82.3906733 223.55262,82.3266347 C223.716026,82.2690588 223.88646,82.2091327 224.060993,82.1492067 C224.267154,82.0781181 224.4821,82.0070294 224.705245,81.9335906 C224.836438,81.8912899 224.969974,81.8478142 225.107024,81.804926 C225.187262,81.7790756 225.269844,81.7538126 225.351839,81.7285497 C225.382881,81.7191496 225.414508,81.7085744 225.446134,81.6997617 C228.208217,80.8502225 231.995831,79.9654327 236.120213,79.8179678 C248.346351,79.3796855 263.505592,85.428099 263.49095,118.12067" id="Fill-186" fill="#EB4747" mask="url(#mask-25)"></path>
                    <path d="M213.998427,174.141788 C213.998427,174.141788 214.303568,176.635767 214.706518,177.735586 C215.111226,178.835991 217.305195,181.375796 216.377473,183.815725 C215.373026,186.461281 210.986844,183.911489 209.196996,183.103663 C207.407733,182.297012 207.815369,180.832937 207.625022,179.038095 C207.434089,177.244427 206.560835,177.196252 206.883547,175.934868 C207.204501,174.673484 209.161855,172.258819 209.161855,172.258819 L213.998427,174.141788 Z" id="Fill-187" fill="#B7CEFF" mask="url(#mask-25)"></path>
                    <path d="M210.006703,170.95349 C210.006703,170.95349 208.883362,172.529779 208.915575,172.573254 C208.94603,172.615555 213.725206,175.534891 214.057289,174.588413 C214.321432,173.835813 214.433297,172.74657 214.433297,172.74657 L210.006703,170.95349 Z" id="Fill-188" fill="#EEA886" mask="url(#mask-25)"></path>
                    <path d="M193.807171,175.905434 C193.807171,175.905434 192.349991,177.186793 191.039818,179.156713 C189.730816,181.126634 186.255371,181.230623 186.107193,183.92083 C185.957844,186.609275 190.8319,186.691527 193.390165,185.816137 C195.949601,184.941335 196.335566,182.315166 197.882941,181.657742 C199.430902,181.001494 200.235046,180.470385 200.115566,179.188439 C199.996087,177.905905 199.139818,175.824945 199.139818,175.824945 C199.139818,175.824945 198.178126,176.1328 197.613527,176.195664 C197.047757,176.25794 195.146043,176.280853 193.807171,175.905434" id="Fill-189" fill="#B7CEFF" mask="url(#mask-25)"></path>
                    <path d="M211.346805,103.050809 C211.346805,103.050809 210.366371,108.901231 209.576284,112.765283 C209.254744,114.332172 208.966588,115.572993 208.786197,115.963687 C208.559538,116.454845 206.719321,118.437103 204.466783,120.764817 C200.513421,124.846835 195.290883,129.987546 195.290883,129.987546 L193.248605,126.098819 C193.248605,126.098819 197.887803,120.64379 201.032922,117.003579 C202.488345,115.319776 203.62457,114.024317 203.831902,113.836901 C204.489039,113.247042 205.25277,107.433044 206.325742,102.643664 C207.397542,97.8525217 209.547586,95.2052025 209.547586,95.2052025 L211.346805,103.050809 Z" id="Fill-190" fill="#E8E8E8" mask="url(#mask-25)"></path>
                    <path d="M204.466725,120.765052 C200.513362,124.846483 195.290824,129.987194 195.290824,129.987194 L193.248547,126.099054 C193.248547,126.099054 197.887744,120.644025 201.032863,117.003814 C201.996898,117.477935 203.766247,118.609479 204.466725,120.765052" id="Fill-191" fill="#EEA886" mask="url(#mask-25)"></path>
                    <path d="M194.036525,174.113118 L193.806937,175.90561 C193.806937,175.90561 196.344703,176.803913 199.140169,175.825121 L199.197566,174.232382 L194.036525,174.113118 Z" id="Fill-192" fill="#EEA886" mask="url(#mask-25)"></path>
                    <path d="M230.054349,129.196112 C230.20077,129.717233 203.180271,129.196112 203.180271,129.196112 C203.180271,129.196112 210.654761,123.738733 211.139121,122.281121 C211.624067,120.823509 209.235651,112.075488 208.924653,109.230178 C208.675738,106.952403 208.051399,96.7620447 209.547234,95.2057312 C211.111594,93.578329 216.744111,91.8733755 216.744111,91.8733755 L224.958319,92.1794681 C224.958319,92.1794681 226.313004,92.4632354 227.28231,92.9144429 C228.25103,93.366238 233.79218,95.3455586 234.69179,98.12213 C235.591399,100.899876 229.162939,109.827676 229.162939,109.827676 C229.162939,109.827676 229.15064,110.229532 229.131312,110.886956 C229.106714,111.76352 229.06923,113.09658 229.035846,114.542442 C228.993091,116.414248 228.955607,118.475233 228.955607,119.980433 C228.955607,123.521942 229.909685,128.676166 230.054349,129.196112" id="Fill-193" fill="#E8E8E8" mask="url(#mask-25)"></path>
                    <path d="M230.055521,129.197287 C230.055521,129.197287 233.730683,134.612365 233.782223,138.308389 C233.833764,142.005001 227.260054,154.38677 226.265564,156.158112 C223.274479,161.482714 215.07257,172.968531 215.07257,172.968531 C215.07257,172.968531 213.658731,172.932105 209.247364,171.214227 C209.247364,171.214227 214.70359,156.042373 215.394696,154.467847 C218.327798,147.78786 219.965369,143.049593 218.979664,141.903949 C217.993373,140.758305 215.303915,139.609723 214.525542,138.932325 C213.747169,138.256101 200.183915,141.503855 198.762462,141.873399 C195.082614,142.830452 196.760011,149.254285 197.574111,152.134258 C198.93641,156.951251 200.127104,174.349766 200.127104,174.349766 C200.127104,174.349766 197.506171,175.470735 193.114718,174.523669 C193.114718,174.523669 184.49346,143.108932 184.217017,139.984555 C183.941161,136.860765 183.804111,131.708891 205.049772,127.793138 L230.055521,129.197287 Z" id="Fill-194" fill="#303669" mask="url(#mask-25)"></path>
                    <path d="M218.998464,73.9736551 C218.998464,73.9736551 211.868941,72.3609407 213.497727,81.3604161 C215.126512,90.3610665 216.841393,91.0678408 221.141479,89.2054347 C225.443909,87.3430286 225.058529,81.5766197 225.274061,78.7495224 C225.490178,75.9212502 221.273258,74.0723568 218.998464,73.9736551" id="Fill-195" fill="#EEA886" mask="url(#mask-25)"></path>
                    <path d="M217.112154,94.1836404 C217.112154,94.1836404 220.270158,97.541259 225.259009,94.4891455 C225.259009,94.4891455 224.143282,87.2122489 224.731308,83.6689771 C225.318748,80.1239429 218.220267,89.1598439 218.220267,89.1598439 C218.31339,89.2091947 218.374887,89.5476004 218.389529,90.0293585 C218.402414,90.4365028 218.380744,90.9470488 218.315733,91.4711075 C218.169312,92.6490647 217.803846,93.893998 217.112154,94.1836404" id="Fill-196" fill="#EEA886" mask="url(#mask-25)"></path>
                    <path d="M224.926751,83.3675259 C224.926751,83.3675259 224.743432,80.531616 223.710872,80.442902 C222.678312,80.3547755 222.520178,81.4963071 222.520178,81.4963071 L221.477076,81.6937104 C221.477076,81.6937104 221.806816,79.2085438 220.775427,78.7749616 C219.743453,78.3402043 214.095709,80.1426845 213.268725,79.4129973 C212.439983,78.6838976 212.830048,73.6418883 214.327054,72.9521518 C215.822304,72.2624153 219.957228,70.7166769 222.984625,72.7729613 C222.984625,72.7729613 225.3461,72.5027068 225.695167,74.4138762 C226.045991,76.3250457 225.568659,81.9463396 224.926751,83.3675259" id="Fill-197" fill="#3A3F47" mask="url(#mask-25)"></path>
                    <path d="M218.315557,91.47099 C223.463128,89.8788384 223.85085,86.769149 223.856707,86.7209732 C222.161154,89.6426595 218.389354,90.029241 218.389354,90.029241 C218.402239,90.4363853 218.380568,90.9469313 218.315557,91.47099" id="Fill-198" fill="#A77860" mask="url(#mask-25)"></path>
                    <path d="M227.366766,92.9540998 C227.366766,92.9540998 223.596722,100.481863 217.506202,99.9959925 C211.416267,99.5095344 216.468371,91.9429954 216.744228,91.8730818 C217.049369,91.796118 222.991126,90.3114807 227.366766,92.9540998" id="Fill-199" fill="#EEA886" mask="url(#mask-25)"></path>
                    <path d="M200.088976,128.81517 C200.088976,128.81517 218.749432,131.122909 230.055462,129.197052 L208.453705,126.489219 C208.453705,126.489219 208.32544,127.041478 200.088976,128.81517" id="Fill-200" fill="#E8E8E8" mask="url(#mask-25)"></path>
                    <path d="M214.046453,125.636625 L212.656627,126.343399 C212.656627,126.343399 212.973482,128.558311 213.734284,129.229247 L215.294544,128.830328 C215.294544,128.830328 214.968905,126.400975 214.046453,125.636625" id="Fill-201" fill="#EEA886" mask="url(#mask-25)"></path>
                    <path d="M235.639542,121.100638 C235.361343,121.423768 231.693208,122.903705 227.548328,124.505257 L227.547742,124.505845 C221.885941,126.693731 215.499651,128.763528 215.499651,128.763528 L214.04657,125.636801 C214.04657,125.636801 220.733902,121.991303 225.25362,119.43446 C227.388436,118.227127 229.038306,117.262436 229.272579,117.03977 C229.999412,116.345333 230.187416,115.23259 229.653273,113.29087 C229.118544,111.34915 227.887438,102.425463 227.749217,101.383808 C227.610996,100.343328 228.09477,97.5655819 230.690518,97.4269296 C233.286267,97.2882773 234.606983,98.0238396 234.606983,98.0238396 C234.606983,98.0238396 235.258848,98.2952691 235.743208,104.612762 C236.227568,110.930255 236.296093,120.337463 235.639542,121.100638" id="Fill-202" fill="#E8E8E8" mask="url(#mask-25)"></path>
                    <path d="M229.131195,110.886956 C229.106597,111.76352 229.069698,113.09658 229.035729,114.542442 C226.503234,108.31425 227.966857,103.34333 227.991456,103.259903 C227.717941,104.950169 229.111868,110.804117 229.131195,110.886956" id="Fill-203" fill="#B0B0B0" mask="url(#mask-25)"></path>
                    <path d="M209.57605,112.765342 C209.25451,114.332231 208.966354,115.573052 208.785963,115.963158 C207.921495,111.763638 208.699868,106.386748 208.699868,106.386748 C208.81759,108.954754 209.57605,112.765342 209.57605,112.765342" id="Fill-204" fill="#B0B0B0" mask="url(#mask-25)"></path>
                    <path d="M227.548035,124.505257 L227.547449,124.505845 C221.886234,126.693731 215.294369,128.829917 215.294369,128.829917 L214.046278,125.636801 C214.046278,125.636801 220.73361,121.991303 225.253328,119.43446 C225.253328,119.43446 226.897926,120.238173 227.548035,124.505257" id="Fill-205" fill="#EEA886" mask="url(#mask-25)"></path>
                    <polygon id="Fill-206" fill="#444C94" mask="url(#mask-25)" points="213.643796 129.015981 187.120542 128.624112 200.51102 135.443926"></polygon>
                    <polygon id="Fill-207" fill="#303669" mask="url(#mask-25)" points="200.511078 135.444161 213.643855 130.341638 213.643855 129.016216 199.473833 134.142827"></polygon>
                    <path d="M212.956321,126.391692 C212.956321,126.391692 211.299423,126.133188 210.154998,125.865871 C209.268273,125.65848 207.064933,125.943422 206.503848,126.513894 C205.942764,127.084954 204.157601,131.059458 203.819662,131.301512 C203.482308,131.544741 203.993024,132.1064 204.585735,131.823808 C204.585735,131.823808 205.130421,133.563425 206.473393,132.912464 C207.81695,132.260916 208.728273,130.839142 209.432265,130.58945 C210.13567,130.339171 214.233111,129.075437 214.233111,129.075437 C214.233111,129.075437 214.011722,125.968098 212.956321,126.391692" id="Fill-208" fill="#EEA886" mask="url(#mask-25)"></path>
                    <path d="M206.908438,126.253451 C206.908438,126.253451 205.843666,126.769285 205.566638,126.998414 C205.288438,127.228718 204.161584,128.074732 203.889241,128.27331 C203.616898,128.471888 204.300976,129.03766 206.31397,128.163446 C208.327549,127.289231 206.908438,126.253451 206.908438,126.253451" id="Fill-209" fill="#EEA886" mask="url(#mask-25)"></path>
                    <polygon id="Fill-210" fill="#303669" mask="url(#mask-25)" points="200.511078 135.444161 192.623095 113.837313 167.190384 114.253857 174.707629 134.16574"></polygon>
                    <path d="M184.484909,123.396215 C185.260354,124.952528 185.02608,126.647494 183.960722,127.182128 C182.89595,127.71735 181.403043,126.887786 180.626427,125.331472 C179.850983,123.775746 180.085256,122.08078 181.150614,121.546146 C182.215386,121.010925 183.708293,121.839901 184.484909,123.396215" id="Fill-211" fill="#518AFA" mask="url(#mask-25)"></path>
                    <path d="M222.541731,80.2951433 C222.634855,79.50083 224.199215,79.2094251 224.325722,80.4003075 C224.451644,81.5906024 223.615289,83.6803748 223.020234,83.4747464 C222.427523,83.269118 222.412295,81.3896741 222.541731,80.2951433" id="Fill-212" fill="#EEA886" mask="url(#mask-25)"></path>
                    <path d="M115.451531,166.870473 C115.271141,168.135381 107.694742,173.45822 106.203592,174.521613 C105.00587,175.375852 103.964525,175.767134 102.154178,176.449233 L102.153592,176.449233 C98.039167,177.533776 72.2292755,185.260118 72.2292755,185.260118 C72.1613362,184.997501 72.1244382,184.768959 71.9727462,184.472854 C71.0092972,184.858261 70.0171497,185.10854 69.3875401,185.305943 C68.4276052,185.606748 60.7996659,185.847627 59.2376486,186.14902 C57.6762169,186.449825 54.5533536,186.931583 53.2923774,185.727188 C52.0308156,184.522205 54.073679,181.932462 55.8149154,181.269163 C57.5561518,180.606452 63.9225293,180.425499 65.0634403,180.30506 C66.2049371,180.18462 67.7060434,179.762788 68.4276052,180.003667 C68.6542646,180.079456 69.6610542,179.783351 70.9314013,179.342719 C70.9003601,178.873886 70.8933319,178.578368 70.8933319,178.578368 L77.6696876,176.618436 L76.4145683,164.581534 C76.4145683,164.581534 79.362898,153.435886 91.1433319,161.938328 C91.1433319,161.938328 93.7712928,162.713841 94.6720738,162.954132 C94.7353275,162.97117 94.8366508,162.97352 94.9737007,162.963532 C96.770577,162.82723 104.493397,160.484829 107.283592,160.484829 C110.286976,160.484829 111.248082,160.303288 112.329254,160.846147 C113.409839,161.387831 115.632508,165.604977 115.451531,166.870473" id="Fill-213" fill="#FAA146" mask="url(#mask-25)"></path>
                    <path d="M103.384113,185.727012 C102.122551,186.931994 98.9996876,186.449649 97.4388416,186.149431 C95.87741,185.847451 88.2494707,185.606572 87.2889501,185.305767 C86.3272581,185.004375 84.526282,184.58313 83.2647202,183.738291 C83.163397,183.670727 82.9308807,183.569676 82.5905987,183.442186 C82.5905987,183.442186 82.590013,183.442186 82.5894273,183.443361 L80.6818568,184.823422 L54.1627028,176.355643 C52.573744,175.918535 51.3127679,175.254062 50.4734837,174.522024 C49.0918568,173.317042 41.4047636,168.135793 41.2243731,166.870296 C41.0445683,165.6048 43.2660651,161.387655 44.3466508,160.845971 C45.4284078,160.303699 46.3895141,160.484652 49.3923124,160.484652 C52.3951106,160.484652 61.1036356,163.195423 62.0044165,162.953956 C62.4138091,162.844679 63.2618785,162.411097 64.065436,161.97164 C65.028885,161.443468 65.9279089,160.906484 65.9279089,160.906484 C78.8258265,155.130675 80.2619219,164.581358 80.2619219,164.581358 L79.4981909,176.248716 C79.4981909,176.248716 80.5735054,176.78335 81.9715315,177.450173 L88.3642646,179.262054 L87.5279089,179.867776 C87.8892755,179.985278 88.1452191,180.038742 88.2494707,180.003491 C88.9704469,179.763199 90.4715531,180.184444 91.6124642,180.304884 C92.753961,180.425911 99.1197527,180.606276 100.861575,181.268987 C102.603397,181.932286 104.645089,184.522029 103.384113,185.727012" id="Fill-214" fill="#FAA146" mask="url(#mask-25)"></path>
                    <path d="M64.0655531,161.971875 C64.9552061,162.033563 70.9649024,165.525722 72.3910412,166.360573 C70.224013,165.224916 62.0039479,162.954191 62.0039479,162.954191 C62.4139262,162.844327 63.2619957,162.411332 64.0655531,161.971875" id="Fill-215" fill="#5478B3" mask="url(#mask-25)"></path>
                    <path d="M94.9741106,162.963297 C94.9741106,162.963297 84.6198156,165.483127 82.7257158,166.538882 C82.8112256,166.476019 88.1819414,162.38225 91.0014208,161.836454 C91.0014208,161.836454 93.7711171,162.713606 94.671898,162.953897 C94.7357375,162.971523 94.8370607,162.973873 94.9735249,162.963297 L94.9741106,162.963297 Z" id="Fill-216" fill="#5478B3" mask="url(#mask-25)"></path>
                    <path d="M103.384113,185.727012 C102.122551,186.931994 98.9996876,186.449649 97.4388416,186.149431 C95.87741,185.847451 88.2494707,185.606572 87.2889501,185.305767 C87.0119219,185.218816 86.6669544,185.122464 86.2845033,185.008487 L86.2839176,185.008487 C85.336282,184.727657 84.1631584,184.339901 83.2647202,183.738291 C83.163397,183.670727 82.9308807,183.569676 82.5905987,183.442186 L87.3896876,179.967653 L87.5279089,179.867776 C87.8892755,179.985278 88.1452191,180.038742 88.2494707,180.003491 C88.9704469,179.763199 90.4715531,180.184444 91.6124642,180.304884 C92.753961,180.425911 99.1197527,180.606276 100.861575,181.268987 C102.603397,181.932286 104.645089,184.522029 103.384113,185.727012" id="Fill-217" fill="#EEA886" mask="url(#mask-25)"></path>
                    <path d="M103.384113,185.727012 C102.122551,186.931994 98.9996876,186.449649 97.4388416,186.149431 C95.87741,185.847451 88.2494707,185.606572 87.2889501,185.305767 C87.0119219,185.218816 86.6669544,185.122464 86.2845033,185.008487 L86.2839176,185.008487 C86.2833319,185.007312 86.2827462,185.007312 86.2827462,185.007312 C86.2827462,185.007312 88.3824208,182.924002 87.3896876,179.967653 L87.5279089,179.867776 C87.8892755,179.985278 88.1452191,180.038742 88.2494707,180.003491 C88.9704469,179.763199 90.4715531,180.184444 91.6124642,180.304884 C92.753961,180.425911 99.1197527,180.606276 100.861575,181.268987 C102.603397,181.932286 104.645089,184.522029 103.384113,185.727012" id="Fill-218" fill="#FFFFFF" mask="url(#mask-25)"></path>
                    <path d="M66.6982581,164.630592 C66.7117289,164.662905 66.7093861,164.686992 66.6883015,164.70168 C66.5688221,164.791569 66.5887354,164.753381 66.6982581,164.630592" id="Fill-219" fill="#E55353" mask="url(#mask-25)"></path>
                    <path d="M92.547859,155.393351 C91.9586616,156.064875 89.6299848,157.549512 87.53441,158.771532 C87.3756898,157.315096 87.1343883,155.022632 87.1086182,154.198943 C87.0687918,152.95401 87.5882928,149.3796 88.2290304,148.01364 C88.8703536,146.648267 89.3107874,142.91288 89.3107874,142.91288 C89.3107874,142.91288 94.6147354,150.142188 95.4563623,150.905363 C96.2968178,151.668539 94.5380108,153.127326 92.547859,155.393351 M61.5687267,156.256403 C60.0670347,154.449223 58.000744,153.355279 58.5202451,152.552153 C59.0415033,151.749028 63.4458416,144.117862 63.4458416,144.117862 C63.4458416,144.117862 65.7276638,149.137546 66.368987,151.749028 C67.0097245,154.359334 66.9593557,155.554916 66.6887701,156.367442 C66.4462972,157.095954 66.2518503,157.590638 66.0339761,159.760311 C64.2382711,158.529478 62.2563189,157.084792 61.5687267,156.256403 M101.408662,150.544045 C101.307924,150.340766 95.8370564,141.707897 94.3552777,137.772169 C92.8734989,133.835853 89.3107874,132.028085 87.6292907,131.466426 C87.0289653,131.266085 85.9600933,130.916517 84.8320672,130.550498 C82.8009176,129.8919 80.5823492,129.1769 80.5823492,129.1769 L73.5752343,129.1769 C73.5752343,129.1769 71.147577,129.992951 68.5699848,130.899479 C68.5682278,130.900654 68.5676421,130.900654 68.5676421,130.900654 C66.1921106,131.736681 63.6906573,132.649083 62.8449306,133.073853 C61.0831952,133.956293 58.1208091,140.262036 57.519898,140.98526 C56.9195727,141.707897 52.3008742,150.294941 51.6349523,153.596158 C51.1172082,156.160051 66.2840629,163.669014 66.698141,164.630768 C67.178987,164.096134 69.3875987,161.971698 69.3875987,161.971698 C69.3875987,161.971698 68.6800933,161.525778 67.683846,160.867767 C71.746731,161.055183 81.6752343,160.702677 83.0996161,160.774941 C83.3860152,160.789041 83.6975987,160.780816 84.0173818,160.754966 C84.0162104,160.755553 84.0156247,160.756141 84.0156247,160.756141 C84.4560586,161.078096 87.2989653,163.596751 87.2989653,163.596751 C87.2989653,163.596751 94.3060803,160.678589 97.5285098,157.412035 C102.104453,152.773645 101.912349,151.568662 101.408662,150.544045" id="Fill-220" fill="#5779D4" mask="url(#mask-25)"></path>
                    <path d="M77.9138004,109.859049 C77.9138004,109.859049 83.3934534,110.724451 82.5594403,119.324419 C81.7248416,127.924976 76.8888547,127.219964 76.5649718,127.211151 C76.2422603,127.202338 71.710243,127.368604 71.3576616,116.868041 C71.3576616,116.868041 71.2024555,109.103511 77.9138004,109.859049" id="Fill-221" fill="#EEA886" mask="url(#mask-25)"></path>
                    <path d="M82.6438373,116.895419 C82.6438373,116.895419 83.243577,116.252683 83.4637939,116.903644 C83.6840108,117.554017 82.6455944,120.456903 82.6081106,120.593206 C82.6081106,120.593206 82.4985879,120.845835 82.3545098,120.706595 C82.2104317,120.567355 82.6438373,116.895419 82.6438373,116.895419" id="Fill-222" fill="#EEA886" mask="url(#mask-25)"></path>
                    <path d="M71.5044338,116.786964 C71.5044338,116.786964 70.9169935,116.132478 70.6844772,116.778739 C70.451961,117.425588 71.4253666,120.347274 71.4687072,120.484164 C71.4687072,120.484164 71.5741302,120.738555 71.720551,120.602841 C71.8669718,120.466538 71.5044338,116.786964 71.5044338,116.786964" id="Fill-223" fill="#EEA886" mask="url(#mask-25)"></path>
                    <path d="M82.641026,118.215025 L81.8567961,119.26608 C81.8567961,119.26608 81.8784664,116.960104 81.7531302,116.598785 C81.6266226,116.237466 81.4339328,115.132361 81.3296811,114.871506 C81.2242581,114.611239 76.6243015,113.317543 72.5608308,115.249275 C72.5608308,115.249275 72.7394642,116.907815 72.3493991,117.054693 C71.9605054,117.202745 72.1514382,119.756063 72.1514382,119.756063 L71.5060152,119.026376 C71.5060152,119.026376 70.5191388,112.40984 70.7627831,111.720103 C71.007013,111.030367 71.7836291,106.884898 80.1196594,109.345976 C80.1196594,109.345976 82.7189219,108.793717 83.24018,110.59326 C83.7620239,112.393977 82.641026,118.215025 82.641026,118.215025" id="Fill-224" fill="#434343" mask="url(#mask-25)"></path>
                    <path d="M69.8514599,173.208 C69.8514599,173.208 61.4638894,168.165403 57.7998547,167.372852 C54.3378807,166.622602 53.0757332,165.323618 53.0757332,165.323618 C53.0757332,165.323618 58.5811562,165.323618 62.2446052,167.934512 C64.7320022,169.707029 69.8514599,173.208 69.8514599,173.208" id="Fill-225" fill="#B57433" mask="url(#mask-25)"></path>
                    <path d="M77.3035184,176.723835 C77.3035184,176.723835 91.8928894,169.039206 97.8498742,167.373029 C101.260894,166.417738 102.573996,165.323794 102.573996,165.323794 C102.573996,165.323794 93.5544729,166.207997 88.0695488,169.520965 C85.4550586,171.100191 77.3035184,176.723835 77.3035184,176.723835" id="Fill-226" fill="#B57433" mask="url(#mask-25)"></path>
                    <path d="M71.9728633,184.472796 C71.0094143,184.858202 70.0172668,185.108481 69.3876573,185.305885 C68.4271367,185.60669 60.7997831,185.847569 59.2377657,186.149549 C57.6763341,186.449766 54.5534707,186.932112 53.2924946,185.727129 C52.0309328,184.522147 54.0737961,181.932403 55.8150325,181.269105 C57.556269,180.606394 63.9226464,180.425441 65.0635575,180.305001 C66.2044685,180.184562 67.7061605,179.762729 68.4271367,180.003608 C68.6543818,180.079985 69.6611714,179.78388 70.9315184,179.343247 C70.9701735,180.107598 71.9728633,184.472796 71.9728633,184.472796" id="Fill-227" fill="#EEA886" mask="url(#mask-25)"></path>
                    <path d="M77.3035184,183.744166 L91.645731,179.48707 L88.8098525,178.618143 C88.8098525,178.618143 77.3480304,182.785937 77.3035184,183.744166" id="Fill-228" fill="#FAA146" mask="url(#mask-25)"></path>
                    <polygon id="Fill-229" fill="#B57433" mask="url(#mask-25)" points="77.3035184 183.744166 84.015449 181.690819 79.3621952 184.401589"></polygon>
                    <path d="M72.692961,166.538823 C72.6794902,166.530598 72.5723102,166.467735 72.3907484,166.36022 C72.5113991,166.423672 72.6127223,166.48301 72.692961,166.538823" id="Fill-230" fill="#525252" mask="url(#mask-25)"></path>
                    <path d="M69.3875987,185.305885 C68.4270781,185.60669 60.7997245,185.847569 59.2377072,186.149549 C57.6762755,186.449766 54.5534121,186.932112 53.292436,185.727129 C52.0308742,184.522147 54.0737375,181.932403 55.814974,181.269105 C57.5562104,180.606394 63.9225879,180.425441 65.0634989,180.305001 C66.20441,180.184562 67.706102,179.762729 68.4270781,180.003608 C68.4270781,180.003608 66.5013514,182.955845 69.3875987,185.305885" id="Fill-231" fill="#FFFFFF" mask="url(#mask-25)"></path>
                    <path d="M64.6466681,165.323618 L62.436885,152.71272 L91.0123731,152.050596 L89.1715705,164.460566 C89.1715705,164.460566 80.0507245,167.808785 76.9548026,169.76343 C76.9548026,169.76343 69.1306594,166.538588 64.6466681,165.323618" id="Fill-232" fill="#525252" mask="url(#mask-25)"></path>
                    <path d="M78.637295,160.318328 C78.637295,161.359983 77.919833,162.205997 77.0354512,162.205997 C76.1516551,162.205997 75.4341931,161.359983 75.4341931,160.318328 C75.4341931,159.276086 76.1516551,158.430659 77.0354512,158.430659 C77.919833,158.430659 78.637295,159.276086 78.637295,160.318328" id="Fill-233" fill="#6E6E6E" mask="url(#mask-25)"></path>
                    <path d="M80.6540369,129.200401 C80.6516941,129.192175 80.6493514,129.185125 80.646423,129.177488 C80.3043839,128.411375 80.4718894,124.678338 80.4718894,124.678338 C80.4718894,124.678338 73.4923015,122.89642 73.6920195,124.258856 C73.8911518,125.620703 73.0905228,129.340815 73.0905228,129.340815 L69.5108265,130.569886 C69.5108265,130.569886 73.3247961,140.844258 77.7098069,139.518836 C82.0936464,138.194001 83.7487874,130.199167 83.7487874,130.199167 L80.6540369,129.200401 Z" id="Fill-234" fill="#EEA886" mask="url(#mask-25)"></path>
                    <path d="M73.8225683,125.805005 C73.8225683,125.805005 74.9166247,127.228541 76.8681215,127.228541 C78.1519393,127.228541 79.0281215,126.911286 80.3066681,125.661065 C80.3066681,125.661065 79.798295,127.992892 76.8769067,128.213208 C76.8769067,128.213208 74.7883601,128.515775 73.8225683,125.805005" id="Fill-235" fill="#A77860" mask="url(#mask-25)"></path>
                </g>
            </g>
        </g>
    </g>
</svg>