<?xml version="1.0" encoding="UTF-8"?>
<svg width="270px" height="270px" viewBox="0 0 270 270" version="1.1" xmlns="http://www.w3.org/2000/svg" xmlns:xlink="http://www.w3.org/1999/xlink">
    <!-- Generator: Sketch 52.6 (67491) - http://www.bohemiancoding.com/sketch -->
    <title>Artboard</title>
    <desc>Created with Sketch.</desc>
    <defs>
        <path d="M20.1582639,0.900697368 L15.8211821,1.69488421 L15.7520132,5.74254211 C14.0217573,6.54278947 12.3896306,7.58532895 10.9126491,8.86229474 L7.1852876,7.26760263 L4.68163325,10.8879289 L2.1778496,14.5079974 L4.99657784,17.4166632 C4.32441161,19.2473289 3.92698153,21.1392447 3.79148813,23.0365763 L0.0223667546,24.5389421 L0.818649077,28.8647395 L1.61480211,33.19015 L5.67313984,33.2591368 C6.47562797,34.9848395 7.52091821,36.6128 8.80112401,38.0858947 L7.20235356,41.8034474 L10.8321029,44.3005132 L14.4618522,46.7975789 L17.3780633,43.9865263 C19.2136887,44.6567947 21.1105963,45.0531789 23.0130633,45.1881868 L24.5193931,48.9475184 L28.8563456,48.1533316 L33.1932982,47.3591447 L33.2625963,43.3114868 C34.992723,42.5112395 36.6249789,41.4687 38.1019604,40.1917342 L41.8291926,41.7864263 L44.332847,38.1662289 L46.8365013,34.5459026 L44.0180317,31.6373658 C44.6901979,29.8068289 45.0874987,27.9146553 45.2229921,26.0173237 L48.9922427,24.5150868 L48.1959604,20.1894184 L47.3996781,15.86375 L43.3412111,15.7947632 C42.5389815,14.0691895 41.4936913,12.4412289 40.2133562,10.9681342 L41.8121266,7.25058158 L38.1825066,4.75351579 L34.5527573,2.25645 L31.6364169,5.06750263 C29.8009208,4.39723421 27.9038839,4.00085 26.0014169,3.86571316 L24.4953456,0.106510526 L20.1582639,0.900697368 Z M18.3684063,33.4034289 C13.4530211,30.0219132 12.2170317,23.3065921 15.6074697,18.4042711 C18.9977784,13.50195 25.7309472,12.2690842 30.6460739,15.6506 C35.5613298,19.0319868 36.7974485,25.7474368 33.4072691,30.6496289 C31.3097071,33.6826 27.9319393,35.3109474 24.4976728,35.3113342 C22.3807177,35.3114632 20.2428179,34.6930316 18.3684063,33.4034289 Z" id="path-1"></path>
        <linearGradient x1="17.7574533%" y1="121.831191%" x2="70.3665788%" y2="4.62617366%" id="linearGradient-3">
            <stop stop-color="#FF9E54" offset="0%"></stop>
            <stop stop-color="#FFD154" offset="100%"></stop>
        </linearGradient>
        <path d="M11.4702045,0.0706988636 L9.44163068,0.443142045 L7.41279545,0.815715909 L7.38051705,2.714 C6.57107386,3.08931818 5.80763068,3.57832955 5.11671591,4.17711364 L3.37328977,3.42922159 L2.20211932,5.12717045 L1.03081818,6.82511932 L2.34926705,8.18917614 C2.03497727,9.04775568 1.84914773,9.93508523 1.78576705,10.8250284 L0.0226079545,11.5296648 L0.395051136,13.5583693 L0.767494318,15.5869432 L2.66590909,15.619483 C3.04122727,16.4287955 3.53010795,17.1922386 4.12902273,17.8832841 L3.38113068,19.6267102 L5.07907955,20.7978807 L6.77689773,21.9690511 L8.14108523,20.6506023 C8.99966477,20.9650227 9.887125,21.1508523 10.7769375,21.214233 L11.4814432,22.9772614 L13.5102784,22.6048182 L15.538983,22.232375 L15.571392,20.3338295 C16.3805739,19.9585114 17.1441477,19.4697614 17.8351932,18.8708466 L19.5784886,19.618608 L20.7499205,17.9209205 L21.9209602,16.2229716 L20.6025114,14.8587841 C20.9169318,14.0002045 21.1027614,13.112875 21.166142,12.2229318 L22.9291705,11.5184261 L22.5567273,9.48959091 L22.1842841,7.46088636 L20.2858693,7.42860795 C19.9105511,6.61916477 19.4215398,5.85572159 18.8227557,5.16480682 L19.5706477,3.42138068 L17.8728295,2.25021023 L16.17475,1.07903977 L14.8106932,2.39748864 C13.9521136,2.08306818 13.0647841,1.89723864 12.1748409,1.83385795 L11.4702045,0.0706988636 Z M8.60435227,15.6870455 C6.30513636,14.1012216 5.72686932,10.9516591 7.31282386,8.6523125 C8.89877841,6.35322727 12.0482102,5.77496023 14.3474261,7.36091477 C16.6467727,8.94686932 17.2250398,12.0963011 15.6390852,14.395517 C14.6579261,15.8179886 13.0778523,16.5816932 11.4713807,16.5818239 C10.4812045,16.5819545 9.48109659,16.2918409 8.60435227,15.6870455 Z" id="path-4"></path>
        <linearGradient x1="-11.4754671%" y1="125.990416%" x2="92.1324027%" y2="-2.08029107%" id="linearGradient-6">
            <stop stop-color="#FF9E54" offset="0%"></stop>
            <stop stop-color="#FFD154" offset="100%"></stop>
        </linearGradient>
        <path d="M42.5112258,2.62972524 C36.1729032,4.32440821 30.2846452,6.81287742 24.8419355,10.0996769 C19.3944516,13.3864764 14.5456774,17.4203231 10.2908387,22.201087 C6.03122581,26.9819807 2.61612903,32.4630525 0.0456774194,38.6350845 L25.8812903,56.5631763 C27.4636129,53.976555 29.3938065,51.2360839 31.672,48.3460477 C33.9456774,45.4606854 36.5209032,42.8696498 39.3930323,40.5773551 C42.2606452,38.2896045 45.4806452,36.3942029 49.0443871,34.9001087 C52.607871,33.4061443 56.5658065,32.6590972 60.9228387,32.6590972 C64.4861935,32.6590972 67.9989677,33.2100996 71.4649032,34.302497 C74.9264516,35.3996981 77.9470968,37.042968 80.5221935,39.2326963 C83.0929032,41.4269686 85.1714839,44.1161564 86.7584516,47.3002597 C88.3407742,50.4890368 89.1341935,54.1725996 89.1341935,58.3558816 C89.1341935,63.9351057 87.6957419,68.8651751 84.8282581,73.1463496 C81.956,77.4323279 78.4436129,81.1674336 74.2860645,84.351407 C70.1286452,87.5401842 65.8690323,90.280785 61.5167742,92.5684058 C57.1597419,94.8608303 53.4988387,96.9011232 50.5291613,98.6938285 C40.6273548,104.473771 34.0940645,111.243415 30.9296774,119.012237 C27.7605161,126.78106 26.1781935,135.548931 26.1781935,156.126093 L58.844,156.126093 C58.844,140.329825 59.8834839,136.09513 61.9621935,132.607612 C64.0409032,129.124638 66.7135484,126.034013 69.980129,123.344825 C73.2467097,120.655637 76.8566452,118.218581 80.8192258,116.024309 C84.7771613,113.83458 88.7350968,111.542286 92.6976774,109.151839 C97.4491613,106.16391 101.704,103.077829 105.466968,99.8890519 C109.225419,96.7050785 112.492,93.1192784 115.266839,89.1323007 C118.036903,85.1498671 120.16671,80.7192572 121.651484,75.8356673 C123.136387,70.9567512 123.87871,65.3310477 123.87871,58.9534934 C123.87871,48.5981793 122.045806,39.6808726 118.384903,32.2109209 C114.719226,24.7408394 109.967871,18.6155465 104.130839,13.8346528 C98.2889032,9.05388889 91.7047742,5.57091486 84.3828387,3.37664251 C77.056129,1.18704408 69.632129,0.0899728261 62.1105806,0.0899728261 C55.3780645,0.0899728261 48.8447742,0.939716184 42.5112258,2.62972524 Z M26.772129,214.926905 L59.7349677,214.926905 L59.7349677,173.692736 L26.772129,173.692736 L26.772129,214.926905 Z" id="path-7"></path>
        <linearGradient x1="-5.36518475e-05%" y1="49.9999854%" x2="99.9999584%" y2="49.9999854%" id="linearGradient-9">
            <stop stop-color="#FF9E54" offset="0%"></stop>
            <stop stop-color="#FFD154" offset="100%"></stop>
        </linearGradient>
        <polygon id="path-10" points="0.104253478 11.6237071 81.9498547 25.9293535 83.9001607 14.3441212 2.05468934 0.0384747475"></polygon>
        <polygon id="path-12" points="0 0.122767599 84.2252792 0.122767599 84.2252792 84.2828443 0 84.2828443"></polygon>
        <polygon id="path-14" points="0.056881203 0.0293208493 7.21450232 0.0293208493 7.21450232 5.99744644 0.056881203 5.99744644"></polygon>
    </defs>
    <g id="Artboard" stroke="none" stroke-width="1" fill="none" fill-rule="evenodd">
        <g id="Group-4-Copy">
            <path d="M135,270 C209.558441,270 270,209.558441 270,135 C270,60.4415588 209.558441,0 135,0 C60.4415588,0 0,60.4415588 0,135 C0,209.558441 60.4415588,270 135,270 Z" id="Oval" stroke="#4A90E2" stroke-dasharray="9" fill-rule="nonzero"></path>
            <g id="Group-170" transform="translate(28.000000, 22.000000)">
                <g id="Group-3" transform="translate(165.000000, 23.000000)">
                    <mask id="mask-2" fill="white">
                        <use xlink:href="#path-1"></use>
                    </mask>
                    <g id="Clip-2"></g>
                    <path d="M20.1582639,0.900697368 L15.8211821,1.69488421 L15.7520132,5.74254211 C14.0217573,6.54278947 12.3896306,7.58532895 10.9126491,8.86229474 L7.1852876,7.26760263 L4.68163325,10.8879289 L2.1778496,14.5079974 L4.99657784,17.4166632 C4.32441161,19.2473289 3.92698153,21.1392447 3.79148813,23.0365763 L0.0223667546,24.5389421 L0.818649077,28.8647395 L1.61480211,33.19015 L5.67313984,33.2591368 C6.47562797,34.9848395 7.52091821,36.6128 8.80112401,38.0858947 L7.20235356,41.8034474 L10.8321029,44.3005132 L14.4618522,46.7975789 L17.3780633,43.9865263 C19.2136887,44.6567947 21.1105963,45.0531789 23.0130633,45.1881868 L24.5193931,48.9475184 L28.8563456,48.1533316 L33.1932982,47.3591447 L33.2625963,43.3114868 C34.992723,42.5112395 36.6249789,41.4687 38.1019604,40.1917342 L41.8291926,41.7864263 L44.332847,38.1662289 L46.8365013,34.5459026 L44.0180317,31.6373658 C44.6901979,29.8068289 45.0874987,27.9146553 45.2229921,26.0173237 L48.9922427,24.5150868 L48.1959604,20.1894184 L47.3996781,15.86375 L43.3412111,15.7947632 C42.5389815,14.0691895 41.4936913,12.4412289 40.2133562,10.9681342 L41.8121266,7.25058158 L38.1825066,4.75351579 L34.5527573,2.25645 L31.6364169,5.06750263 C29.8009208,4.39723421 27.9038839,4.00085 26.0014169,3.86571316 L24.4953456,0.106510526 L20.1582639,0.900697368 Z M18.3684063,33.4034289 C13.4530211,30.0219132 12.2170317,23.3065921 15.6074697,18.4042711 C18.9977784,13.50195 25.7309472,12.2690842 30.6460739,15.6506 C35.5613298,19.0319868 36.7974485,25.7474368 33.4072691,30.6496289 C31.3097071,33.6826 27.9319393,35.3109474 24.4976728,35.3113342 C22.3807177,35.3114632 20.2428179,34.6930316 18.3684063,33.4034289 Z" id="Fill-1" fill="url(#linearGradient-3)" mask="url(#mask-2)"></path>
                </g>
                <g id="Group-6" transform="translate(165.000000, 0.000000)">
                    <mask id="mask-5" fill="white">
                        <use xlink:href="#path-4"></use>
                    </mask>
                    <g id="Clip-5"></g>
                    <path d="M11.4702045,0.0706988636 L9.44163068,0.443142045 L7.41279545,0.815715909 L7.38051705,2.714 C6.57107386,3.08931818 5.80763068,3.57832955 5.11671591,4.17711364 L3.37328977,3.42922159 L2.20211932,5.12717045 L1.03081818,6.82511932 L2.34926705,8.18917614 C2.03497727,9.04775568 1.84914773,9.93508523 1.78576705,10.8250284 L0.0226079545,11.5296648 L0.395051136,13.5583693 L0.767494318,15.5869432 L2.66590909,15.619483 C3.04122727,16.4287955 3.53010795,17.1922386 4.12902273,17.8832841 L3.38113068,19.6267102 L5.07907955,20.7978807 L6.77689773,21.9690511 L8.14108523,20.6506023 C8.99966477,20.9650227 9.887125,21.1508523 10.7769375,21.214233 L11.4814432,22.9772614 L13.5102784,22.6048182 L15.538983,22.232375 L15.571392,20.3338295 C16.3805739,19.9585114 17.1441477,19.4697614 17.8351932,18.8708466 L19.5784886,19.618608 L20.7499205,17.9209205 L21.9209602,16.2229716 L20.6025114,14.8587841 C20.9169318,14.0002045 21.1027614,13.112875 21.166142,12.2229318 L22.9291705,11.5184261 L22.5567273,9.48959091 L22.1842841,7.46088636 L20.2858693,7.42860795 C19.9105511,6.61916477 19.4215398,5.85572159 18.8227557,5.16480682 L19.5706477,3.42138068 L17.8728295,2.25021023 L16.17475,1.07903977 L14.8106932,2.39748864 C13.9521136,2.08306818 13.0647841,1.89723864 12.1748409,1.83385795 L11.4702045,0.0706988636 Z M8.60435227,15.6870455 C6.30513636,14.1012216 5.72686932,10.9516591 7.31282386,8.6523125 C8.89877841,6.35322727 12.0482102,5.77496023 14.3474261,7.36091477 C16.6467727,8.94686932 17.2250398,12.0963011 15.6390852,14.395517 C14.6579261,15.8179886 13.0778523,16.5816932 11.4713807,16.5818239 C10.4812045,16.5819545 9.48109659,16.2918409 8.60435227,15.6870455 Z" id="Fill-4" fill="url(#linearGradient-6)" mask="url(#mask-5)"></path>
                </g>
                <polygon id="Fill-7" fill="#FFB955" points="146 140 165 140 165 154.042256 148.900701 154.042256 146 157"></polygon>
                <g id="Group-11" transform="translate(62.000000, 8.000000)">
                    <mask id="mask-8" fill="white">
                        <use xlink:href="#path-7"></use>
                    </mask>
                    <g id="Clip-10"></g>
                    <path d="M42.5112258,2.62972524 C36.1729032,4.32440821 30.2846452,6.81287742 24.8419355,10.0996769 C19.3944516,13.3864764 14.5456774,17.4203231 10.2908387,22.201087 C6.03122581,26.9819807 2.61612903,32.4630525 0.0456774194,38.6350845 L25.8812903,56.5631763 C27.4636129,53.976555 29.3938065,51.2360839 31.672,48.3460477 C33.9456774,45.4606854 36.5209032,42.8696498 39.3930323,40.5773551 C42.2606452,38.2896045 45.4806452,36.3942029 49.0443871,34.9001087 C52.607871,33.4061443 56.5658065,32.6590972 60.9228387,32.6590972 C64.4861935,32.6590972 67.9989677,33.2100996 71.4649032,34.302497 C74.9264516,35.3996981 77.9470968,37.042968 80.5221935,39.2326963 C83.0929032,41.4269686 85.1714839,44.1161564 86.7584516,47.3002597 C88.3407742,50.4890368 89.1341935,54.1725996 89.1341935,58.3558816 C89.1341935,63.9351057 87.6957419,68.8651751 84.8282581,73.1463496 C81.956,77.4323279 78.4436129,81.1674336 74.2860645,84.351407 C70.1286452,87.5401842 65.8690323,90.280785 61.5167742,92.5684058 C57.1597419,94.8608303 53.4988387,96.9011232 50.5291613,98.6938285 C40.6273548,104.473771 34.0940645,111.243415 30.9296774,119.012237 C27.7605161,126.78106 26.1781935,135.548931 26.1781935,156.126093 L58.844,156.126093 C58.844,140.329825 59.8834839,136.09513 61.9621935,132.607612 C64.0409032,129.124638 66.7135484,126.034013 69.980129,123.344825 C73.2467097,120.655637 76.8566452,118.218581 80.8192258,116.024309 C84.7771613,113.83458 88.7350968,111.542286 92.6976774,109.151839 C97.4491613,106.16391 101.704,103.077829 105.466968,99.8890519 C109.225419,96.7050785 112.492,93.1192784 115.266839,89.1323007 C118.036903,85.1498671 120.16671,80.7192572 121.651484,75.8356673 C123.136387,70.9567512 123.87871,65.3310477 123.87871,58.9534934 C123.87871,48.5981793 122.045806,39.6808726 118.384903,32.2109209 C114.719226,24.7408394 109.967871,18.6155465 104.130839,13.8346528 C98.2889032,9.05388889 91.7047742,5.57091486 84.3828387,3.37664251 C77.056129,1.18704408 69.632129,0.0899728261 62.1105806,0.0899728261 C55.3780645,0.0899728261 48.8447742,0.939716184 42.5112258,2.62972524 Z M26.772129,214.926905 L59.7349677,214.926905 L59.7349677,173.692736 L26.772129,173.692736 L26.772129,214.926905 Z" id="Fill-9" fill="url(#linearGradient-9)" mask="url(#mask-8)"></path>
                </g>
                <path d="M147,116.862376 C147,116.862376 136.221393,126.218311 133.029891,128.717124 C131.554538,129.872114 128.050833,129.968437 124.293244,129.972885 C123.055445,129.974918 121.65824,130.032864 120.421089,129.972885 C120.418238,129.973139 120.421089,129.972885 120.421089,129.972885 C115.482725,129.730425 111.199742,129.285533 111.199742,129.285533 C111.199742,129.285533 98.3960226,129.9218 99.0222443,122.13296 C99.0222443,122.13296 100.513279,119.776091 102.425381,119.238053 C104.190776,118.741188 112.74793,120.116272 114.146949,120.176252 C115.688009,120.242331 126.399873,122.28418 126.788929,122.221532 C127.282441,122.141983 131.874647,119.498431 134.330027,118.034267 C138.078415,115.799262 141.640828,114 141.640828,114 L147,116.862376 Z" id="Fill-12" fill="#256CBE"></path>
                <g id="Group-16" transform="translate(85.000000, 104.000000)">
                    <mask id="mask-11" fill="white">
                        <use xlink:href="#path-10"></use>
                    </mask>
                    <g id="Clip-15"></g>
                    <polygon id="Fill-14" mask="url(#mask-11)" points="0.104253478 11.6237071 81.9498547 25.9293535 83.9001607 14.3441212 2.05468934 0.0384747475"></polygon>
                </g>
                <polygon id="Fill-17" fill="#2D3038" points="85.302831 115 82 114.412517 83.6972882 104 87 104.587608"></polygon>
                <g id="Group-21" transform="translate(0.000000, 58.000000)">
                    <mask id="mask-13" fill="white">
                        <use xlink:href="#path-12"></use>
                    </mask>
                    <g id="Clip-20"></g>
                    <path d="M42.1126784,77.3730812 C28.6406075,77.3730812 16.9364211,69.8100132 11.0209768,58.7013735 C11.0209768,58.7013735 11.0209768,58.7007275 11.0205889,58.7007275 C8.40030848,53.7805928 6.91556479,48.1650377 6.91556479,42.2026122 C6.91556479,22.7791579 22.6735772,7.03265983 42.1126784,7.03265983 C51.2351122,7.03265983 59.5469101,10.500331 65.7994083,16.1886191 C72.8710755,22.6215483 77.3096627,31.8945521 77.3096627,42.2026122 C77.3096627,61.6265831 61.5515209,77.3730812 42.1126784,77.3730812 M42.1126784,0.122767599 C18.854409,0.122767599 -5.17152104e-05,18.9626785 -5.17152104e-05,42.2028705 C-5.17152104e-05,65.4430626 18.854409,84.2828443 42.1126784,84.2828443 C65.3706892,84.2828443 84.2252792,65.4430626 84.2252792,42.2028705 C84.2252792,18.9626785 65.3706892,0.122767599 42.1126784,0.122767599" id="Fill-19" fill="#3F444F" mask="url(#mask-13)"></path>
                </g>
                <path d="M66,73.2145579 C66,73.2145579 20.2330831,67.5212478 11.1135105,116 C11.1135105,116 11.1135105,115.99948 11.1131218,115.99948 C8.48767255,111.047786 7,105.396081 7,99.3955414 C7,79.8475002 22.7892268,64 42.2665447,64 C51.4069738,64 59.7351679,67.4899137 66,73.2145579" id="Fill-22" fill="#C2C2C2"></path>
                <path d="M67.8411867,177.907912 C67.8411867,177.907912 71.9824468,179.183184 73.716219,178.860451 C75.4528226,178.537587 74.5738392,156.958974 74.6424333,152.46877 C74.6949407,148.826963 76.6602343,139.211527 76.6602343,139.211527 C76.6602343,139.211527 76.6602343,139.216878 76.6629369,139.227579 C76.6655108,139.23032 76.6655108,139.23554 76.6655108,139.238281 C76.6655108,139.243631 76.6682134,139.249112 76.6682134,139.254463 C76.8629281,139.974707 79.5149356,149.95294 79.6070809,154.747215 C79.7045026,159.72302 78.9677266,178.75631 78.9677266,178.75631 L86.2777026,179.477728 L107.286178,180 L111.668483,179.476032 C111.668483,179.476032 111.144954,171.336582 110.950239,167.470702 C110.829137,165.013598 110.358244,160.613962 110.479217,156.329299 C110.479217,156.329299 110.40303,151.812472 110.844967,149.86746 C110.892455,141.282083 111.405431,132.779182 111.405431,132.779182 C111.689589,128.886549 111.886878,125.247483 112,121.851152 C111.073914,121.35485 109.960964,120.7732 109.06924,120.343715 C106.311832,119.012458 102.470559,117.219482 100.005287,116.072233 C98.56082,115.400014 97.1480118,114.909063 97.1480118,114.909063 C97.1480118,114.909063 87.2949039,113.951304 86.4950676,114.001939 C86.2424403,114.017991 85.0112201,114.452826 83.3957181,115.077151 C79.9017913,116.42185 73.1664362,119.159143 72.0928667,119.940854 C70.5195765,121.082752 67.193982,148.22143 67.044053,150.121027 C66.7730224,153.543981 67.8411867,177.907912 67.8411867,177.907912" id="Fill-24" fill="#CAC7D1"></path>
                <path d="M111.360302,176 C111.360302,176 96.7744329,177.190488 84,176 L84,180.017786 C84,180.017786 103.184691,182.673269 112,179.251662 L111.360302,176 Z" id="Fill-26" fill="#1D2033"></path>
                <path d="M114.740722,179.636094 C113.807054,174.647792 112.807436,168.387876 112.090498,162.6091 L112.090498,162.585897 C112.029202,162.095892 111.967906,161.605887 111.911397,161.120444 C111.911397,161.097371 111.90661,161.069606 111.901823,161.046533 C111.666079,158.998523 111.468097,157.042934 111.326624,155.249117 C111.218259,153.871393 111.312397,152.530559 111.505859,151.217622 C112.076404,142.040748 112.359483,132.369176 112.359483,132.369176 C112.65639,128.411723 113.486346,123.266213 113.599631,119.817406 C112.213223,119.553828 111.30309,119.530755 110.039407,119.100713 C110.039407,119.100713 101.871873,116.188187 99,115 C99,115 101.42392,120.584807 103.244054,133.058103 C103.941978,137.847613 105.233982,145.915034 106.177223,154.148658 C106.549653,157.394241 107.15344,160.681147 107.738079,163.778777 C108.322718,166.876277 108.87917,169.78411 109.152808,172.266985 C109.336563,173.94961 109.638523,176.695672 109.959097,179.636094 C110.011086,180.089208 110.058022,180.542193 110.11001,181 L115,181 C114.915169,180.556141 114.825685,180.103026 114.740722,179.636094" id="Fill-28" fill="#256CBE"></path>
                <path d="M98.9945175,118.444255 C98.9945175,118.444255 99.2680641,121.917576 95.9507093,121.998295 C92.6333545,122.079134 90,119.257972 90,119.257972 L95.506263,120.515825 L98.8577442,118 L98.9945175,118.444255 Z" id="Fill-30" fill="#CAC7D1"></path>
                <path d="M93.8194746,89.0817321 C93.8194746,89.0817321 101.09273,90.3039508 99.8591116,101.645824 C98.6253655,112.987825 92.2053565,111.987341 91.7755988,111.971157 C91.3459691,111.954973 85.3181027,112.108149 85.0000386,98.2405351 C85.0000386,98.2405351 84.9072805,87.9875845 93.8194746,89.0817321" id="Fill-32" fill="#EEA987"></path>
                <path d="M97.7978418,109.271493 C97.7978418,109.271493 97.7970544,113.798637 97.9946831,114.778369 C98.2071405,115.832555 92.0044084,118.877319 88,115.329539 C88,115.329539 88.8096739,110.385932 88.558242,108.640316 C88.30681,106.8947 97.7978418,109.271493 97.7978418,109.271493" id="Fill-34" fill="#EEA987"></path>
                <path d="M100.591865,98.4038838 C100.591865,98.4038838 101.597346,97.4789935 101.950094,98.4284335 C102.303,99.3778735 100.675867,103.391109 100.466259,103.776889 C100.466259,103.776889 100.280242,104.142188 100.044333,103.937935 C99.808265,103.733682 100.591865,98.4038838 100.591865,98.4038838" id="Fill-36" fill="#EEA987"></path>
                <path d="M85.492228,98.4275136 C85.492228,98.4275136 84.4866453,97.4819305 84.071709,98.4033423 C83.6564394,99.3247541 85.1721486,103.462198 85.3610288,103.717862 C85.3610288,103.717862 85.6872763,104.142449 85.9440066,103.949907 C86.2005703,103.757365 85.492228,98.4275136 85.492228,98.4275136" id="Fill-38" fill="#EEA987"></path>
                <path d="M100.945921,97.3964292 C100.695715,98.9531509 100.459551,100.109795 100.459551,100.109795 L99.4034521,101.49102 C99.4034521,101.49102 99.4658759,98.4373965 99.3046463,97.9575597 C99.243499,97.7755438 99.1716286,97.4536926 99.0975881,97.1049992 C98.9763147,96.5295529 98.852233,95.879843 98.767214,95.6635713 C98.6311326,95.3178178 92.5471698,93.5388168 87.1285507,96.0365505 C87.1285507,96.0365505 87.1743793,96.5065452 87.1711879,97.0307357 C87.1694007,97.6401822 87.1023812,98.3231253 86.8230696,98.4258927 C86.3035093,98.6160891 86.5205247,102 86.5205247,102 L85.6759518,101.02371 C85.6759518,101.02371 85.431618,99.2560847 85.1912415,97.2245111 C85.1912415,97.2245111 85.1900926,97.2195261 85.1889437,97.2099396 C85.1346899,96.7359824 85.0791595,96.2489876 85.0261822,95.765444 C84.9050365,93.7217274 85.1069885,90.0114917 87.7645335,87.8315189 C89.5574636,87.0628085 92.4209179,86.4095196 97.1938524,87.872677 C97.1938524,87.872677 98.2885036,87.9457901 98.5952612,88.241566 C101.567606,91.5169575 100.945921,97.3964292 100.945921,97.3964292" id="Fill-40" fill="#323657"></path>
                <path d="M89,111 C89,111 90.202113,112.773975 92.9948996,112.706682 C95.7876861,112.639529 97,111.092634 97,111.092634 C97,111.092634 95.6778611,114.031144 92.9816517,113.99975 C90.2854422,113.968638 89,111 89,111" id="Fill-42" fill="#C78D71"></path>
                <path d="M98,117.924162 L95,120 C95,120 97.5074965,115.001739 97.5596888,113 L98,117.924162 Z" id="Fill-44" fill="#A09EA6"></path>
                <polygon id="Fill-46" fill="#EAE6F2" points="97 113 98.9555406 114.829312 101 121 97.4194005 118.073483"></polygon>
                <path d="M97,115 C97,115 96.224681,117.61306 94.9562417,120 C94.9562417,120 92.0124628,117.525251 91.0862588,116.643742 C90.1599225,115.761978 97,115 97,115" id="Fill-48" fill="#EEA987"></path>
                <path d="M92.1493099,117 L95,120 C95,120 91.6296784,119.748303 91,119.117064 L92.1493099,117 Z" id="Fill-50" fill="#A09EA6"></path>
                <path d="M87.9798502,112 C87.9798502,112 90.403963,116.066654 92,117.393426 L89.3108352,122 L85,113.918522 L87.9798502,112 Z" id="Fill-52" fill="#EAE6F2"></path>
                <path d="M74.9393964,152.12598 C75.3245613,146.834604 76.9328,140.133731 76.9328,140.133731 C77.829985,143.308452 78.9672112,157.759274 78.9672112,157.759274 C78.9626123,162.297365 77.213849,170.130578 75.3335037,176.568107 C75.7005281,170.098263 74.7038263,155.370024 74.9393964,152.12598 M91.9749234,140.600479 C91.3995396,129.292063 85.3420403,114.790293 84.6487436,114 C84.1095129,114.207965 82.2111549,115.021452 81.6131594,115.261732 C78.3375338,116.583403 71.6545729,118.995848 70.7529167,119.656488 C69.1897735,120.79808 66.235949,149.209912 66.0500735,151.104659 C65.7963629,153.706435 66.5893042,178.536607 66.5893042,178.536607 C66.5893042,178.536607 70.61252,179.437918 73.1180715,179.636631 C73.6162946,179.678329 74.0558807,179.692141 74.3866242,179.664386 C74.2371573,180.121883 74.0920338,180.570128 73.9470381,181 L88.191749,181 C88.2325011,180.556185 88.2778522,180.098819 88.3232032,179.636631 C88.4952819,177.811336 88.6856286,175.861079 88.8849179,173.827688 C89.4060082,168.526929 90.1173176,163.582291 90.7606642,157.246529 C91.3586597,151.308063 92.1514733,144.043366 91.9749234,140.600479" id="Fill-54" fill="#256CBE"></path>
                <path d="M75,163.609325 L74.9089924,179.624516 L74.9000071,181 L69.2639521,181 C68.3626043,180.74365 67.3838551,180.421831 66.3414391,180.030207 L66.3368181,179.624516 L66,154 L75,163.609325 Z" id="Fill-56" fill="#323657"></path>
                <polygon id="Fill-58" fill="#3A4066" points="94 181 101 181 101 176 94 176"></polygon>
                <path d="M140.311616,113.070481 C140.311616,113.070481 139.628708,115.992165 140.284809,116.802577 C140.94091,117.613118 141.248524,116.572841 141.248524,116.572841 C141.248524,116.572841 140.926047,117.596351 141.754666,117.93974 C142.583286,118.283257 142.875771,117.046008 142.875771,117.046008 C142.875771,117.046008 142.849893,117.887521 143.785209,117.933341 C144.720392,117.97916 144.718268,116.896775 144.718268,116.896775 C144.718268,116.896775 145.370388,118.111114 146.128938,117.270369 C147.409423,115.850995 146.899963,113.699408 146.899963,113.699408 C146.899963,113.699408 146.725852,113.192453 145.823581,113.208451 C145.823581,113.208451 145.484383,111.934726 144.033105,112.451793 C144.033105,112.451793 142.866083,111.430074 142.152122,112.4596 C142.152122,112.4596 140.843769,111.441209 140.311616,113.070481" id="Fill-60" fill="#EFAA88"></path>
                <polygon id="Fill-62" points="64 182 120 182 120 180 64 180"></polygon>
                <path d="M22.7037582,126.046202 C22.7037582,126.046202 26.5827937,126.737065 25.9248576,133.147662 C25.2669214,139.558259 21.8427919,138.992913 21.6137354,138.983668 C21.3845555,138.974554 18.1696235,139.06114 18.0000206,131.222855 C18.0000206,131.222855 17.9505582,125.427733 22.7037582,126.046202" id="Fill-64" fill="#EEA987"></path>
                <path d="M23.9047213,136.706905 C23.9047213,136.706905 23.7613903,139.239969 23.9885586,139.787236 C24.2158457,140.334503 21.0046147,142.047784 19,140.075389 C19,140.075389 19.4052929,137.326521 19.2794182,136.35596 C19.1535434,135.385523 23.9047213,136.706905 23.9047213,136.706905" id="Fill-66" fill="#EEA987"></path>
                <path d="M26.2959102,131.201926 C26.2959102,131.201926 26.7985339,130.739501 26.9750068,131.214225 C27.1514797,131.688948 26.3392722,133.735812 26.2331003,133.888474 C26.2331003,133.888474 26.1401819,134.07106 26.0221972,133.968989 C25.9040684,133.866918 26.2959102,131.201926 26.2959102,131.201926" id="Fill-68" fill="#EEA987"></path>
                <path d="M17.7462466,131.213758 C17.7462466,131.213758 17.2434373,130.74098 17.0358043,131.201649 C16.828322,131.662442 17.5862276,133.731081 17.6805514,133.859045 C17.6805514,133.859045 17.843584,134.071277 17.9719609,133.974899 C18.1003377,133.87877 17.7462466,131.213758 17.7462466,131.213758" id="Fill-70" fill="#EEA987"></path>
                <path d="M20,138 C20,138 20.6011076,139.18263 21.9974255,139.137843 C23.3938632,139.093055 24,138.061922 24,138.061922 C24,138.061922 23.3389014,140.020701 21.9908397,139.999834 C20.6426583,139.979137 20,138 20,138" id="Fill-72" fill="#C78D71"></path>
                <g id="Group-76" transform="translate(6.000000, 220.000000)">
                    <mask id="mask-15" fill="white">
                        <use xlink:href="#path-14"></use>
                    </mask>
                    <g id="Clip-75"></g>
                    <path d="M3.38158807,0.0293208493 C3.38158807,0.0293208493 2.82110818,1.31717252 2.34863107,1.82775512 C1.87615395,2.33807118 0.0666865465,3.25074925 0.0569084605,4.76663716 C0.0463481276,6.41060386 3.10714979,5.9543981 4.30398752,5.89442364 C5.50108599,5.8343159 5.59169626,4.95602319 6.09559362,4.02508622 C6.59975173,3.09428253 7.10756033,3.25208201 7.20221221,2.501335 C7.29660333,1.75058798 6.81630374,0.0699702085 6.81630374,0.0699702085 L3.38158807,0.0293208493 Z" id="Fill-74" fill="#1D2033" mask="url(#mask-15)"></path>
                </g>
                <path d="M9.09568901,220.167333 L9,220.764325 C9,220.764325 11.0561746,221.258365 13,220.815851 L12.8917803,220 L9.09568901,220.167333 Z" id="Fill-77" fill="#50558A"></path>
                <polygon id="Fill-79" fill="#1A598C" points="83.8434418 223 83.4185872 222.982751 85.5573949 168.432141 48.564434 168.432141 46.4248546 223 46 222.982751 48.1557864 168 86 168"></polygon>
                <polygon id="Fill-81" fill="#1A598C" points="87.5750182 223 85.4355742 168.432141 48.4426037 168.432141 50.5814045 222.982751 50.1565513 223 48 168 85.8442205 168 88 222.982751"></polygon>
                <polygon id="Fill-83" fill="#BFB9B7" points="50.171096 206 88 206 85.8287739 151 48 151"></polygon>
                <polygon id="Fill-85" fill="#F2EBE9" points="82.8287739 206 45 206 47.171096 151 85 151"></polygon>
                <polygon id="Fill-87" fill="#3D8ED1" points="57.4133764 189 57 188.851207 60.5965966 178.657228 68.3963535 176.572674 71.1994604 165.384061 77.2183985 162.699853 78.5664048 154 79 154.0684 77.6149477 163.007851 71.5723993 165.70247 68.758596 176.934575 60.9324894 179.026245"></polygon>
                <path d="M69.7742957,176.367157 C70.1237788,176.794758 70.0603681,177.424735 69.6328755,177.774216 C69.2052713,178.123807 68.575288,178.060397 68.2256935,177.632796 C67.8763219,177.205196 67.9395096,176.57533 68.3671138,176.225738 C68.7948293,175.876258 69.4247012,175.939557 69.7742957,176.367157" id="Fill-89" fill="#F5EEEC"></path>
                <path d="M67.8502766,176.705019 C67.412007,177.063302 67.3468017,177.711422 67.7050787,178.149839 C68.0633557,178.588116 68.7114652,178.653322 69.1498757,178.294899 C69.5881454,177.936616 69.6533507,177.288637 69.2950737,176.85022 C68.9366558,176.411802 68.2885463,176.346737 67.8502766,176.705019 M69.4495665,178.661913 C68.8090619,179.185535 67.8618249,179.090331 67.3380701,178.449816 C66.8144562,177.80902 66.9096587,176.861627 67.5503042,176.338146 C68.1909496,175.814383 69.1381867,175.909728 69.6619414,176.550242 C70.1855554,177.191039 70.0903528,178.138291 69.4495665,178.661913" id="Fill-91" fill="#3D8ED1"></path>
                <path d="M71.7742052,165.367159 C72.1237986,165.794761 72.0603881,166.424631 71.6328967,166.774224 C71.2052939,167.123817 70.5752011,167.060406 70.2258305,166.632692 C69.8762371,166.205202 69.9395361,165.575221 70.3671389,165.225739 C70.7947417,164.876257 71.4247232,164.939556 71.7742052,165.367159" id="Fill-93" fill="#F5EEEC"></path>
                <path d="M70.8501753,165.705065 C70.4119085,166.063343 70.3467037,166.711453 70.7051192,167.149723 C71.0633938,167.588134 71.7113583,167.653339 72.1496251,167.294921 C72.5881736,166.936643 72.6532376,166.288533 72.2949629,165.850263 C71.9366883,165.411853 71.288583,165.346647 70.8501753,165.705065 M72.4495956,167.66193 C71.8090952,168.185544 70.8617235,168.090341 70.338113,167.449695 C69.8145025,166.808909 69.9095635,165.861812 70.5503456,165.338197 C71.1909869,164.814442 72.1382178,164.909645 72.6618283,165.55015 C73.1855797,166.190937 73.0903777,167.138174 72.4495956,167.66193" id="Fill-95" fill="#3D8ED1"></path>
                <path d="M77.7742947,162.367159 C78.1237794,162.794761 78.0603684,163.424631 77.6328738,163.774224 C77.2052677,164.123817 76.5752815,164.060406 76.2256854,163.632692 C75.8763122,163.205313 75.9395002,162.575221 76.3672177,162.225739 C76.7948238,161.876257 77.4246986,161.939556 77.7742947,162.367159" id="Fill-97" fill="#F5EEEC"></path>
                <path d="M61.7742155,178.367157 C62.123807,178.794758 62.0603969,179.424735 61.6327965,179.774216 C61.2053075,180.123807 60.5752181,180.060397 60.225738,179.632796 C59.8762579,179.205196 59.9395566,178.57533 60.3671571,178.225738 C60.7947575,177.876258 61.4247355,177.939557 61.7742155,178.367157" id="Fill-99" fill="#F5EEEC"></path>
                <path d="M59.8502174,178.705056 C59.4119592,179.063335 59.3467556,179.711448 59.7050233,180.149719 C60.0634317,180.588132 60.7113835,180.653338 61.1497826,180.294918 C61.5881816,179.93678 61.6532444,179.288668 61.2949767,178.850114 C60.9367091,178.411843 60.2886165,178.346637 59.8502174,178.705056 M61.4496064,180.661928 C60.8091185,181.185545 59.8617654,181.090342 59.3381651,180.449693 C58.814424,179.809045 58.909624,178.861803 59.5503936,178.338187 C60.1910223,177.81443 61.1380938,177.909633 61.6618349,178.550281 C62.185576,179.19093 62.090376,180.138312 61.4496064,180.661928" id="Fill-101" fill="#3D8ED1"></path>
                <path d="M63.6969009,165 L52.3030991,165 C52.1355864,165 52,164.890806 52,164.756247 L52,163.24386 C52,163.109087 52.1355864,163 52.3030991,163 L63.6969009,163 C63.86428,163 64,163.109087 64,163.24386 L64,164.756247 C64,164.890806 63.86428,165 63.6969009,165" id="Fill-103" fill="#DED7D5"></path>
                <path d="M63.6969009,161 L52.3030991,161 C52.1355864,161 52,160.890811 52,160.756153 L52,159.243847 C52,159.109189 52.1355864,159 52.3030991,159 L63.6969009,159 C63.86428,159 64,159.109189 64,159.243847 L64,160.756153 C64,160.890811 63.86428,161 63.6969009,161" id="Fill-105" fill="#DED7D5"></path>
                <path d="M76.8502734,162.705056 C76.4118646,163.063194 76.3468004,163.711448 76.705076,164.149719 C77.0633516,164.588132 77.7114587,164.653197 78.1498675,164.294918 C78.5881354,163.936639 78.6533405,163.288527 78.2950649,162.850255 C77.9367892,162.411843 77.2885413,162.346637 76.8502734,162.705056 M78.449698,164.661928 C77.809055,165.185545 76.8618216,165.090342 76.3380688,164.449693 C75.8144569,163.808904 75.9096591,162.861663 76.550302,162.338187 C77.1910859,161.81443 78.1381784,161.909633 78.6619312,162.550281 C79.1855431,163.190789 79.0903409,164.138171 78.449698,164.661928" id="Fill-107" fill="#3D8ED1"></path>
                <polygon id="Fill-109" fill="#3D8ED1" points="54.2674096 199 54 198.813339 58.6859465 192.471349 64.73551 192.598787 69.0537187 185.406865 73.9430974 184.75991 76.701527 179 77 179.135018 74.1656964 185.053326 69.2571509 185.702851 64.9221547 192.922779 58.8521026 192.794698"></polygon>
                <path d="M65.9189027,192.606195 C66.1364243,193.113656 65.9012903,193.701353 65.3938403,193.918879 C64.8863902,194.136406 64.2985551,193.901417 64.0810335,193.393805 C63.8636624,192.886344 64.098646,192.298647 64.606096,192.081121 C65.113546,191.863594 65.7013812,192.098583 65.9189027,192.606195" id="Fill-111" fill="#F5EEEC"></path>
                <path d="M64.7304286,192.371093 C64.3837656,192.519827 64.2224798,192.922791 64.3712127,193.269584 C64.5198187,193.616249 64.9229064,193.777537 65.2695694,193.628802 C65.6162324,193.480195 65.7775182,193.077231 65.6289121,192.730439 C65.480306,192.383773 65.0772184,192.222486 64.7304286,192.371093 M65.3939573,193.91917 C64.8871496,194.136375 64.2981776,193.900657 64.0808475,193.393846 C63.8636443,192.887034 64.0992331,192.298184 64.6061675,192.080852 C65.1129751,191.863647 65.7019472,192.099238 65.9191504,192.605923 C66.1363537,193.112861 65.9007649,193.701838 65.3939573,193.91917" id="Fill-113" fill="#3D8ED1"></path>
                <path d="M69.9188771,184.606117 C70.1364029,185.113583 69.9014149,185.701438 69.393955,185.918966 C68.8863447,186.136344 68.2984981,185.901353 68.0811229,185.393736 C67.8635971,184.88627 68.0985851,184.298716 68.606045,184.081188 C69.1136553,183.863508 69.7015019,184.09865 69.9188771,184.606117" id="Fill-115" fill="#F5EEEC"></path>
                <path d="M68.7304681,184.37117 C68.3836691,184.51978 68.2225059,184.922751 68.3711159,185.26955 C68.5197259,185.616349 68.9228242,185.777512 69.2694964,185.628902 C69.6162954,185.480165 69.7775854,185.077194 69.6288486,184.730522 C69.4802386,184.383723 69.0771403,184.222433 68.7304681,184.37117 M69.3938875,185.919148 C68.8870665,186.136357 68.2980789,185.900762 68.0808699,185.393941 C67.8636608,184.88712 68.0991291,184.298133 68.6060769,184.080924 C69.112898,183.863588 69.7018856,184.099183 69.9190946,184.606131 C70.1364304,185.112952 69.9007086,185.701812 69.3938875,185.919148" id="Fill-117" fill="#3D8ED1"></path>
                <path d="M74.9188771,184.606053 C75.1364029,185.11352 74.9014149,185.701374 74.393955,185.918903 C73.8863447,186.136431 73.2984981,185.901289 73.0811229,185.393672 C72.8635971,184.886206 73.0985851,184.298653 73.606045,184.081124 C74.1136553,183.863595 74.7015019,184.098586 74.9188771,184.606053" id="Fill-119" fill="#F5EEEC"></path>
                <path d="M59.918877,192.606148 C60.1364031,193.113588 59.9014147,193.701261 59.3939543,193.918928 C58.8864938,194.136446 58.2986466,193.901166 58.0811205,193.393726 C57.8635945,192.886286 58.0985828,192.298613 58.6061938,192.081096 C59.1136543,191.863578 59.7015015,192.098708 59.918877,192.606148" id="Fill-121" fill="#F5EEEC"></path>
                <path d="M58.7304694,192.371043 C58.3836708,192.51978 58.2225077,192.922879 58.3711175,193.269551 C58.5197274,193.616224 58.9228253,193.777514 59.2694971,193.628904 C59.6162958,193.480294 59.7775856,193.077195 59.628849,192.730396 C59.4802391,192.383723 59.0771412,192.222433 58.7304694,192.371043 M59.3938882,193.91915 C58.8870677,194.136359 58.2980806,193.900764 58.0808718,193.393816 C57.863663,192.887121 58.0991311,192.298133 58.6059516,192.080924 C59.1128989,191.863588 59.7018859,192.099183 59.9190947,192.606131 C60.1364303,193.112826 59.9007087,193.701941 59.3938882,193.91915" id="Fill-123" fill="#3D8ED1"></path>
                <path d="M73.7304681,184.371122 C73.3836691,184.519735 73.2225059,184.922841 73.3711159,185.269519 C73.5197259,185.616324 73.9228242,185.77749 74.2694964,185.628878 C74.6162954,185.480265 74.7775854,185.077159 74.6288486,184.730481 C74.4802386,184.383676 74.0771403,184.222383 73.7304681,184.371122 M74.3938875,185.919129 C73.8870665,186.136342 73.2980789,185.900869 73.0808699,185.393912 C72.8636608,184.887082 73.0991291,184.298084 73.6060769,184.080871 C74.112898,183.863658 74.7018856,184.099131 74.9190946,184.606088 C75.1364304,185.112918 74.9007086,185.701916 74.3938875,185.919129" id="Fill-125" fill="#3D8ED1"></path>
                <path d="M47,152.995303 C47,152.995303 48.1491414,152.606412 48.2418629,151.872014 C48.3205248,151.247515 48.8407352,150.501748 49.0004829,150.27189 C49.2141667,149.964279 49.5437222,148.756965 49.9061241,149.043668 C50.2685261,149.33024 49.4516067,151.062217 49.3474918,151.462346 C49.2436195,151.862344 50.8155227,151.101027 51.2045896,151.205699 C51.5935354,151.3105 52.6156543,154.189288 51.4806939,154.577133 C50.3456122,154.964979 48.8956409,154.571645 48.7085009,154.682589 C48.5214821,154.793532 47.8930359,155 47.8930359,155 L47,152.995303 Z" id="Fill-127" fill="#EEA886"></path>
                <path d="M50,151.778592 C50,151.778592 54.0802077,150.869791 54.4080628,151.015903 C54.735918,151.161888 54.7770393,151.365432 54.3994204,151.464863 C54.0219409,151.564168 50.4849524,152.446403 50.4849524,152.446403 C50.4849524,152.446403 55.5135982,152.107247 55.8110655,152.173662 C55.9850294,152.212498 56.0905508,152.602255 55.8938656,152.672464 C55.6971804,152.742674 50.7343287,153.337366 50.7343287,153.337366 C50.7343287,153.337366 55.4301011,153.028318 55.6605197,153.151406 C55.8622231,153.258555 55.8601322,153.638444 55.5137376,153.6831 C55.1672036,153.727756 50.8268864,154.237944 50.8268864,154.237944 C50.8268864,154.237944 54.2600262,154.208215 54.3874325,154.41644 C54.4654932,154.543702 54.5739419,154.876659 53.687813,154.859328 C52.8015447,154.841871 50.706171,155 50.706171,155 L50,151.778592 Z" id="Fill-129" fill="#EEA886"></path>
                <path d="M28.2247107,148.735899 C28.2247107,148.735899 29.1962185,150.50633 30.4950975,152.497372 C30.6149547,152.680379 30.737112,152.865893 30.8614415,153.051275 C30.8614415,153.051275 30.8614415,153.052726 30.8623359,153.053518 C31.031516,153.305004 31.2036351,153.557282 31.3794597,153.807976 C31.5892737,154.10749 31.8034322,154.404629 32.019763,154.693984 C33.2244685,156.307401 34.4924249,157.678964 35.4542215,157.923721 C37.5369002,158.452686 48,156.057234 48,156.057234 L47.1912833,151.809545 C47.1912833,151.809545 43.5227327,153.099039 41.07141,153.310414 C39.567956,153.439456 37.692919,153.949553 37.4705826,153.805074 C37.2476073,153.661386 32.9565148,147.269995 32.6504828,146.580717 C32.3435564,145.890912 30.971843,143.185654 29.8025324,141.893126 C28.6338608,140.599674 27.3621988,141.091959 27.3621988,141.091959 C23.8563116,143.448487 28.2247107,148.735899 28.2247107,148.735899" id="Fill-131" fill="#FFC355"></path>
                <path d="M32.9893825,220.285126 C32.9893825,220.285126 34.5928913,221.898772 36.2209663,222.236692 C37.8489147,222.574855 38.9876934,223.006083 38.9999764,223.931997 C39.0121329,224.857789 34.3149397,225.467987 32.4518404,224.534429 C29.6714373,223.141494 29.3886738,223.561437 29.0804577,222.865091 C28.7721149,222.168623 29.4508488,220.306603 29.4307147,220.085165 C29.4058954,219.811431 32.9893825,220.285126 32.9893825,220.285126" id="Fill-133" fill="#202338"></path>
                <path d="M32.794071,219.333152 C32.794071,219.333152 33.0316771,219.886835 32.9964341,219.898568 C32.961049,219.910302 28.8792539,220.196432 29.0027466,219.752081 C29.1027913,219.39164 29.2457529,219 29.2457529,219 L32.794071,219.333152 Z" id="Fill-135" fill="#2F6B8C"></path>
                <path d="M29.2979717,170.527245 C29.2979717,170.527245 31.0451218,183.054243 31.7585874,187.289117 C32.5928902,192.240586 32.8756758,196.331675 33.108419,198.894537 C33.4009242,202.117854 33.7893111,218.613936 33.9942091,219.556258 C34.1989758,220.498969 28.9052505,220.009008 28.9052505,220.009008 C28.9052505,220.009008 26.1322966,198.503761 25.2606918,195.070924 C24.4491116,191.874445 22.0860852,178.067637 21.3455626,178.940465 C20.60504,179.813293 17.4387082,195.566848 16.8902118,198.087832 C16.3418468,200.608816 13.2746804,220.826863 13.2746804,220.826863 C13.2746804,220.826863 9.99066351,221.414971 8,220.423381 C8,220.423381 9.54382811,202.739672 9.89320558,198.013152 C10.026258,196.212005 10.3513366,176.422204 13.4368913,168.452659 C15.0676698,164.240993 29.2979717,170.527245 29.2979717,170.527245" id="Fill-137" fill="#256CBE"></path>
                <path d="M24.3174706,140 C24.3174706,140 28.8050118,140.944791 29.3374276,141.425171 C29.9154864,141.936321 30.9349301,146.941233 30.9957448,148.335374 C31.0565596,149.729645 30.4547869,155.553539 29.8767282,157.722391 C29.2986694,159.891112 29.5085249,170.559835 29.8735408,173.565067 C29.8735408,173.565067 23.2244628,176.597694 12,173.845505 C12,173.845505 13.9542313,163.953051 13.5986499,160.981185 C13.1431131,157.174108 12.2470838,147.830975 12.2470838,147.830975 C12.2470838,147.830975 12.2194175,142.11562 13.0103916,141.434 C13.8014932,140.752379 19.6232613,140 19.6232613,140 L24.3174706,140 Z" id="Fill-139" fill="#FFC355"></path>
                <path d="M15.3387444,141.135286 C15.3387444,141.135286 18.0396689,141.911009 16.5537194,147.081087 C15.3897052,151.130506 15.2326577,152 15.2326577,152 L9,150.376502 C9,150.376502 10.5947313,141.822348 13.5788804,141.08674 C13.5788804,141.08674 14.7591874,140.862404 15.3387444,141.135286" id="Fill-141" fill="#FFC355"></path>
                <path d="M31,152.675378 C31.1329134,152.860324 31.2682332,153.047803 31.4058177,153.235149 C31.4058177,153.235149 31.4058177,153.236616 31.4068085,153.237416 C31.5942179,153.491566 31.7850244,153.746516 31.9797942,154 C32.1265793,151.487299 31.4254928,148 31.4254928,148 C31.5599633,149.168078 31,152.675378 31,152.675378" id="Fill-143" fill="#A67F37"></path>
                <path d="M24.6826731,139.150337 C24.6826731,139.150337 21.684671,140.000033 19.1734757,139 L19,140.183572 C19,140.183572 22.3679642,141.416681 25,140.851988 L24.6826731,139.150337 Z" id="Fill-145" fill="#FFC355"></path>
                <path d="M8.48891911,173.747722 C8.48891911,173.747722 8.71270984,175.17177 8.89783705,175.438849 C9.08308471,175.706179 9.56667986,177.037949 9.61449736,177.22488 C9.66207397,177.411685 9.94584736,178.750458 9.99547157,178.920133 C10.0452162,179.089934 9.67387779,179.342259 9.43370625,178.979776 C9.28435183,178.754334 9.0352672,177.885576 8.93216448,177.604743 C8.82882085,177.323909 8.5121654,176.43527 8.4160486,176.593067 C8.3201727,176.750614 8.31138006,177.930339 8.28825422,178.232929 C8.26512837,178.535519 8.42616616,179.473298 8.50289097,179.861788 C8.57973623,180.250404 9.03165379,181.882513 8.83110935,181.964038 C8.63056491,182.045562 8.46338432,182.016803 8.21899713,181.575297 C8.21899713,181.575297 7.80718846,181.799489 7.5846022,181.259953 C7.5846022,181.259953 7.21820208,181.385866 7.01175573,180.685283 C7.01175573,180.685283 6.75773278,180.530862 6.66438627,180.279037 C6.57091931,180.027337 6.03914531,177.882075 6.06708904,177.014067 C6.09503277,176.146059 6.30714013,175.546756 6.2876277,174.932949 C6.26823572,174.319142 6,173 6,173 L8.48891911,173.747722 Z" id="Fill-147" fill="#EEA886"></path>
                <path d="M8.69474752,175.868819 C8.69474752,175.868819 7.17878717,176.119237 5,175.928094 C5,175.928094 6.2336221,161.27319 6.1703114,160.445428 C6.11174588,159.679292 9.00006244,146.063267 10.5865761,144 L13,151.964267 C12.8164364,151.902773 10.3731679,160.085861 10.3394521,160.928637 C10.2939983,162.058258 8.69474752,175.868819 8.69474752,175.868819" id="Fill-149" fill="#FFC355"></path>
                <path d="M26.9508763,129.94356 C27.0752028,128.332339 26.9495853,127.000253 26.730497,126.177512 C26.4602839,125.163382 24.7414028,125.441778 24.7414028,125.441778 L24.7415319,125.442271 C22.1199607,124.692487 20.5396075,125.037186 19.5466742,125.44301 C18.0599208,126.605766 17.9469554,128.584731 18.0146056,129.674653 C18.0444284,129.932715 18.0754132,130.192379 18.1057525,130.445141 C18.106398,130.450317 18.1070435,130.452905 18.1070435,130.452905 C18.24144,131.536542 18.3782895,132.479317 18.3782895,132.479317 L18.8508075,133 C18.8508075,133 18.7293213,131.195171 19.0199328,131.093622 C19.1762769,131.039028 19.2137168,130.674611 19.2147496,130.349631 C19.2165571,130.070003 19.1909946,129.819335 19.1909946,129.819335 C22.2224687,128.487126 25.6262767,129.436064 25.7023185,129.620552 C25.7499576,129.735903 25.8192861,130.082327 25.8873235,130.389191 C25.9286366,130.575158 25.9689168,130.746952 26.0030001,130.843941 C26.0932433,131.099908 26.0583854,132.728752 26.0583854,132.728752 L26.649162,131.991908 C26.649162,131.991908 26.7244292,131.640309 26.8215149,131.111122 L26.8215149,131.110876 C26.8531452,130.938835 26.8869702,130.748185 26.9213117,130.544595 C26.9213117,130.544595 26.9468741,130.314138 26.9508763,129.94356" id="Fill-151" fill="#FCCCA2"></path>
                <path d="M119.538757,70 C119.241223,70 119,69.7820891 119,69.513309 L119,67.486691 C119,67.2179109 119.241223,67 119.538757,67 L155.461114,67 C155.758777,67 156,67.2179109 156,67.486691 L156,69.513309 C156,69.7820891 155.758777,70 155.461114,70 L119.538757,70 Z" id="Fill-153" fill="#D9D9D9"></path>
                <path d="M160.463267,75 L119.536605,75 C119.240317,75 119,74.782197 119,74.5132901 L119,72.4867099 C119,72.217803 119.240317,72 119.536605,72 L160.463267,72 C160.759683,72 161,72.217803 161,72.4867099 L161,74.5132901 C161,74.782197 160.759683,75 160.463267,75" id="Fill-155" fill="#D9D9D9"></path>
                <path d="M105.284878,77 L113.715122,77 C114.424701,77 115,76.4247014 115,75.7151224 L115,67.2848776 C115,66.575166 114.424701,66 113.715122,66 L105.284878,66 C104.575166,66 104,66.575166 104,67.2848776 L104,75.7151224 C104,76.4247014 104.575166,77 105.284878,77" id="Fill-157" fill="#FFC355"></path>
                <path d="M146.529692,85 L119.470308,85 C119.210568,85 119,84.811074 119,84.5780304 L119,82.4219696 C119,82.188926 119.210568,82 119.470308,82 L146.529692,82 C146.789432,82 147,82.188926 147,82.4219696 L147,84.5780304 C147,84.811074 146.789432,85 146.529692,85" id="Fill-159" fill="#D9D9D9"></path>
                <path d="M152.517638,91 L119.482234,91 C119.215821,91 119,90.8037329 119,90.5616002 L119,88.4382833 C119,88.1961507 119.215821,88 119.482234,88 L152.517638,88 C152.784051,88 153,88.1961507 153,88.4382833 L153,90.5616002 C153,90.8037329 152.784051,91 152.517638,91" id="Fill-161" fill="#D9D9D9"></path>
                <path d="M108.739376,74 L109.98103,74 L109.98103,72.5395634 L108.739376,72.5395634 L108.739376,74 Z M108.710886,71.614708 C108.710886,71.4654885 108.720473,71.3226484 108.739376,71.1861875 C108.758278,71.050004 108.794464,70.9186742 108.848338,70.7920596 C108.901941,70.665445 108.979443,70.5471511 109.080574,70.4366233 C109.18157,70.3263729 109.314295,70.2258301 109.478751,70.1348562 C109.560709,70.0895079 109.669806,70.0294595 109.805772,69.9547111 C109.941603,69.8802401 110.074194,69.79412 110.203814,69.6967668 C110.3333,69.5994136 110.445502,69.4873603 110.540287,69.3608844 C110.635072,69.2342698 110.682464,69.0930937 110.682464,68.937495 C110.682464,68.7232348 110.606582,68.5561257 110.454954,68.436029 C110.303325,68.3159323 110.129418,68.255884 109.933637,68.255884 C109.807122,68.255884 109.695055,68.2802916 109.597165,68.3288295 C109.499139,68.3776448 109.4107,68.436029 109.331713,68.5042595 C109.252591,68.5723512 109.18481,68.6486251 109.127966,68.7329424 C109.070987,68.8172597 109.020354,68.8920081 108.976338,68.9569102 L108,68.255884 C108.164321,67.8600919 108.424911,67.5516681 108.782042,67.3310286 C109.138903,67.1103891 109.541806,67 109.990616,67 C110.230549,67 110.470616,67.0357794 110.710954,67.1070608 C110.951021,67.1786195 111.165975,67.2920596 111.355409,67.447797 C111.545114,67.6035344 111.699848,67.8048974 111.820017,68.0513313 C111.939781,68.2981813 112,68.5966202 112,68.947064 C112,69.3170616 111.925738,69.6271495 111.777215,69.8769118 C111.628692,70.1268127 111.409148,70.3457881 111.118447,70.5339765 C110.985857,70.6250892 110.851511,70.7060781 110.715679,70.7774982 C110.579713,70.8489183 110.454954,70.923528 110.341266,71.0013274 C110.227578,71.0792654 110.135764,71.1667723 110.066363,71.2641255 C109.996827,71.3616174 109.962127,71.4783858 109.962127,71.614708 L108.710886,71.614708 Z" id="Fill-163" fill="#FFFFFF"></path>
                <path d="M105.284878,92 L113.715122,92 C114.424701,92 115,91.424834 115,90.7151224 L115,82.2848776 C115,81.5752986 114.424701,81 113.715122,81 L105.284878,81 C104.575166,81 104,81.5752986 104,82.2848776 L104,90.7151224 C104,91.424834 104.575166,92 105.284878,92" id="Fill-165" fill="#FFC355"></path>
                <path d="M108.739376,90 L109.98103,90 L109.98103,88.5395344 L108.739376,88.5395344 L108.739376,90 Z M108.710886,87.614522 C108.710886,87.4654383 108.720473,87.3225953 108.739376,87.1862704 C108.758278,87.0499455 108.794464,86.9186132 108.848338,86.791996 C108.901941,86.6653789 108.979443,86.5470827 109.080574,86.4365527 C109.18157,86.3263001 109.314295,86.2257553 109.478751,86.1349183 C109.560709,86.0894304 109.669806,86.0293809 109.805772,85.954631 C109.941603,85.8801585 110.074194,85.7941753 110.203814,85.6966815 C110.3333,85.5993264 110.445502,85.4874096 110.540287,85.3609312 C110.635072,85.2341753 110.682464,85.0929965 110.682464,84.9372561 C110.682464,84.7231303 110.606582,84.5561565 110.454954,84.4359188 C110.303325,84.3158197 110.129418,84.2557702 109.933637,84.2557702 C109.807122,84.2557702 109.695055,84.2801783 109.597165,84.3288559 C109.499139,84.3775334 109.4107,84.4359188 109.331713,84.5040119 C109.252591,84.5722437 109.18481,84.6485191 109.127966,84.732838 C109.070987,84.8172957 109.020354,84.8920456 108.976338,84.9568103 L108,84.2557702 C108.164321,83.8599703 108.424911,83.551679 108.782042,83.3308965 C109.138903,83.1103913 109.541806,83 109.990616,83 C110.230549,83 110.470616,83.0356414 110.710954,83.1070629 C110.951021,83.1784844 111.165975,83.2920654 111.355409,83.4478058 C111.545114,83.6035463 111.699848,83.8047746 111.820017,84.0513522 C111.939781,84.2980684 112,84.5965131 112,84.9471025 C112,85.3169688 111.925738,85.6270629 111.777215,85.8768301 C111.628692,86.126736 111.409148,86.3458544 111.118447,86.5340466 C110.985857,86.6250223 110.851511,86.7060129 110.715679,86.7774344 C110.579713,86.8488559 110.454954,86.9234671 110.341266,87.0014066 C110.227578,87.0792075 110.135764,87.1667162 110.066363,87.26421 C109.996827,87.3615651 109.962127,87.4783358 109.962127,87.614522 L108.710886,87.614522 Z" id="Fill-166" fill="#FFFFFF"></path>
                <polygon id="Fill-167" fill="#FFDC7D" points="194 94 207 94 207 93 194 93"></polygon>
                <polygon id="Fill-168" fill="#FFDC7D" points="194 97 207 97 207 94 194 94"></polygon>
            </g>
        </g>
    </g>
</svg>