<?xml version="1.0" encoding="UTF-8"?>
<svg width="270px" height="270px" viewBox="0 0 270 270" version="1.1" xmlns="http://www.w3.org/2000/svg" xmlns:xlink="http://www.w3.org/1999/xlink">
    <!-- Generator: Sketch 52.6 (67491) - http://www.bohemiancoding.com/sketch -->
    <title>Artboard</title>
    <desc>Created with Sketch.</desc>
    <defs>
        <path d="M54.285976,5.18472821 L53.8501418,18.801028 C48.1475991,21.3640602 42.838924,24.6531919 38.0581915,28.5860058 L25.5083826,23.0368782 L7.67151782,47.8691207 L17.0745637,57.7944598 C14.8877624,63.5633067 13.4896048,69.6085572 12.9158805,75.7759941 L0.0657657293,80.6486885 L5.17750696,110.69895 L18.9279946,111.131011 C21.5132054,116.773892 24.8343747,122.03132 28.8070245,126.769232 L23.2047654,139.199839 L48.274952,156.872219 L58.2951421,147.557991 C61.036047,148.57471 63.8577964,149.425335 66.6897196,150.087733 L67.4293115,150.260665 L73.918863,116.308181 L73.2791913,116.12877 C69.3922914,115.037912 65.7293946,113.292034 62.3926014,110.940083 C46.4295148,99.6850915 42.683775,77.6647525 54.0427155,61.8532389 C65.4029277,46.0395659 87.6344693,42.3293505 103.599736,53.5825429 C114.801711,61.4775027 120.436126,75.2390224 117.953742,88.6417211 L117.830386,89.308437 L151.677572,97.5677962 L151.83363,96.8413368 C152.406809,94.175373 152.824476,91.4532647 153.07682,88.7428532 L165.922393,83.8742977 L160.810652,53.8234964 L147.064343,53.3916156 C144.480949,47.7526929 141.160143,42.4945449 137.185313,37.7497952 L142.787754,25.3188281 L117.717567,7.65094715 L107.69774,16.9648151 C101.873113,14.7985733 95.768709,13.4138557 89.5398587,12.8453927 L84.6245063,0.11750755 L54.285976,5.18472821 Z M38.6442695,29.9772016 C43.5267391,25.9065458 48.9818428,22.5261793 54.8580652,19.9303961 L55.274097,19.7466669 L55.7012109,6.40839029 L83.6923407,1.73328135 L88.5075911,14.2013182 L88.9615926,14.2398276 C95.3648493,14.7825577 101.637119,16.2056047 107.604178,18.4691996 L108.029476,18.6306151 L117.844557,9.50731451 L140.975563,25.8082929 L135.487758,37.9848103 L135.780615,38.329775 C139.895152,43.1763766 143.308066,48.5797445 145.924161,54.3899799 L146.10965,54.8020661 L159.575455,55.2251293 L164.291512,82.9509727 L151.70773,87.7203756 L151.669034,88.1700714 C151.448664,90.7233863 151.077506,93.2912771 150.56446,95.8136406 L119.50069,88.2334139 C121.779055,74.4952877 115.916458,60.4964136 104.442518,52.4094469 C87.8241362,40.6966614 64.6835015,44.558215 52.858569,61.0186294 C41.03509,77.4768844 44.9339803,100.397695 61.5500007,112.112999 C64.8395589,114.431839 68.4343281,116.184375 72.2447436,117.328319 L66.2849515,148.509208 C63.6168976,147.85347 60.9641043,147.028397 58.3877955,146.053247 L57.9628617,145.892551 L48.1477807,155.015672 L25.0167747,138.710554 L30.5045797,126.533857 L30.2115406,126.188712 C26.0991842,121.349489 22.6864515,115.94756 20.0683578,110.132646 L19.8826877,109.72056 L6.4128853,109.297677 L1.69701016,81.5716536 L14.2846071,76.7982918 L14.3233035,76.3489558 C14.8714118,70.0084068 16.3082658,63.7972421 18.5933524,57.8867743 L18.7561316,57.4655106 L9.54529608,47.7435154 L26.002534,24.8318825 L38.2958202,30.2676414 L38.6442695,29.9772016 Z" id="path-1"></path>
        <linearGradient x1="30.3457657%" y1="1.79301719%" x2="57.5107321%" y2="71.7428726%" id="linearGradient-3">
            <stop stop-color="#3FD4E6" offset="0%"></stop>
            <stop stop-color="#5477FF" offset="100%"></stop>
        </linearGradient>
        <path d="M107.664091,9.35256138 C105.148562,8.40115714 102.595606,7.60348426 100.019101,6.95593824 L93.8619951,39.6738631 C97.3242945,40.7753942 100.678517,42.4143543 103.799424,44.6073239 C115.714736,52.9755 120.996272,67.1180636 118.521088,80.4362812 L151.13279,88.367233 C151.737985,85.5600589 152.164086,82.7292753 152.41091,79.8956082 L165.184814,75.0690204 L162.720219,60.6025937 L160.248687,46.1359867 L146.574932,45.708855 C143.957898,39.9142824 140.512394,34.430056 136.275847,29.4533414 L141.848022,17.1332062 L117.628357,0.119849179 L107.664091,9.35256138 Z M37.6327202,21.0019016 L25.1527422,15.5009144 L16.5372488,27.4539326 L7.92212064,39.4069509 L17.2744365,49.2470191 C14.9177362,55.3218406 13.4840722,61.6138324 12.9365671,67.9326776 L0.155543319,72.7623292 L2.62689298,87.2289362 L5.09532164,101.695543 L18.7690764,102.122495 C21.3893971,107.917067 24.8279633,113.39805 29.0716305,118.374764 L23.4992729,130.69508 L35.6073709,139.206714 L47.7187551,147.7115 L57.6832033,138.478788 C60.5638583,139.563739 63.4921621,140.454948 66.4540574,141.142684 L72.7091991,108.527848 C68.8107578,107.439653 65.0337205,105.677419 61.5444019,103.22727 C45.1490042,91.7049876 41.3148249,69.2441701 52.9831297,53.0587637 C55.8133974,49.1302337 59.2992473,45.9325134 63.1878303,43.5092171 L46.545608,14.7165781 C43.4349241,16.5624357 40.4525818,18.6586249 37.6327202,21.0019016 Z" id="path-4"></path>
        <linearGradient x1="21.4235912%" y1="-10.7696986%" x2="63.2178324%" y2="78.1053184%" id="linearGradient-6">
            <stop stop-color="#3FD4E6" offset="0%"></stop>
            <stop stop-color="#5477FF" offset="100%"></stop>
        </linearGradient>
        <path d="M27.708377,1.05335608 L21.8261789,2.0442524 L21.6521195,7.532612 C19.2957483,8.58362809 17.0671766,9.96512295 15.0439841,11.6675566 L10.0338827,9.43106494 L6.57537556,14.2912269 L3.11668841,19.1512088 L6.87129446,23.1518739 C5.92593797,25.6214648 5.35084011,28.1794352 5.12980093,30.7501857 L0.00161999398,32.7125384 L0.99269631,38.5949165 L1.98359263,44.4772947 L7.47195222,44.651354 C8.52296832,47.0077253 9.90446318,49.235937 11.6068969,51.2594894 L9.37040517,56.2694108 L14.2303871,59.728098 L19.090549,63.1866051 L23.0912142,59.4319991 C25.560625,60.3775355 28.1185955,60.9526334 30.6893459,61.1736726 L32.6518786,66.3018535 L38.5342567,65.3107772 L44.4166349,64.3197009 L44.5906942,58.8315213 C46.9468855,57.7805052 49.1754572,56.3990103 51.1986497,54.6965767 L56.208751,56.9330684 L59.6672582,52.0729064 L63.1259453,47.2127445 L59.3713393,43.2122594 C60.3166958,40.7428485 60.8917936,38.184698 61.1128328,35.6141276 L66.2410138,33.6514149 L65.2501174,27.7690368 L64.2590411,21.8868386 L58.7706815,21.7127793 C57.7198454,19.356588 56.3381706,17.1278363 54.6359169,15.1046438 L56.8724086,10.0947225 L52.0122466,6.63621533 L47.1520847,3.17752819 L43.1515996,6.93213423 C40.6821888,5.98659774 38.1238583,5.41149988 35.5532878,5.1906407 L33.5907551,0.0622797685 L27.708377,1.05335608 Z M24.6410084,45.0986523 C18.0596929,40.4150698 16.5210586,31.2833437 21.2044612,24.7018482 C25.8880438,18.1203526 35.0201298,16.5818984 41.6016253,21.2653009 C48.1829409,25.9488835 49.7213952,35.0809696 45.0379926,41.6624651 C42.1851832,45.6712302 37.6808799,47.8090823 33.1087169,47.8092623 C30.1749078,47.8094423 27.2135588,46.9294255 24.6410084,45.0986523 Z" id="path-7"></path>
        <linearGradient x1="9.02178815e-06%" y1="49.9999889%" x2="100.000005%" y2="49.9999889%" id="linearGradient-9">
            <stop stop-color="#3FD4E6" offset="0%"></stop>
            <stop stop-color="#5477FF" offset="100%"></stop>
        </linearGradient>
        <polygon id="path-10" points="0 266.509259 268.889888 266.509259 268.889888 0.112490019 0 0.112490019"></polygon>
        <path d="M27.6835032,7.52930243 L14.6972963,3.3415603 L0.146477418,28.9654271 L10.4864349,37.8025636 C9.76078873,40.5074556 9.19419076,43.2665321 8.79939404,46.0601062 L41.875416,51.3961992 C43.1175591,40.8379813 49.0520808,31.2400939 58.1045309,25.3796752 L36.2491528,0.0312464154 C33.1713052,2.30501014 30.3111696,4.81754704 27.6835032,7.52930243" id="path-12"></path>
        <linearGradient x1="-1.67833415%" y1="-18.8965077%" x2="50.3301801%" y2="58.8193767%" id="linearGradient-14">
            <stop stop-color="#3FD4E6" offset="0%"></stop>
            <stop stop-color="#5477FF" offset="100%"></stop>
        </linearGradient>
    </defs>
    <g id="Artboard" stroke="none" stroke-width="1" fill="none" fill-rule="evenodd">
        <g id="Group-7">
            <path d="M156.916667,253.225309 C218.818582,253.225309 269,203.043891 269,141.141975 C269,79.2400596 218.818582,29.058642 156.916667,29.058642 C95.014751,29.058642 44.8333333,79.2400596 44.8333333,141.141975 C44.8333333,203.043891 95.014751,253.225309 156.916667,253.225309 Z" id="Oval-Copy-7" stroke="#4A90E2" opacity="0.410202753" stroke-dasharray="9" fill-rule="nonzero"></path>
            <g id="Group-210">
                <g id="Group-3" transform="translate(68.080247, 48.984568)">
                    <mask id="mask-2" fill="white">
                        <use xlink:href="#path-1"></use>
                    </mask>
                    <g id="Clip-2"></g>
                    <path d="M54.285976,5.18472821 L53.8501418,18.801028 C48.1475991,21.3640602 42.838924,24.6531919 38.0581915,28.5860058 L25.5083826,23.0368782 L7.67151782,47.8691207 L17.0745637,57.7944598 C14.8877624,63.5633067 13.4896048,69.6085572 12.9158805,75.7759941 L0.0657657293,80.6486885 L5.17750696,110.69895 L18.9279946,111.131011 C21.5132054,116.773892 24.8343747,122.03132 28.8070245,126.769232 L23.2047654,139.199839 L48.274952,156.872219 L58.2951421,147.557991 C61.036047,148.57471 63.8577964,149.425335 66.6897196,150.087733 L67.4293115,150.260665 L73.918863,116.308181 L73.2791913,116.12877 C69.3922914,115.037912 65.7293946,113.292034 62.3926014,110.940083 C46.4295148,99.6850915 42.683775,77.6647525 54.0427155,61.8532389 C65.4029277,46.0395659 87.6344693,42.3293505 103.599736,53.5825429 C114.801711,61.4775027 120.436126,75.2390224 117.953742,88.6417211 L117.830386,89.308437 L151.677572,97.5677962 L151.83363,96.8413368 C152.406809,94.175373 152.824476,91.4532647 153.07682,88.7428532 L165.922393,83.8742977 L160.810652,53.8234964 L147.064343,53.3916156 C144.480949,47.7526929 141.160143,42.4945449 137.185313,37.7497952 L142.787754,25.3188281 L117.717567,7.65094715 L107.69774,16.9648151 C101.873113,14.7985733 95.768709,13.4138557 89.5398587,12.8453927 L84.6245063,0.11750755 L54.285976,5.18472821 Z M38.6442695,29.9772016 C43.5267391,25.9065458 48.9818428,22.5261793 54.8580652,19.9303961 L55.274097,19.7466669 L55.7012109,6.40839029 L83.6923407,1.73328135 L88.5075911,14.2013182 L88.9615926,14.2398276 C95.3648493,14.7825577 101.637119,16.2056047 107.604178,18.4691996 L108.029476,18.6306151 L117.844557,9.50731451 L140.975563,25.8082929 L135.487758,37.9848103 L135.780615,38.329775 C139.895152,43.1763766 143.308066,48.5797445 145.924161,54.3899799 L146.10965,54.8020661 L159.575455,55.2251293 L164.291512,82.9509727 L151.70773,87.7203756 L151.669034,88.1700714 C151.448664,90.7233863 151.077506,93.2912771 150.56446,95.8136406 L119.50069,88.2334139 C121.779055,74.4952877 115.916458,60.4964136 104.442518,52.4094469 C87.8241362,40.6966614 64.6835015,44.558215 52.858569,61.0186294 C41.03509,77.4768844 44.9339803,100.397695 61.5500007,112.112999 C64.8395589,114.431839 68.4343281,116.184375 72.2447436,117.328319 L66.2849515,148.509208 C63.6168976,147.85347 60.9641043,147.028397 58.3877955,146.053247 L57.9628617,145.892551 L48.1477807,155.015672 L25.0167747,138.710554 L30.5045797,126.533857 L30.2115406,126.188712 C26.0991842,121.349489 22.6864515,115.94756 20.0683578,110.132646 L19.8826877,109.72056 L6.4128853,109.297677 L1.69701016,81.5716536 L14.2846071,76.7982918 L14.3233035,76.3489558 C14.8714118,70.0084068 16.3082658,63.7972421 18.5933524,57.8867743 L18.7561316,57.4655106 L9.54529608,47.7435154 L26.002534,24.8318825 L38.2958202,30.2676414 L38.6442695,29.9772016 Z" id="Fill-1" fill="url(#linearGradient-3)" mask="url(#mask-2)"></path>
                </g>
                <g id="Group-10" transform="translate(151.104938, 145.293210)" fill="#48B1F0">
                    <path d="M0.151810648,23.1554731 L0.151810648,21.7485523 C14.894283,21.7485523 27.9668564,13.2277118 33.4560128,0.0406424269 L34.8104681,0.564368724 C29.0980018,14.2880026 15.49379,23.1554731 0.151810648,23.1554731" id="Fill-4"></path>
                    <path d="M0.151810648,33.2309787 L0.151810648,31.8240578 C11.0250362,31.8240578 21.2677395,28.3929296 29.7728577,21.9019242 L30.679051,23.005126 C21.9132221,29.694859 11.3572646,33.2309787 0.151810648,33.2309787" id="Fill-6"></path>
                    <path d="M34.975743,35.5713037 L34.1585817,34.4054939 C43.7153001,28.1819794 51.2153409,19.5309987 55.8475634,9.38780267 L57.183592,9.95479178 C52.4402618,20.3408576 44.7608797,29.1991831 34.975743,35.5713037" id="Fill-8"></path>
                </g>
                <g id="Group-13" transform="translate(68.910494, 58.117284)">
                    <mask id="mask-5" fill="white">
                        <use xlink:href="#path-4"></use>
                    </mask>
                    <g id="Clip-12"></g>
                    <path d="M107.664091,9.35256138 C105.148562,8.40115714 102.595606,7.60348426 100.019101,6.95593824 L93.8619951,39.6738631 C97.3242945,40.7753942 100.678517,42.4143543 103.799424,44.6073239 C115.714736,52.9755 120.996272,67.1180636 118.521088,80.4362812 L151.13279,88.367233 C151.737985,85.5600589 152.164086,82.7292753 152.41091,79.8956082 L165.184814,75.0690204 L162.720219,60.6025937 L160.248687,46.1359867 L146.574932,45.708855 C143.957898,39.9142824 140.512394,34.430056 136.275847,29.4533414 L141.848022,17.1332062 L117.628357,0.119849179 L107.664091,9.35256138 Z M37.6327202,21.0019016 L25.1527422,15.5009144 L16.5372488,27.4539326 L7.92212064,39.4069509 L17.2744365,49.2470191 C14.9177362,55.3218406 13.4840722,61.6138324 12.9365671,67.9326776 L0.155543319,72.7623292 L2.62689298,87.2289362 L5.09532164,101.695543 L18.7690764,102.122495 C21.3893971,107.917067 24.8279633,113.39805 29.0716305,118.374764 L23.4992729,130.69508 L35.6073709,139.206714 L47.7187551,147.7115 L57.6832033,138.478788 C60.5638583,139.563739 63.4921621,140.454948 66.4540574,141.142684 L72.7091991,108.527848 C68.8107578,107.439653 65.0337205,105.677419 61.5444019,103.22727 C45.1490042,91.7049876 41.3148249,69.2441701 52.9831297,53.0587637 C55.8133974,49.1302337 59.2992473,45.9325134 63.1878303,43.5092171 L46.545608,14.7165781 C43.4349241,16.5624357 40.4525818,18.6586249 37.6327202,21.0019016 Z" id="Fill-11" fill="url(#linearGradient-6)" mask="url(#mask-5)"></path>
                </g>
                <g id="Group-16" transform="translate(199.259259, 41.512346)">
                    <mask id="mask-8" fill="white">
                        <use xlink:href="#path-7"></use>
                    </mask>
                    <g id="Clip-15"></g>
                    <path d="M27.708377,1.05335608 L21.8261789,2.0442524 L21.6521195,7.532612 C19.2957483,8.58362809 17.0671766,9.96512295 15.0439841,11.6675566 L10.0338827,9.43106494 L6.57537556,14.2912269 L3.11668841,19.1512088 L6.87129446,23.1518739 C5.92593797,25.6214648 5.35084011,28.1794352 5.12980093,30.7501857 L0.00161999398,32.7125384 L0.99269631,38.5949165 L1.98359263,44.4772947 L7.47195222,44.651354 C8.52296832,47.0077253 9.90446318,49.235937 11.6068969,51.2594894 L9.37040517,56.2694108 L14.2303871,59.728098 L19.090549,63.1866051 L23.0912142,59.4319991 C25.560625,60.3775355 28.1185955,60.9526334 30.6893459,61.1736726 L32.6518786,66.3018535 L38.5342567,65.3107772 L44.4166349,64.3197009 L44.5906942,58.8315213 C46.9468855,57.7805052 49.1754572,56.3990103 51.1986497,54.6965767 L56.208751,56.9330684 L59.6672582,52.0729064 L63.1259453,47.2127445 L59.3713393,43.2122594 C60.3166958,40.7428485 60.8917936,38.184698 61.1128328,35.6141276 L66.2410138,33.6514149 L65.2501174,27.7690368 L64.2590411,21.8868386 L58.7706815,21.7127793 C57.7198454,19.356588 56.3381706,17.1278363 54.6359169,15.1046438 L56.8724086,10.0947225 L52.0122466,6.63621533 L47.1520847,3.17752819 L43.1515996,6.93213423 C40.6821888,5.98659774 38.1238583,5.41149988 35.5532878,5.1906407 L33.5907551,0.0622797685 L27.708377,1.05335608 Z M24.6410084,45.0986523 C18.0596929,40.4150698 16.5210586,31.2833437 21.2044612,24.7018482 C25.8880438,18.1203526 35.0201298,16.5818984 41.6016253,21.2653009 C48.1829409,25.9488835 49.7213952,35.0809696 45.0379926,41.6624651 C42.1851832,45.6712302 37.6808799,47.8090823 33.1087169,47.8092623 C30.1749078,47.8094423 27.2135588,46.9294255 24.6410084,45.0986523 Z" id="Fill-14" fill="url(#linearGradient-9)" mask="url(#mask-8)"></path>
                </g>
                <g id="Group-181">
                    <path d="M186.709278,13.0360946 C181.330188,11.4879575 175.684282,14.5699673 174.123791,19.9066527 C173.173009,23.1576684 173.924316,26.6439562 176.133647,29.2328517 L176.217368,29.3308968 L176.235932,29.4578318 C176.501292,31.2585749 176.745176,33.9247509 176.400645,36.4009758 L176.394639,36.4347408 C176.198076,37.3342999 176.433769,38.2752076 177.058403,39.0837634 C177.699962,39.9141673 178.670401,40.5049656 179.789717,40.7449323 C182.073851,41.2360604 184.267166,40.1014099 184.679038,38.2158027 L184.682678,38.1990105 L184.687592,38.1827599 C185.241244,36.3397653 186.209135,34.3248759 187.565055,32.1940657 L187.641678,32.0738116 L187.773994,32.0191013 C190.636533,30.8376853 192.772698,28.4696169 193.634481,25.521945 C195.195154,20.1856207 192.08855,14.5842317 186.709278,13.0360946 M179.191292,41.5204453 C178.033573,41.1873087 177.032012,40.5257302 176.339856,39.6297824 C175.55506,38.6135804 175.259306,37.4182611 175.506284,36.2619432 C175.825152,33.9507518 175.607477,31.4487065 175.358679,29.7131462 C173.018307,26.9048681 172.231327,23.1555017 173.254546,19.656394 C174.954087,13.8442893 181.103049,10.4876449 186.961534,12.1737313 C192.820019,13.8598176 196.203631,19.960099 194.503908,25.7722037 C193.578606,28.9365498 191.30521,31.4873467 188.255209,32.7920865 C186.986832,34.8031842 186.080277,36.6972777 185.559749,38.4234488 C185.033033,40.7824891 182.363236,42.2168723 179.598068,41.6224627 C179.460656,41.5930312 179.324882,41.558905 179.191292,41.5204453" id="Fill-17" fill="#FFD255"></path>
                    <polygon id="Fill-19" fill="#FFD255" points="177.958388 37.4398924 179.014186 25.4388505 181.047702 27.9696051 182.928154 26.6074466 183.91388 28.4573026 186.621171 27.0030576 182.745241 38.4367743 181.88728 38.1505838 185.030467 28.8785533 183.540775 29.6788033 182.616929 27.9448681 180.880805 29.2023007 179.7189 27.756181 178.860029 37.5178951"></polygon>
                    <polygon id="Fill-21" fill="#FFD255" points="182.989234 44.441069 175.32055 42.7925395 175.990138 39.7265997 183.658822 41.3753097"></polygon>
                    <polygon id="Fill-23" fill="#FFD255" points="184.498145 43.4436635 174.363143 41.2650045 175.441145 36.3295275 185.576147 38.5083671"></polygon>
                    <polygon id="Fill-25" fill="#FFD078" points="38.6517691 118.955018 38.104851 118.768678 42.6902272 105.52537 52.9358876 102.710592 56.460734 88.1923377 64.3509153 84.62895 65.9960378 73.3523221 66.5686183 73.4344777 64.8781771 85.0213108 56.9568733 88.5986018 53.4185587 103.173553 43.1383179 105.99772"></polygon>
                    <path d="M54.3599859,101.960069 C54.9067221,102.608105 54.8202708,103.573208 54.1668811,104.115616 C53.5138553,104.657843 52.5410509,104.572076 51.9943147,103.92404 C51.4477606,103.276003 51.5342119,102.3109 52.1874196,101.768673 C52.8406273,101.226265 53.8134318,101.312032 54.3599859,101.960069" id="Fill-27" fill="#FFFFFF"></path>
                    <path d="M52.3729714,101.988634 C51.8429795,102.428482 51.7727265,103.214107 52.216085,103.739903 C52.6596256,104.265518 53.4515194,104.335396 53.9813293,103.895547 C54.5113212,103.455699 54.5815742,102.669893 54.1382156,102.144278 C53.694857,101.618482 52.9029633,101.548604 52.3729714,101.988634 M54.3524328,104.335576 C53.5781933,104.978557 52.4206561,104.87654 51.7727265,104.108068 C51.1244328,103.339778 51.2274463,102.191585 52.0016859,101.548604 C52.7762894,100.905443 53.9336446,101.007641 54.5817562,101.775932 C55.2298679,102.544403 55.1270363,103.692596 54.3524328,104.335576" id="Fill-29" fill="#FFD078"></path>
                    <path d="M57.9342825,87.500497 C58.4808366,88.1485334 58.3943853,89.1136363 57.7411776,89.6558635 C57.0879699,90.1982712 56.1153474,90.1125044 55.5686113,89.4642874 C55.0220572,88.8164316 55.1085085,87.8513286 55.7615342,87.3089209 C56.4149239,86.7666937 57.3875463,86.8524605 57.9342825,87.500497" id="Fill-31" fill="#FFFFFF"></path>
                    <path d="M55.9471769,87.5289716 C55.4173671,87.9688202 55.346932,88.7546252 55.7904726,89.2802407 C56.2338312,89.8060368 57.025725,89.8757336 57.5557168,89.435885 C58.0855267,88.9958558 58.1559618,88.2102313 57.7124212,87.6846158 C57.2690626,87.1588198 56.4771688,87.0889424 55.9471769,87.5289716 M57.9268204,89.8759142 C57.1523988,90.5188949 55.9950436,90.4168774 55.34675,89.6485869 C54.6988204,88.8801157 54.8014699,87.731923 55.5760734,87.0889424 C56.3504949,86.4459617 57.5078501,86.5479791 58.1561438,87.3164503 C58.8040734,88.0847409 58.7014239,89.2329335 57.9268204,89.8759142" id="Fill-33" fill="#FFD078"></path>
                    <path d="M65.7013026,83.8396239 C66.2478567,84.4876603 66.1615874,85.4527633 65.5081977,85.9949905 C64.85499,86.5372177 63.8823675,86.4516313 63.3356314,85.8034144 C62.7888953,85.155378 62.8755286,84.190275 63.5287363,83.6480478 C64.181944,83.1056401 65.1545664,83.1915875 65.7013026,83.8396239" id="Fill-35" fill="#FFFFFF"></path>
                    <path d="M63.714288,83.8680985 C63.1842961,84.3079471 63.1140431,85.0937522 63.5575837,85.6193677 C64.0009423,86.1451638 64.7928361,86.2148606 65.3226459,85.775012 C65.8526378,85.3349828 65.9230729,84.5493583 65.4795323,84.0237428 C65.0361737,83.4979468 64.2442799,83.4280694 63.714288,83.8680985 M65.6939315,86.2150412 C64.9193279,86.8580219 63.7619727,86.7560044 63.1138611,85.9875333 C62.4657495,85.2192427 62.568581,84.07105 63.3431845,83.4280694 C64.117606,82.7850887 65.2749612,82.8871061 65.9230729,83.6553967 C66.5711845,84.4238678 66.468353,85.5720605 65.6939315,86.2150412" id="Fill-37" fill="#FFD078"></path>
                    <path d="M44.1560952,104.908842 C44.7028313,105.556878 44.61638,106.521981 43.9629903,107.064209 C43.3099646,107.606436 42.3371601,107.520849 41.790606,106.872632 C41.2438699,106.224596 41.3303212,105.259674 41.9835289,104.717266 C42.6367366,104.174858 43.6095411,104.260806 44.1560952,104.908842" id="Fill-39" fill="#FFFFFF"></path>
                    <path d="M42.1691717,104.937299 C41.6391798,105.377328 41.5687447,106.162772 42.0122853,106.688568 C42.4556439,107.214364 43.2475377,107.284061 43.7775296,106.844212 C44.3075214,106.404363 44.3777745,105.618558 43.9344159,105.092943 C43.4908753,104.567147 42.6989815,104.49745 42.1691717,104.937299 M44.1486331,107.284241 C43.3742116,107.927222 42.2168564,107.825204 41.5687447,107.056733 C40.9206331,106.288443 41.0234646,105.14025 41.7980681,104.497269 C42.5724896,103.854289 43.7298449,103.956306 44.3779565,104.724597 C45.0260681,105.493068 44.9232366,106.641261 44.1486331,107.284241" id="Fill-41" fill="#FFD078"></path>
                    <polygon id="Fill-43" fill="#D6D6D6" points="268.889797 132.851038 251.024412 122.938555 257.165001 122.536624"></polygon>
                    <polygon id="Fill-45" fill="#E8E8E8" points="268.889797 132.851038 263.39186 124.078261 258.779001 123.956382"></polygon>
                    <polygon id="Fill-47" fill="#C2C2C2" points="255.132631 125.217895 254.774996 127.451625 268.889852 132.850966"></polygon>
                    <path d="M90.5249429,105.428048 C89.9385302,105.344086 89.3522995,105.265181 88.7664327,105.191692 C87.3122311,105.009144 85.8876959,104.916516 84.5326858,104.916516 L84.4475085,103.472202 L84.4900972,103.472021 C85.9179084,103.472021 87.37302,103.566455 88.8572521,103.752795 C89.4473049,103.826825 90.0377217,103.906272 90.6285024,103.990956 L90.5249429,105.428048 Z M102.658699,107.796116 C100.562392,107.293793 98.5252359,106.847264 96.6036513,106.468445 L96.7454314,105.037853 C98.6768441,105.418478 100.724375,105.867535 102.830146,106.372025 L102.658699,107.796116 Z M72.6548252,107.956455 L72.2546012,106.626617 C74.0848204,105.531871 76.1019564,104.711759 78.2499524,104.189213 L78.423947,105.612582 C76.3536662,106.116169 74.4126073,106.904863 72.6548252,107.956455 Z M114.710009,111.037923 C112.514328,110.398192 110.545969,109.843145 108.692271,109.341184 L108.885558,107.922509 C110.743806,108.425735 112.716897,108.982227 114.91731,109.623402 L114.710009,111.037923 Z M126.726009,114.644646 L120.718464,112.825124 L120.932863,111.412589 L126.940772,113.232291 L126.726009,114.644646 Z M236.331497,115.216124 C234.607931,115.049646 232.813567,114.95449 231.00264,114.966046 C230.747472,114.966046 230.49012,114.967851 230.230948,114.971101 L230.221484,113.526607 C230.48921,113.523357 230.756572,113.52137 231.018474,113.521551 C232.848693,113.521551 234.659984,113.606957 236.401568,113.77524 L236.331497,115.216124 Z M218.043319,116.249118 L217.907545,114.817263 C219.986926,114.424902 222.052839,114.117947 224.048134,113.904523 L224.125668,115.344864 C222.149846,115.556122 220.10359,115.860368 218.043319,116.249118 Z M248.332937,118.008151 C246.448481,117.269292 244.44809,116.656104 242.387455,116.185921 L242.551076,114.759844 C244.649021,115.238694 246.686723,115.863257 248.607398,116.616381 L248.332937,118.008151 Z M138.768946,118.163254 C136.903419,117.648111 134.931419,117.084939 132.740289,116.441416 L132.949228,115.027256 C135.136354,115.669695 137.10435,116.231784 138.965873,116.746024 L138.768946,118.163254 Z M63.5175613,118.518419 L62.6697927,117.707696 C63.8680985,115.216485 65.2868096,113.016881 66.8866134,111.170455 L67.535453,112.288133 C66.0122724,114.046264 64.6603563,116.142586 63.5175613,118.518419 Z M206.005478,119.371574 L205.775063,117.964094 C207.811309,117.301613 209.843005,116.705037 211.813912,116.190977 L212.000101,117.611457 C210.043936,118.121725 208.026982,118.713787 206.005478,119.371574 Z M150.891601,121.181706 C148.952544,120.761719 146.909199,120.28323 144.817988,119.759782 L144.997079,118.337496 C147.080282,118.859139 149.1158,119.335642 151.047213,119.754004 L150.891601,121.181706 Z M193.889194,122.612117 L193.750326,121.180623 C195.766916,120.792054 197.798066,120.32476 199.787902,119.791199 L199.979186,121.210235 C197.972061,121.74849 195.923074,122.219937 193.889194,122.612117 Z M163.11745,123.31378 C161.129435,123.05973 159.068436,122.746094 156.991603,122.381539 L157.118277,120.948059 C159.183826,121.310808 161.233176,121.622457 163.209726,121.875063 L163.11745,123.31378 Z M181.597641,124.094529 L181.560695,122.650938 C183.607497,122.546573 185.662672,122.371247 187.669069,122.130378 L187.756067,123.569636 C185.733107,123.812492 183.661188,123.989262 181.597641,124.094529 Z M175.429569,124.2072 C173.415163,124.179393 171.341607,124.088029 169.266412,123.935454 L169.319739,122.492946 C171.380555,122.644618 173.439552,122.73526 175.43958,122.762705 L175.429569,124.2072 Z M259.388328,124.869501 C257.814186,123.38763 256.022006,122.030888 254.062019,120.837194 L254.468249,119.510967 C256.484839,120.73933 258.33162,122.137961 259.957086,123.668223 L259.388328,124.869501 Z M59.2468678,134.31469 L58.2374808,134.068945 C58.6065823,131.05266 59.1436723,128.192561 59.8336445,125.568275 L60.7942548,126.070418 C60.1261229,128.611645 59.6054131,131.385616 59.2468678,134.31469 Z M57.9255281,151.585248 C57.913334,151.468967 57.6257697,148.693551 57.6257697,144.46407 C57.6257697,143.932496 57.6303198,143.378713 57.6406939,142.804888 L58.6648231,142.841722 C58.654631,143.402547 58.6500809,143.944414 58.6500809,144.46407 C58.6500809,148.578172 58.9360072,151.345462 58.9389192,151.372908 L57.9255281,151.585248 Z" id="Fill-49" fill="#E0E0E0"></path>
                    <path d="M169.103265,220.818161 L125.047871,220.818161 C123.019451,220.818161 121.375057,219.186965 121.375057,217.174423 L121.375057,165.235813 C121.375057,163.223271 123.019451,161.592075 125.047871,161.592075 L169.103265,161.592075 C171.131685,161.592075 172.776079,163.223271 172.776079,165.235813 L172.776079,217.174423 C172.776079,219.186965 171.131685,220.818161 169.103265,220.818161" id="Fill-51" fill="#F5F5F5"></path>
                    <path d="M143.527352,199.745855 C139.560239,201.153515 135.284268,199.883082 132.706928,196.87763 C132.092668,196.161161 131.574689,195.346285 131.180835,194.445101 C131.093838,194.246303 131.012664,194.04299 130.937861,193.836066 C130.18801,191.756175 130.192378,189.590877 130.809913,187.634129 C131.700817,184.8096 133.869743,182.419322 136.894628,181.346244 C137.892913,180.991981 138.911036,180.807628 139.916419,180.777113 C144.068628,180.652886 148.009533,183.165223 149.484119,187.25549 C151.315612,192.336681 148.648727,197.9285 143.527352,199.745855 M152.579257,186.157675 C150.612536,180.702179 145.357208,177.351674 139.818319,177.516708 C138.477323,177.556612 137.119765,177.802898 135.787687,178.275428 C131.753233,179.706923 128.859936,182.895283 127.671459,186.661803 C126.847714,189.272186 126.842618,192.160272 127.842723,194.934424 C127.942097,195.210322 128.050024,195.481887 128.16596,195.746772 C128.69213,196.948411 129.382466,198.035393 130.202388,198.990745 C133.639509,202.99976 139.343292,204.694152 144.634475,202.817212 C151.4654,200.393169 155.022279,192.934521 152.579257,186.157675" id="Fill-53" fill="#4AAFFF"></path>
                    <path d="M130.809822,187.634111 L127.671368,186.661785 C128.860027,182.895265 131.753142,179.707085 135.787596,178.27541 C137.119856,177.80288 138.477232,177.556594 139.818228,177.51669 L139.916328,180.777095 C138.910945,180.80761 137.893004,180.991963 136.894537,181.346225 C133.869652,182.419304 131.700908,184.809582 130.809822,187.634111" id="Fill-55" fill="#1A598C"></path>
                    <path d="M131.180762,194.445029 L128.166069,195.74688 C128.050133,195.481815 127.942024,195.21025 127.84265,194.934532 C126.842546,192.16038 126.847642,189.272294 127.671386,186.661912 L130.809841,187.634056 C130.192305,189.590805 130.188119,191.756102 130.93797,193.835994 C131.012592,194.042918 131.093765,194.246231 131.180762,194.445029" id="Fill-57" fill="#2273B5"></path>
                    <path d="M130.202315,198.9908 C129.382393,198.035447 128.692057,196.948465 128.166069,195.746826 L131.180762,194.444975 C131.574616,195.346159 132.092778,196.161215 132.707037,196.877685 L130.202315,198.9908 Z" id="Fill-59" fill="#3788CC"></path>
                    <path d="M165.32689,200.719192 C164.581407,202.282135 162.956305,203.15154 161.316279,203.020272 C160.925337,202.988854 160.533667,202.90074 160.152735,202.751596 C160.06865,202.718733 159.984929,202.682801 159.902118,202.643981 C159.069637,202.253064 158.432446,201.618751 158.036044,200.867072 C157.464009,199.782256 157.393574,198.453682 157.962151,197.261974 C158.149614,196.868891 158.392951,196.519323 158.67815,196.218869 C159.855889,194.977506 161.749445,194.568714 163.386742,195.337366 C165.420622,196.292177 166.289139,198.701594 165.32689,200.719192 M163.968422,194.118032 C161.784754,193.093163 159.259648,193.638098 157.688055,195.29367 C157.307669,195.694517 156.983158,196.160367 156.732905,196.685079 C155.974863,198.274565 156.068595,200.046779 156.83155,201.49326 C157.360268,202.49592 158.210221,203.342213 159.320619,203.863315 C159.431095,203.915317 159.542662,203.963346 159.654776,204.007222 C160.162928,204.206021 160.685275,204.323567 161.206713,204.365096 C163.394204,204.540241 165.562038,203.380673 166.556319,201.296267 C167.83962,198.604993 166.680991,195.391534 163.968422,194.118032" id="Fill-61" fill="#4AAFFF"></path>
                    <path d="M158.036117,200.867126 L156.831441,201.493314 C156.068668,200.046834 155.974936,198.274619 156.732795,196.685133 C156.983231,196.160421 157.307742,195.694571 157.688128,195.293724 L158.67804,196.218923 C158.393024,196.519378 158.149686,196.868765 157.962042,197.262028 C157.393647,198.453736 157.464082,199.78231 158.036117,200.867126" id="Fill-63" fill="#1A598C"></path>
                    <path d="M160.152699,202.751577 L159.65474,204.007204 C159.542626,203.963328 159.431058,203.915298 159.320583,203.863297 C158.210184,203.342195 157.360232,202.495902 156.831514,201.493242 L158.03619,200.867054 C158.432409,201.618733 159.069601,202.253046 159.902081,202.643963 C159.984893,202.682783 160.068614,202.718715 160.152699,202.751577" id="Fill-65" fill="#2273B5"></path>
                    <path d="M159.902263,186.228581 C158.326848,185.489181 157.450687,183.876763 157.582821,182.249721 C157.614489,181.861874 157.703125,181.473305 157.853641,181.095389 C157.886765,181.011969 157.922984,180.928911 157.962296,180.846755 C158.35615,180.020866 158.995708,179.388538 159.753203,178.995455 C160.846675,178.427949 162.185669,178.358072 163.386887,178.921966 C163.783471,179.108125 164.135464,179.349537 164.438499,179.632477 C165.689767,180.800893 166.10164,182.679458 165.327036,184.303792 C164.364788,186.321571 161.935962,187.183031 159.902263,186.228581 M166.5561,184.880868 C167.58933,182.714487 167.039863,180.209372 165.371081,178.650221 C164.967217,178.272846 164.497468,177.950905 163.968568,177.702452 C162.366398,176.950592 160.580223,177.043762 159.122018,177.800497 C158.111357,178.324848 157.258492,179.168072 156.73305,180.26986 C156.680633,180.379281 156.632403,180.490146 156.588176,180.601372 C156.387791,181.10532 156.269125,181.623713 156.227265,182.141023 C156.05054,184.311195 157.219361,186.461867 159.320583,187.448276 C162.033151,188.721418 165.272617,187.571961 166.5561,184.880868" id="Fill-67" fill="#4AAFFF"></path>
                    <path d="M159.75324,178.995509 L159.122054,177.800551 C160.580078,177.043636 162.366252,176.950646 163.968604,177.702506 C164.497504,177.950959 164.967071,178.272901 165.371117,178.650275 L164.438535,179.632351 C164.135501,179.349591 163.783325,179.10818 163.386924,178.92202 C162.185706,178.358126 160.846712,178.427823 159.75324,178.995509" id="Fill-69" fill="#4AAFFF"></path>
                    <path d="M157.853677,181.095425 L156.58803,180.601408 C156.632257,180.490001 156.68067,180.379317 156.733087,180.269896 C157.258346,179.168108 158.111393,178.324884 159.122054,177.800533 L159.75324,178.995491 C158.995744,179.388574 158.356187,180.020902 157.962333,180.846791 C157.92302,180.928947 157.886802,181.012006 157.853677,181.095425" id="Fill-71" fill="#2273B5"></path>
                    <path d="M156.227283,182.141059 C156.269144,181.623749 156.387627,181.105356 156.588012,180.601408 L157.853659,181.095425 C157.703143,181.473341 157.614508,181.86191 157.582839,182.249757 L156.227283,182.141059 Z" id="Fill-73" fill="#3788CC"></path>
                    <polygon id="Fill-75" fill="#E2F3FE" points="159.975046 207.918029 149.828941 207.918029 149.828941 207.718147 159.773387 207.718147 159.773387 203.914973 159.975046 203.914973"></polygon>
                    <polygon id="Fill-77" fill="#E2F3FE" points="140.867965 207.918029 127.671495 207.918029 127.671495 207.718147 140.666306 207.718147 140.666306 201.493278 140.867965 201.493278"></polygon>
                    <mask id="mask-11" fill="white">
                        <use xlink:href="#path-10"></use>
                    </mask>
                    <g id="Clip-80"></g>
                    <polygon id="Fill-79" fill="#4AAFFF" mask="url(#mask-11)" points="127.67144 206.836103 136.751737 206.836103 136.751737 205.635908 127.67144 205.635908"></polygon>
                    <polygon id="Fill-81" fill="#4AAFFF" mask="url(#mask-11)" points="149.828814 206.836103 155.169501 206.836103 155.169501 205.635908 149.828814 205.635908"></polygon>
                    <polygon id="Fill-82" fill="#4AAFFF" mask="url(#mask-11)" points="125.614446 167.597309 129.960306 167.597309 129.960306 166.676082 125.614446 166.676082"></polygon>
                    <polygon id="Fill-83" fill="#4AAFFF" mask="url(#mask-11)" points="143.731359 171.066443 150.473832 171.066443 150.473832 170.144856 143.731359 170.144856"></polygon>
                    <polygon id="Fill-84" fill="#4AAFFF" mask="url(#mask-11)" points="135.013066 171.066443 139.129057 171.066443 139.129057 170.144856 135.013066 170.144856"></polygon>
                    <polygon id="Fill-85" fill="#4AAFFF" mask="url(#mask-11)" points="125.614264 171.066443 133.769259 171.066443 133.769259 170.144856 125.614264 170.144856"></polygon>
                    <polygon id="Fill-86" fill="#4AAFFF" mask="url(#mask-11)" points="131.283102 167.597309 137.722358 167.597309 137.722358 166.676082 131.283102 166.676082"></polygon>
                    <polygon id="Fill-87" fill="#4AAFFF" mask="url(#mask-11)" points="140.417818 171.066443 142.186338 171.066443 142.186338 170.144856 140.417818 170.144856"></polygon>
                    <polygon id="Fill-88" fill="#4AAFFF" mask="url(#mask-11)" points="145.6635 167.648588 150.473832 167.648588 150.473832 166.727362 145.6635 166.727362"></polygon>
                    <polygon id="Fill-89" fill="#4AAFFF" mask="url(#mask-11)" points="152.189389 171.066443 156.291366 171.066443 156.291366 170.144856 152.189389 170.144856"></polygon>
                    <polygon id="Fill-90" fill="#4AAFFF" mask="url(#mask-11)" points="139.305781 167.648588 144.404951 167.648588 144.404951 166.727362 139.305781 166.727362"></polygon>
                    <path d="M151.118503,226.380657 L143.032669,226.380657 C141.678751,226.380657 140.581275,225.291869 140.581275,223.94885 L140.581275,215.926849 C140.581275,214.58383 141.678751,213.495042 143.032669,213.495042 L151.118503,213.495042 C152.472421,213.495042 153.569716,214.58383 153.569716,215.926849 L153.569716,223.94885 C153.569716,225.291869 152.472421,226.380657 151.118503,226.380657" id="Fill-91" fill="#FFFFFF" mask="url(#mask-11)"></path>
                    <polygon id="Fill-92" fill="#C5CCD1" mask="url(#mask-11)" points="146.461218 222.501286 147.6901 222.501286 147.6901 217.374413 146.461218 217.374413"></polygon>
                    <polygon id="Fill-93" fill="#C5CCD1" mask="url(#mask-11)" points="144.491585 220.547426 149.659369 220.547426 149.659369 219.328273 144.491585 219.328273"></polygon>
                    <path d="M172.438155,200.093924 C172.440157,200.093202 172.442341,200.092841 172.445071,200.093382 C172.41595,200.106022 172.411764,200.107105 172.438155,200.093924" id="Fill-94" fill="#323657" mask="url(#mask-11)"></path>
                    <g id="Group" mask="url(#mask-11)">
                        <g transform="translate(0.000000, 176.000000)">
                            <path d="M75.9092702,24.496288 C75.9092702,24.496288 70.5223541,40.0878019 70.1783689,41.8480992 C69.8023514,43.7730688 65.5888067,57.6319115 65.5888067,57.6319115 C65.5888067,57.6319115 56.7465692,49.0420436 53.9850422,46.8626623 C51.2233331,44.683281 72.0997715,24.0385638 75.9092702,24.496288" id="Fill-95" fill="#EDB14F"></path>
                            <path d="M78.710492,84.9323183 C78.710492,84.9323183 80.4966666,84.2131405 81.2299555,83.905102 C81.9632444,83.5970636 82.073174,82.9210401 82.3814866,83.3717224 C82.6897992,83.8225853 84.221534,85.2069528 85.0472802,85.3826395 C85.8730265,85.5583261 91.2377383,86.3656181 91.3431179,87.5719517 C91.4484974,88.7781047 88.9483263,89.2020638 85.4178378,89.384973 C81.8908073,89.5678821 81.803082,90.4717746 79.449605,89.8753789 C78.7163161,89.6895808 78.710492,84.9323183 78.710492,84.9323183" id="Fill-96" fill="#EDDAD3"></path>
                            <path d="M26.6838354,65.287408 C26.6838354,65.287408 27.5674585,66.9205897 27.9442041,67.5920992 C28.3209497,68.2636086 28.9916297,68.2988182 28.5843076,68.6415245 C28.1771676,68.9844114 26.9870519,70.5984536 26.9018746,71.4093568 C26.8165154,72.2200794 26.589012,77.4524001 25.4238306,77.6793663 C24.2586493,77.9063325 23.5846933,75.5512646 23.0381392,72.1825225 C22.4919491,68.8168501 21.6014098,68.826781 21.9375688,66.5062003 C22.0424024,65.7830502 26.6838354,65.287408 26.6838354,65.287408" id="Fill-97" fill="#EDDAD3"></path>
                            <path d="M85.8980883,28.0724595 C85.8980883,28.0724595 86.755685,26.5198083 86.8941891,26.286703 C87.0325112,26.0535977 87.7190254,25.7276836 88.5402216,25.4214507 C89.3612358,25.1152178 90.6086823,25.0662856 90.7313522,25.1540386 C90.854022,25.2419723 91.0190984,25.2742928 91.1472283,25.6379443 C91.2755403,26.0014153 91.1825369,26.3784284 91.1825369,26.3784284 C91.1825369,26.3784284 91.5527304,26.7530942 91.4025781,27.2093739 C91.4025781,27.2093739 91.7347331,27.5775395 91.4790193,28.0683066 C91.4790193,28.0683066 91.79352,28.4362916 91.5771187,28.7768312 C91.5771187,28.7768312 90.8895125,29.104912 90.6703813,29.299016 C90.451432,29.4931199 88.974116,30.0777791 87.4705917,30.4224717 C87.4705917,30.4224717 85.8260152,30.8675566 85.8980883,28.0724595" id="Fill-98" fill="#EEA886"></path>
                            <path d="M88.3560894,27.458477 C88.3560894,27.458477 88.2670901,28.3434106 88.1154819,28.5794049 C87.9636916,28.8153992 89.8246693,29.5970513 89.8246693,29.5970513 C89.8246693,29.5970513 89.4375495,27.5946207 88.3560894,27.458477" id="Fill-99" fill="#CF8C6C"></path>
                            <path d="M57.1868884,38.8042421 C55.7257706,39.8966411 53.7639635,44.1739703 52.3947571,47.5161697 C52.3647267,47.5762968 49.1046942,54.1216631 47.8654378,55.9577963 C46.0042781,58.7155172 43.6853816,58.4694114 39.6918782,59.9749359 C36.44768,61.1978812 26.1852754,64.8759256 26.1852754,64.8759256 L28.5878931,69.6187432 C28.5878931,69.6187432 44.1214601,66.0856899 49.093228,64.0408272 C51.6137835,63.0040412 59.9413173,56.0359796 59.9424093,56.0350768 C60.9801888,55.1909503 61.9176847,54.371019 62.7170406,53.6410075 L62.7175866,53.640827 C63.3533221,53.0605012 63.9016962,52.5375942 64.3443268,52.1053292 C65.1374946,51.3298161 65.5888613,50.8455493 65.5888613,50.8455493 C65.5888613,50.8455493 58.4135866,37.8864463 57.1868884,38.8042421" id="Fill-100" fill="#292C47"></path>
                            <path d="M69.8156376,18.3034326 L74.217009,29.339191 C74.217009,29.339191 74.4361403,30.8685497 77.649398,29.8353749 C80.9292688,28.7807133 86.187873,27.39129 86.187873,27.39129 C86.187873,27.39129 88.0470306,31.265244 87.6591829,31.4898629 C86.5371362,32.1391633 77.4892357,35.4840711 73.7174116,36.504426 C70.7247411,37.3140653 64.5854258,21.3854424 64.5854258,21.3854424 L69.8156376,18.3034326 Z" id="Fill-101" fill="#FFBF55"></path>
                            <path d="M77.6035334,61.7364791 C77.6696003,59.8927622 75.5787532,54.6900537 74.0027918,51.5345552 C71.5315591,46.4927272 69.0197397,41.2459616 69.0197397,41.2459616 C69.0197397,41.2459616 54.6750144,41.2387391 54.6997668,42.7623198 C54.7470875,45.6516702 61.7682059,52.1517155 62.8795144,53.4281071 L63.3503554,53.9367497 C63.3503554,53.9367497 66.0072309,56.4691294 67.088327,58.4126969 C68.6661085,61.2489621 69.4505401,63.2160027 70.4857715,66.921312 C71.4128933,70.2393161 77.7928162,85.8591783 77.7928162,85.8591783 L83.7355685,83.827316 C83.7355685,83.827316 77.5010658,64.5985646 77.6035334,61.7364791" id="Fill-102" fill="#292C47"></path>
                            <path d="M53.9849512,41.8498145 C53.9849512,41.8498145 63.7766968,31.489899 62.9332962,24.7921386 C62.8648632,24.250092 62.8310107,23.7145456 62.8302827,23.1878467 C62.8280986,22.4986422 62.8816074,21.8238827 62.984075,21.1682627 C63.5981521,17.2457375 65.9832976,14.0021248 68.9510337,12.3962079 C68.9510337,12.3962079 68.9228233,11.5403448 73.0446386,15.4688285 C73.2721419,15.6855027 75.5691981,19.694517 75.8816968,24.0541824 C76.2642664,29.388701 74.7239775,30.4594327 72.8262353,34.5161153 C71.4391927,37.4809405 69.443351,40.0629747 69.0196487,41.2458352 C69.0196487,41.2458352 67.9188963,42.9913264 53.9849512,41.8498145" id="Fill-103" fill="#443C7D"></path>
                            <path d="M73.3028458,12.0569503 C73.3028458,12.0569503 73.2531591,12.2743467 73.18236,12.6116362 C73.1299432,12.8602699 73.0662423,13.1733641 73.0018133,13.5126397 C72.8280007,14.4326023 72.6525501,15.5441409 72.7005988,16.0684924 C72.7906902,17.0484015 69.0523546,12.5634262 69.0523546,12.5634262 C69.0523546,12.5634262 69.7388688,9.45812388 69.9408918,5.90900057 C70.1425508,2.35987726 73.3028458,12.0569503 73.3028458,12.0569503" id="Fill-104" fill="#EEA886"></path>
                            <path d="M73.1876745,12.5862853 C73.1354397,12.8347384 73.0660967,13.1732918 73.0018497,13.5127481 C71.7356569,12.328443 70.7761386,10.9227692 70.4894844,10.4834623 C71.0418626,11.2194323 73.1876745,12.5862853 73.1876745,12.5862853" id="Fill-105" fill="#A77860"></path>
                            <path d="M71.9483089,28.3702782 C71.9180964,28.4672399 71.8742338,28.5558957 71.8360132,28.6431071 C71.7004212,28.953854 71.3451519,29.3507289 71.0024408,29.9352075 C68.0889415,34.9046302 64.9750572,41.6984495 63.7361647,46.4517397 C62.3238237,51.868414 61.5768846,56.1513406 61.5768846,56.1513406 L50.639978,46.2460798 C50.639978,46.2460798 54.4376465,38.1726187 58.4198657,33.3601043 C62.8294273,28.0306414 61.5768846,15.911512 61.5768846,15.911512 L67.8692642,13.0156614 L68.8069422,11.9980149 L72.2469753,14.5562149 L74.1285193,15.7667014 C74.1285193,15.7667014 73.2130457,24.3186513 71.9483089,28.3702782" id="Fill-106" fill="#FFBF55"></path>
                            <polygon id="Fill-107" fill="#DEDEDE" points="0.119357375 25.4800611 -3.64005403e-05 23.5438966 114.74357 16.5835992 114.862964 18.5197637"></polygon>
                            <polygon id="Fill-108" fill="#DEDEDE" points="1.2645184 44.0604691 1.14512463 42.1243046 115.888731 35.1641878 116.008125 37.1001717"></polygon>
                            <polygon id="Fill-109" fill="#DEDEDE" points="103.51049 17.5535051 105.62245 17.4254868 106.828582 36.9969445 104.716622 37.1251434"></polygon>
                            <polygon id="Fill-110" fill="#DEDEDE" points="88.0454108 18.4917405 90.1573702 18.3635416 91.3636842 37.9349994 89.2517248 38.0631983"></polygon>
                            <polygon id="Fill-111" fill="#DEDEDE" points="72.5804225 19.4298314 74.6923819 19.3016325 75.8986958 38.8730903 73.7867364 39.0012892"></polygon>
                            <polygon id="Fill-112" fill="#DEDEDE" points="57.1154341 20.3679043 59.2272115 20.2397054 60.4335254 39.8111631 58.321566 39.939362"></polygon>
                            <polygon id="Fill-113" fill="#DEDEDE" points="41.6503729 21.3059772 43.7623323 21.1777783 44.9684643 40.749236 42.8565049 40.8774349"></polygon>
                            <polygon id="Fill-114" fill="#DEDEDE" points="26.1852936 22.24405 28.297253 22.1158511 29.5033849 41.6874894 27.3916075 41.8155078"></polygon>
                            <polygon id="Fill-115" fill="#DEDEDE" points="10.7203052 23.1821229 12.8322646 23.053924 14.0383965 42.6255623 11.9264371 42.7535807"></polygon>
                            <path d="M57.9308972,42.0259707 C57.9308972,42.0259707 57.5910982,41.7341827 57.5053749,41.5346619 C57.5053749,41.5346619 57.377245,41.1598156 57.2700454,40.8989037 C57.2356469,40.8160258 57.2039784,40.7447039 57.178498,40.7008274 C57.0725725,40.5173766 56.7848262,40.1455998 56.6554223,39.633707 C56.5258363,39.1225364 56.5394865,36.7743299 56.5394865,36.7743299 L57.8209676,36.4211509 L58.9732267,35.9208141 C58.9732267,35.9208141 61.281385,38.1982404 61.4577457,38.6608398 C61.4746719,38.7061609 61.4897781,38.7514819 61.5005163,38.7951778 C61.611538,39.201442 61.5218106,39.5497457 61.5558451,39.7693089 C61.5674933,39.8500201 61.6313763,40.6609232 61.4553796,40.8297485 C61.211496,41.0646595 60.9463181,41.12912 60.7189967,41.079285 C60.7189967,41.079285 60.2208553,41.5180502 59.7725826,41.5357453 C59.7725826,41.5357453 59.326312,41.955371 58.7622856,41.819769 C58.7622856,41.819769 58.2612321,42.1951571 57.9308972,42.0259707" id="Fill-116" fill="#EEA886"></path>
                            <path d="M68.5074021,19.3950913 C68.5074021,19.3950913 71.0024772,19.2370997 69.7621288,15.4862889 C68.0882499,10.4247797 63.1141159,15.5500272 52.6061896,19.8170643 C52.6061896,19.8170643 49.6621139,20.9975776 50.5051504,24.1185888 C51.3483689,27.2396 55.0776044,37.151361 55.32167,38.148604 L59.5323026,35.8514964 C59.5323026,35.8514964 57.6150861,30.9317283 57.1025665,28.3561943 C56.5902289,25.7804798 56.2274975,23.3871328 56.2274975,23.3871328 L68.5074021,19.3950913 Z" id="Fill-117" fill="#FFBF55"></path>
                            <path d="M90.5129307,25.2262995 C90.5129307,25.2262995 88.4510221,26.052731 88.5440254,26.3986874 C88.6372108,26.7446439 88.8829145,26.8157853 88.8829145,26.8157853 L88.1896662,27.537852 C88.1896662,27.537852 88.0029314,28.2729192 88.8647142,28.2602799 C88.8647142,28.2602799 88.6184645,28.9289003 89.4489429,28.8180354 C89.4489429,28.8180354 89.4849794,29.3310115 89.8788333,29.3470815 C90.2726871,29.3631515 91.5771005,28.7768673 91.5771005,28.7768673 C91.5771005,28.7768673 91.8612068,28.505844 91.543612,28.0436057 C91.543612,28.0436057 91.8029659,27.6088128 91.4533387,27.2056183 C91.4533387,27.2056183 91.6135011,26.7997153 91.2320234,26.3676308 C91.2320234,26.3676308 91.471903,25.4615715 90.731334,25.1540748 C90.731334,25.1540748 90.599564,25.1907288 90.5129307,25.2262995" id="Fill-118" fill="#DB9C7C"></path>
                            <path d="M86.95607,26.2537866 C86.95607,26.2537866 88.4761566,26.3892079 89.2733285,26.8247231 C89.4536932,26.9233098 89.6102155,27.0513282 89.5860091,27.2544602 C89.5618028,27.4577728 89.2343799,27.6811278 88.5729821,27.6558492 C87.9114022,27.63039 87.0447053,27.8981631 87.0447053,27.8981631 C87.0447053,27.8981631 86.3725694,27.6746276 86.95607,26.2537866" id="Fill-119" fill="#EEA886"></path>
                            <path d="M77.0244735,4.136714 C77.0244735,4.136714 78.1836488,6.28070515 77.6057902,6.61239723 C77.1282151,6.88649009 78.1587144,8.99039652 78.2933964,9.33400568 C78.4280784,9.6777954 77.4283376,9.92480398 77.2155764,10.14527 C77.0029972,10.365736 76.3672618,13.0833721 75.5442455,13.1633609 C74.7212293,13.2435304 71.0165642,11.9557634 70.0093612,10.9119355 C69.0023403,9.86810757 68.1851481,5.16230518 68.8636542,3.1797363 C69.5423423,1.19716742 74.9785811,0.391139421 77.0244735,4.136714" id="Fill-120" fill="#EEA886"></path>
                            <path d="M77.2685028,4.57667095 C77.2685028,4.57667095 77.7091313,3.01986686 75.5545833,1.29929319 C73.3998532,-0.421641595 70.1152504,1.64922202 69.7037423,1.96556634 C69.3377348,2.2472428 67.1484243,4.04997209 67.9838167,6.68382749 C69.3797775,11.0848415 69.3655813,10.9019324 69.3655813,10.9019324 C69.3655813,10.9019324 69.9696482,8.24640956 70.7784683,8.06151424 C71.6562673,7.86109061 72.8567572,7.72205801 72.8567572,7.72205801 C72.8567572,7.72205801 72.0999899,5.71439103 73.2908336,5.43325626 C74.4813133,5.15194094 76.0656469,4.13032211 77.2685028,4.57667095" id="Fill-121" fill="#202338"></path>
                            <path d="M72.3431455,7.86629079 C72.2843587,7.63137986 72.0149947,6.58014889 71.1852443,6.73597375 C70.355312,6.89161804 70.6315921,8.18534355 71.2726056,8.94153648 C71.9134371,9.69754886 72.6711144,9.17680855 72.3431455,7.86629079" id="Fill-122" fill="#EEA886"></path>
                            <path d="M69.5305485,2.10680181 C69.5305485,2.10680181 66.6536317,2.68965539 67.1241087,4.84809149 C67.5945857,7.00652759 68.8693327,9.42984789 69.0522454,9.93614326 C69.2351581,10.4427998 69.5305485,2.10680181 69.5305485,2.10680181" id="Fill-123" fill="#202338"></path>
                        </g>
                    </g>
                    <path d="M216.548786,73.5313852 C216.548786,73.5313852 215.509732,74.4349166 214.576604,75.8234371 C213.643476,77.211777 211.166784,77.2856268 211.060676,79.1809843 C210.95475,81.0763418 214.428272,81.1346633 216.251939,80.5176835 C218.075606,79.9005232 218.35134,78.0492228 219.454095,77.5864428 C220.556849,77.1236628 221.12943,76.748997 221.044617,75.8454656 C220.959621,74.9419342 220.349548,73.4750499 220.349548,73.4750499 C220.349548,73.4750499 219.664308,73.6920853 219.261354,73.7361424 C218.858582,73.7801994 217.503026,73.7959083 216.548786,73.5313852" id="Fill-124" fill="#163F75" mask="url(#mask-11)"></path>
                    <path d="M229.049205,22.1793483 C229.049205,22.1793483 228.350314,26.3030194 227.787016,29.0267946 L227.787016,29.0269751 C227.558421,30.1314718 227.352212,31.0059328 227.224264,31.281109 C227.063191,31.6276072 225.751134,33.0251557 224.145688,34.6651988 C221.328104,37.5426321 217.605785,41.1659663 217.605785,41.1659663 L216.150673,38.4255795 C216.150673,38.4255795 219.456934,34.5803347 221.698297,32.0145512 C222.735895,30.826996 223.545079,29.9138948 223.693229,29.7822653 C224.161886,29.3664314 224.70571,25.2685807 225.470122,21.8920745 C226.234715,18.5155683 227.766814,16.6496423 227.766814,16.6496423 L229.049205,22.1793483 Z" id="Fill-125" fill="#F2C344" mask="url(#mask-11)"></path>
                    <path d="M224.145633,34.665271 C221.328049,37.5427043 217.60573,41.165858 217.60573,41.165858 L216.1508,38.4256517 C216.1508,38.4256517 219.457062,34.5802264 221.698425,32.0144428 C222.385485,32.3486628 223.646764,33.1460238 224.145633,34.665271" id="Fill-126" fill="#EEA886" mask="url(#mask-11)"></path>
                    <path d="M242.213479,72.4022599 C242.213479,72.4022599 243.170267,73.4518658 243.736113,74.0881657 C244.302142,74.7244656 246.469066,75.8620051 246.480896,77.7515846 C246.493636,79.8009614 244.882002,79.6213024 243.448367,79.5465498 C242.014732,79.4716166 240.849732,78.4889991 240.246211,77.3287088 C239.642508,76.1684185 238.036335,75.8634496 237.923129,74.9277782 C237.810105,73.9921068 238.667702,72.3078261 238.667702,72.3078261 L242.213479,72.4022599 Z" id="Fill-127" fill="#163F75" mask="url(#mask-11)"></path>
                    <path d="M238.852653,70.5634002 L238.667556,72.307808 C238.667556,72.307808 241.660045,73.6015335 242.213515,72.4022418 L242.085021,70.8486879 L238.852653,70.5634002 Z" id="Fill-128" fill="#5F8CC9" mask="url(#mask-11)"></path>
                    <path d="M216.711951,72.2686803 L216.548877,73.5313491 C216.548877,73.5313491 218.357256,74.1651211 220.349457,73.4750138 L220.390044,72.3522804 L216.711951,72.2686803 Z" id="Fill-129" fill="#5F8CC9" mask="url(#mask-11)"></path>
                    <path d="M242.382596,40.6086442 C242.486701,40.9755458 223.228813,40.6086442 223.228813,40.6086442 C223.228813,40.6086442 228.556032,36.7617744 228.901291,35.7341971 C229.24655,34.7064391 227.544825,28.5407944 227.322782,26.5345719 C227.145329,24.9291967 226.700332,17.7466277 227.766868,16.6497146 C228.881817,15.5027858 232.896615,14.3007857 232.896615,14.3007857 L238.749822,14.5163766 C238.749822,14.5163766 239.715892,14.7168002 240.40641,15.0347696 C241.096928,15.3529195 245.046023,16.7483013 245.687219,18.7057721 C246.328414,20.6632429 241.746678,26.9565449 241.746678,26.9565449 C241.746678,26.9565449 241.737942,27.2393047 241.72411,27.7028069 L241.72411,27.7029875 C241.706456,28.3210506 241.680247,29.2603333 241.656223,30.2792437 C241.625646,31.5987895 241.598892,33.05159 241.598892,34.1129324 C241.598892,36.6084774 242.278672,40.241562 242.382596,40.6086442" id="Fill-130" fill="#F2C344" mask="url(#mask-11)"></path>
                    <path d="M242.382687,40.6086442 C242.382687,40.6086442 245.00207,44.4253601 245.039016,47.0310479 C245.075963,49.6367356 244.06876,56.8619172 243.994685,58.2930503 C243.920791,59.7243639 242.564325,71.6522783 242.564325,71.6522783 C242.564325,71.6522783 241.51599,72.6186452 238.371711,71.4074364 C238.371711,71.4074364 237.677553,60.0959601 237.60366,58.8849319 C237.529766,57.6737232 237.529766,52.095446 236.826872,51.2881541 C236.123978,50.4806816 231.869846,47.9484825 231.315102,47.4714382 C230.760176,46.9942133 221.093466,49.2835567 220.080621,49.5441074 C217.457962,50.218867 218.653356,54.7464548 219.23358,56.7761503 C220.204383,60.1717961 221.052879,72.4351944 221.052879,72.4351944 C221.052879,72.4351944 219.184622,73.2247913 216.055631,72.5574347 C216.055631,72.5574347 209.911038,50.414596 209.713747,48.2124639 C209.516456,46.0105124 209.41963,42.3795946 224.561528,39.6195265 L242.382687,40.6086442 Z" id="Fill-131" fill="#1B4D8F" mask="url(#mask-11)"></path>
                    <path d="M234.502716,1.68435296 C234.502716,1.68435296 229.421746,0.547355128 230.582377,6.8908533 C231.743009,13.2347126 232.964975,13.7332438 236.030264,12.4203787 C239.095736,11.1075137 238.821276,7.04324748 238.975432,5.05020601 C239.12977,3.05734511 236.123632,1.75350814 234.502716,1.68435296" id="Fill-132" fill="#EEA886" mask="url(#mask-11)"></path>
                    <path d="M233.158316,15.9291645 C233.158316,15.9291645 235.408416,18.295969 238.964749,16.1449359 C238.964749,16.1449359 238.169397,11.0158966 238.588003,8.51764315 C239.006791,6.01938969 233.948026,12.3887082 233.948026,12.3887082 C234.014821,12.4231955 234.058684,12.6615371 234.068694,13.0008128 C234.07743,13.2884478 234.06196,13.648127 234.015549,14.0173759 C233.911261,14.8479603 233.650816,15.7249491 233.158316,15.9291645" id="Fill-133" fill="#EEA886" mask="url(#mask-11)"></path>
                    <path d="M237.227678,6.04957962 C237.294655,5.49001852 238.409604,5.28490028 238.499513,6.1239711 C238.589241,6.96304192 237.992818,8.43570419 237.569479,8.29071304 C237.146505,8.14590246 237.135403,6.82130088 237.227678,6.04957962" id="Fill-134" fill="#EEA886" mask="url(#mask-11)"></path>
                    <path d="M238.72789,8.30535661 C238.72789,8.30535661 238.596848,6.30671772 237.860829,6.24424333 C237.124992,6.1819495 237.011787,6.98689413 237.011787,6.98689413 L236.26867,7.1261073 C236.26867,7.1261073 236.503635,5.37411588 235.76889,5.06806358 C235.033963,4.76201128 231.008245,6.03244431 230.418375,5.51820422 C229.828504,5.00414469 230.106058,1.45050734 231.172776,0.964254334 C232.239494,0.478001329 235.18539,-0.611689307 237.34376,0.837680492 C237.34376,0.837680492 239.026193,0.647368325 239.275718,1.99435957 C239.525244,3.34135081 239.185263,7.30378014 238.72789,8.30535661" id="Fill-135" fill="#3A3F47" mask="url(#mask-11)"></path>
                    <path d="M234.015622,14.0173939 C237.684614,12.8950216 237.960894,10.7033621 237.964899,10.6690554 C236.756765,12.7285436 234.068767,13.0008309 234.068767,13.0008309 C234.077503,13.2882853 234.062032,13.648145 234.015622,14.0173939" id="Fill-136" fill="#A77860" mask="url(#mask-11)"></path>
                    <path d="M240.46658,15.0623233 C240.46658,15.0623233 237.779856,20.3686743 233.439274,20.0261485 C229.098691,19.6836228 232.699433,14.3501875 232.896724,14.3007135 C233.113489,14.246545 237.348146,13.199828 240.46658,15.0623233" id="Fill-137" fill="#EEA886" mask="url(#mask-11)"></path>
                    <path d="M221.025979,40.3398237 C221.025979,40.3398237 234.325463,41.9665053 242.382723,40.6086803 L226.986932,38.7001418 C226.986932,38.7001418 226.895931,39.0897942 221.025979,40.3398237" id="Fill-138" fill="#F2C344" mask="url(#mask-11)"></path>
                    <path d="M230.972937,38.0993042 L229.982296,38.5972938 C229.982296,38.5972938 230.20798,40.1586119 230.75053,40.6316839 L231.862202,40.350188 C231.862202,40.350188 231.630695,38.637559 230.972937,38.0993042" id="Fill-139" fill="#EEA886" mask="url(#mask-11)"></path>
                    <path d="M246.362394,34.9022584 C246.164375,35.1299469 243.549542,36.1730526 240.596002,37.3017446 L240.59582,37.3021057 C236.56082,38.8442843 232.009115,40.3028627 232.009115,40.3028627 L230.972973,38.0994667 C230.972973,38.0994667 235.739442,35.5298913 238.960344,33.7278843 C240.481887,32.8767158 241.65817,32.19672 241.824521,32.0396312 C242.342318,31.5503086 242.476454,30.7655869 242.095887,29.3971088 C241.714955,28.0288113 240.837884,21.73894 240.739239,21.0047756 C240.640775,20.2707918 240.985852,18.3135015 242.835728,18.215637 C244.685421,18.1177725 245.626739,18.6356238 245.626739,18.6356238 C245.626739,18.6356238 246.091028,18.8273805 246.436287,23.2803963 C246.781728,27.7334121 246.831051,34.3641842 246.362394,34.9022584" id="Fill-140" fill="#F2C344" mask="url(#mask-11)"></path>
                    <path d="M241.724092,27.7027889 L241.724092,27.7029694 C241.706437,28.3210326 241.680229,29.2603152 241.656205,30.2792256 C239.85092,25.8894064 240.893977,22.3857847 240.911632,22.3269215 C240.716343,23.5180879 241.710077,27.6442868 241.724092,27.7027889" id="Fill-141" fill="#B59233" mask="url(#mask-11)"></path>
                    <path d="M227.786998,29.0267765 L227.786998,29.0269571 C227.558402,30.1314538 227.352193,31.0059147 227.224245,31.281091 C226.60762,28.3205992 227.162364,24.5304259 227.162364,24.5304259 C227.246632,26.3409193 227.786998,29.0267765 227.786998,29.0267765" id="Fill-142" fill="#B59233" mask="url(#mask-11)"></path>
                    <path d="M240.596075,37.3017626 L240.595893,37.3021238 C236.560711,38.8443023 231.862311,40.350188 231.862311,40.350188 L230.972864,38.0994848 C230.972864,38.0994848 235.739515,35.5299094 238.960417,33.7279024 C238.960417,33.7279024 240.13215,34.2941442 240.596075,37.3017626" id="Fill-143" fill="#EEA886" mask="url(#mask-11)"></path>
                    <polygon id="Fill-144" fill="#5E5853" mask="url(#mask-11)" points="230.686155 40.4808064 211.783354 40.2049079 221.327212 45.0125472"></polygon>
                    <polygon id="Fill-145" fill="#91887F" mask="url(#mask-11)" points="221.327158 45.012493 230.686101 41.4160625 230.686101 40.4807522 220.587317 44.0950584"></polygon>
                    <path d="M230.196313,38.6314561 C230.196313,38.6314561 229.015662,38.4490886 228.199379,38.2605821 C227.56783,38.1146881 225.997511,38.3156534 225.597469,38.7177646 C225.197427,39.1198758 223.92541,41.9216537 223.684984,42.0926457 C223.444195,42.2636378 223.808018,42.6592488 224.23081,42.4606308 C224.23081,42.4606308 224.618658,43.686465 225.57581,43.2276574 C226.533327,42.7686692 227.183076,41.7665511 227.684494,41.5901422 C228.186093,41.4135527 231.105417,40.5232023 231.105417,40.5232023 C231.105417,40.5232023 230.94853,38.3329873 230.196313,38.6314561" id="Fill-146" fill="#EEA886" mask="url(#mask-11)"></path>
                    <path d="M225.88567,38.5340429 C225.88567,38.5340429 225.127265,38.8975139 224.929246,39.0596584 C224.731227,39.2216224 223.928777,39.8174764 223.734216,39.957773 C223.539655,40.0982501 224.027422,40.4969306 225.462332,39.8803119 C226.897241,39.2638739 225.88567,38.5340429 225.88567,38.5340429" id="Fill-147" fill="#EEA886" mask="url(#mask-11)"></path>
                    <polygon id="Fill-148" fill="#6E6760" mask="url(#mask-11)" points="221.327158 45.012493 215.704366 29.7822833 197.578352 30.0760574 202.937058 44.1109478"></polygon>
                    <path d="M209.904613,36.5200924 C210.457719,37.6170055 210.290641,38.8116026 209.531508,39.1884351 C208.772192,39.5652677 207.708568,38.9815113 207.155462,37.8844176 C206.602174,36.7873239 206.769252,35.5927269 207.528386,35.2158943 C208.287701,34.8390618 209.351507,35.4229987 209.904613,36.5200924" id="Fill-149" fill="#807066" mask="url(#mask-11)"></path>
                    <path d="M166.304445,177.279648 C166.304445,177.279648 169.317318,178.741657 168.572381,182.719073 C167.827626,186.69667 167.497837,187.232577 168.331045,188.786673 C169.164254,190.340949 170.147614,196.970818 169.397581,198.227348 C168.64773,199.483878 160.115261,192.705045 158.931879,187.017709 C157.74868,181.330372 159.681913,178.800701 160.365151,177.858349 C161.048389,176.915816 163.644658,175.940421 166.304445,177.279648" id="Fill-150" fill="#0E2D3D" mask="url(#mask-11)"></path>
                    <path d="M167.139182,191.638033 C167.139182,191.638033 168.672191,191.947516 169.53361,193.20549 C170.132763,194.079951 170.181176,196.023699 170.267627,196.389698 C170.354078,196.755697 171.497965,200.897605 171.497965,200.897605 L168.303272,203.021734 L167.139182,191.638033 Z" id="Fill-151" fill="#285173" mask="url(#mask-11)"></path>
                    <path d="M178.941366,262.467997 C178.941366,262.467997 181.026025,265.252079 180.740099,265.693373 C180.454173,266.134846 178.26195,266.197682 176.927506,265.693373 C175.593062,265.189063 175.561212,261.926131 174.957509,260.523887 C174.704889,259.937061 175.245619,258.204571 176.006027,258.0789 C176.766434,257.953229 177.593636,258.322478 177.593636,258.322478 C177.593636,258.322478 176.804836,260.297102 178.941366,262.467997" id="Fill-152" fill="#1D3B54" mask="url(#mask-11)"></path>
                    <path d="M177.607632,258.299907 C177.607632,258.299907 178.046259,259.485476 178.206421,260.617599 C178.339283,261.556521 179.691563,263.550104 179.628044,263.802168 C179.564525,264.054413 177.848786,264.282824 177.149895,263.63262 C176.450823,262.982598 176.001094,261.092115 175.847302,259.961257 C175.703884,258.90804 175.522973,258.38766 175.522973,258.38766 C175.522973,258.38766 176.94041,257.606369 177.607632,258.299907" id="Fill-153" fill="#EEA886" mask="url(#mask-11)"></path>
                    <path d="M160.796188,262.514004 C160.796188,262.514004 162.80568,265.252043 162.519753,265.693336 C162.233827,266.13481 160.041605,266.197646 158.706979,265.693336 C157.372535,265.189208 157.340866,261.926094 156.737163,260.524032 C156.484544,259.937206 157.025274,258.204535 157.785681,258.079044 C158.546088,257.953193 159.437902,258.349165 159.437902,258.349165 C159.437902,258.349165 158.659658,260.34347 160.796188,262.514004" id="Fill-154" fill="#1D3B54" mask="url(#mask-11)"></path>
                    <path d="M159.437847,258.349092 C159.437847,258.349092 159.596735,259.641373 159.850811,260.555739 C160.105069,261.469562 161.471181,263.550176 161.407844,263.80206 C161.344143,264.054485 159.628404,264.282715 158.929513,263.632693 C158.230623,262.98267 157.690439,261.100494 157.62692,259.961329 C157.563401,258.821984 157.785626,258.078972 157.785626,258.078972 C157.785626,258.078972 158.770625,257.655735 159.437847,258.349092" id="Fill-155" fill="#EEA886" mask="url(#mask-11)"></path>
                    <path d="M169.479719,213.021031 C169.479719,213.021031 171.268442,221.277041 171.679222,223.355668 C172.090184,225.434296 173.240441,235.501701 173.363657,237.213428 C173.487055,238.925334 175.230458,245.375364 175.148375,245.986746 C175.06611,246.598129 177.732996,258.879583 177.732996,258.879583 C177.732996,258.879583 176.822254,259.606886 175.862008,258.945308 C175.368053,258.604949 170.010621,247.447491 170.010621,244.39076 C170.010621,240.165252 166.861064,234.649269 166.454652,233.704208 C162.679552,224.921862 163.422669,222.237088 162.929806,221.666512 C162.43676,221.095937 162.39399,222.018969 162.106425,223.28236 C161.818679,224.545932 161.202964,235.4692 160.833134,236.854832 C160.463487,238.240824 160.750687,242.928029 160.545206,245.292125 C160.339725,247.65586 159.437902,258.349092 159.437902,258.349092 C159.437902,258.349092 158.739375,259.434991 157.759291,258.377441 C157.548532,258.149933 156.067576,246.465777 156.026443,243.653346 C155.98531,240.840915 155.941448,236.962627 155.862094,235.746182 C155.100959,224.091999 153.230153,222.427761 156.176595,214.179697 C161.693279,198.736605 169.479719,213.021031 169.479719,213.021031" id="Fill-156" fill="#EEA886" mask="url(#mask-11)"></path>
                    <path d="M157.466303,210.71374 C157.466303,210.71374 152.370045,217.789597 154.564088,232.842315 C154.564088,232.842315 166.651979,234.47333 173.128,230.955443 C173.128,230.955443 170.450012,215.435793 169.479755,213.020959 C168.509317,210.605945 157.466303,210.71374 157.466303,210.71374" id="Fill-157" fill="#1D3B54" mask="url(#mask-11)"></path>
                    <polygon id="Fill-158" fill="#1D3B54" mask="url(#mask-11)" points="174.901762 260.279208 174.901762 263.194018 175.283057 263.194018 175.283057 260.941148"></polygon>
                    <polygon id="Fill-159" fill="#1D3B54" mask="url(#mask-11)" points="156.681416 260.279208 156.681416 263.194018 157.062712 263.194018 157.062712 260.941148"></polygon>
                    <path d="M164.305873,190.60614 C164.305873,190.60614 166.183413,191.485657 166.835347,191.61512 C167.487281,191.744402 170.016754,195.004085 170.459931,196.194168 C170.903472,197.384251 170.459931,199.169285 169.547369,201.264886 C168.634626,203.360306 169.495135,204.058899 169.077984,206.154319 C168.660652,208.24992 168.295555,212.686685 168.373816,213.850948 C168.452077,215.01503 157.826395,215.234593 155.401391,213.113353 C155.401391,213.113353 157.838771,209.491824 158.151634,208.974334 C158.464679,208.456844 158.203869,205.63701 157.91685,204.912596 C157.630196,204.188362 155.720988,198.027954 155.720988,198.027954 C155.720988,198.027954 154.159223,193.297053 155.569926,192.210252 C156.795714,191.265733 160.136009,190.929165 160.735708,190.722241 C161.335589,190.515137 163.080267,190.425037 164.305873,190.60614" id="Fill-160" fill="#EDDAD3" mask="url(#mask-11)"></path>
                    <path d="M164.905663,194.758358 L166.046456,193.433034 L165.055816,189.943677 C165.055816,189.943677 164.723115,191.886883 164.905663,194.758358" id="Fill-161" fill="#D6C5BE" mask="url(#mask-11)"></path>
                    <path d="M165.202291,188.456497 C165.202291,188.456497 165.150785,188.923611 165.089996,189.569119 C165.063787,189.85531 165.034849,190.176891 165.007912,190.508402 C164.931471,191.448768 164.869408,192.467859 164.905809,192.985891 C164.905809,192.985891 162.954558,194.926028 160.735763,190.722548 C160.735763,190.722548 161.669255,188.989516 160.966542,186.628309 C160.263648,184.268005 165.202291,188.456497 165.202291,188.456497" id="Fill-162" fill="#EEA886" mask="url(#mask-11)"></path>
                    <polygon id="Fill-163" fill="#EEA886" mask="url(#mask-11)" points="164.905663 192.986252 164.905663 194.758286 162.660296 193.094048"></polygon>
                    <polygon id="Fill-164" fill="#D6C5BE" mask="url(#mask-11)" points="164.905663 194.758358 163.973263 193.613596 160.833171 190.508835 159.817232 191.479355"></polygon>
                    <path d="M160.397274,190.805571 C160.397274,190.805571 163.032491,194.773417 163.158437,196.51963 C163.284383,198.265663 162.178899,211.328589 161.294002,215.527374 C160.408922,219.72652 154.013347,215.053941 154.013347,215.053941 C154.013347,215.053941 158.311159,208.152868 156.661487,202.627315 C155.011814,197.101581 154.412297,194.892407 154.412297,194.892407 C154.412297,194.892407 154.979782,191.815273 156.991276,191.382105 C158.7547,191.002744 160.397274,190.805571 160.397274,190.805571" id="Fill-165" fill="#285173" mask="url(#mask-11)"></path>
                    <path d="M170.633489,196.724261 C170.633489,196.724261 171.10888,198.392833 169.257184,202.080989 C169.257184,202.080989 169.286487,206.801236 169.338721,208.275885 C169.390774,209.750533 170.44184,215.052912 170.44184,215.052912 L167.911638,216.389611 C167.542901,216.604118 167.086074,216.306733 167.137581,215.885663 C167.656106,211.642099 169.343272,195.545373 165.698849,191.21857 L167.161241,191.646321 C167.161241,191.646321 169.759512,193.755644 170.633489,196.724261" id="Fill-166" fill="#285173" mask="url(#mask-11)"></path>
                    <polygon id="Fill-167" fill="#FAE6DE" mask="url(#mask-11)" points="166.046547 193.43307 167.484005 193.827056 165.055907 189.943713"></polygon>
                    <polygon id="Fill-168" fill="#FAE6DE" mask="url(#mask-11)" points="163.973336 193.613632 162.660369 195.321025 159.963999 190.862773 160.903133 190.327046"></polygon>
                    <polygon id="Fill-169" fill="#EB4747" mask="url(#mask-11)" points="165.8745 200.518533 166.247424 200.225843 169.736052 204.599592 169.363128 204.892463"></polygon>
                    <path d="M165.658554,204.397254 C165.658554,204.397254 165.991801,204.403754 166.210932,204.239804 C166.589316,203.956864 166.725636,203.259715 167.393222,203.310452 C168.060808,203.361371 168.370576,205.438915 168.203316,205.831998 C168.036055,206.225262 167.108933,206.422074 165.738453,206.151051 C164.367973,205.880208 165.658554,204.397254 165.658554,204.397254" id="Fill-170" fill="#EEA886" mask="url(#mask-11)"></path>
                    <path d="M167.164153,203.324825 C167.164153,203.324825 168.123853,203.000175 169.231886,202.762556 C170.203962,202.553826 171.365322,202.485935 171.478345,202.652955 C171.604291,202.839114 170.531567,203.000175 169.579147,203.26849 C168.702258,203.515498 168.911197,203.60614 168.911197,203.60614 C168.911197,203.60614 168.85332,203.57707 169.854517,203.484081 C170.930881,203.384411 172.039642,203.386577 172.149025,203.599821 C172.202352,203.703824 172.165041,203.773882 171.777194,203.871205 C172.010339,203.860913 172.043282,203.92086 172.0522,204.013488 C172.098246,204.494685 170.528109,204.877837 169.904568,205.029329 C170.384145,204.915575 170.74633,204.880907 170.57361,205.20321 C170.376137,205.571737 168.135684,206.017905 167.345428,206.25101 C166.483281,206.505422 167.164153,203.324825 167.164153,203.324825" id="Fill-171" fill="#EEA886" mask="url(#mask-11)"></path>
                    <path d="M157.363034,191.453047 C156.702729,191.241068 154.7644,191.922869 154.436795,193.894604 C154.10919,195.86634 153.978148,198.054749 153.672383,199.116453 C153.366619,200.177976 152.587647,204.882333 153.242675,205.272347 C153.898067,205.66218 155.138597,206.018609 156.879271,206.018609 C158.676548,206.018609 165.64525,206.328995 165.64525,206.328995 L166.082056,203.872993 C166.082056,203.872993 163.435373,203.73721 162.063982,203.531189 C160.843472,203.347558 159.151393,202.832054 157.159555,202.61538 C157.159555,202.61538 157.581802,199.701473 157.887566,198.87793 C158.193331,198.054749 160.333319,192.406594 157.363034,191.453047" id="Fill-172" fill="#285173" mask="url(#mask-11)"></path>
                    <polygon id="Fill-173" fill="#EEA886" mask="url(#mask-11)" points="170.108902 204.062059 170.435779 204.851837 169.736161 204.35475"></polygon>
                    <polygon id="Fill-174" fill="#FFB855" mask="url(#mask-11)" points="166.269956 208.181306 173.289254 206.799828 178.495441 195.748361 171.002936 196.529652"></polygon>
                    <path d="M174.164596,204.924657 C174.164596,204.924657 174.54935,204.570214 174.892243,204.07385 C175.234954,203.577485 176.356637,201.683211 176.253987,201.564221 C176.151338,201.445231 174.486195,201.404965 174.184252,201.674544 C173.882492,201.943942 174.481463,202.049571 174.481463,202.049571 C174.481463,202.049571 173.570903,202.142741 173.635878,202.397694 C173.700853,202.652467 174.249227,202.582048 174.249227,202.582048 C174.249227,202.582048 173.516484,202.721622 173.627324,202.945338 C173.738528,203.169416 174.091067,203.167068 174.091067,203.167068 C174.091067,203.167068 173.441499,203.247779 173.521762,203.49208 C173.602208,203.736921 174.629431,203.967499 174.492201,204.170631 C174.354789,204.373763 174.164596,204.924657 174.164596,204.924657" id="Fill-175" fill="#EEA886" mask="url(#mask-11)"></path>
                    <path d="M165.867566,177.720634 C165.867566,177.720634 170.242183,179.084598 167.867412,186.574122 C165.49264,194.063827 159.518219,185.706162 160.143035,181.143003 C160.768032,176.579845 165.867566,177.720634 165.867566,177.720634" id="Fill-176" fill="#EEA987" mask="url(#mask-11)"></path>
                    <path d="M168.314465,182.090826 C168.314465,182.090826 166.140806,184.207192 162.502936,184.471353 C162.502936,184.471353 161.105156,186.097674 160.997592,186.736141 C160.997592,186.736141 157.751938,181.247603 161.741619,177.957405 C165.7313,174.667388 169.781043,180.734988 168.314465,182.090826" id="Fill-177" fill="#0E2D3D" mask="url(#mask-11)"></path>
                    <path d="M162.546726,184.620624 C162.518516,184.075327 162.180173,182.834867 161.363527,183.182268 C160.546881,183.529489 161.413577,186.055549 161.955217,185.900085 C161.955217,185.900085 162.613339,185.910197 162.546726,184.620624" id="Fill-178" fill="#EEA987" mask="url(#mask-11)"></path>
                    <path d="M165.09005,189.569156 C165.06366,189.855346 165.034903,190.176927 165.007967,190.508438 L165.007239,190.508438 C162.478129,189.269604 162.090646,187.482944 162.079362,187.427692 C163.881188,189.73762 165.09005,189.569156 165.09005,189.569156" id="Fill-179" fill="#A77860" mask="url(#mask-11)"></path>
                    <path d="M216.709949,197.593739 C216.709949,197.593739 222.228817,206.622011 224.162232,206.150202 C225.056047,205.932084 228.018505,203.666936 229.137094,202.227858 C229.506013,201.754064 229.867653,201.256616 230.21182,200.764404 C230.21273,200.763321 230.21273,200.762238 230.21273,200.762238 C231.585394,198.79628 232.66103,196.911937 232.66103,196.911937 C232.66103,196.911937 237.982607,191.572363 234.726943,189.469901 C234.726943,189.469901 232.121392,189.830302 231.036474,190.984092 C229.950464,192.137702 228.836243,194.374141 228.551591,194.989676 C228.267121,195.604308 224.510767,200.043782 224.304558,200.172161 C224.097803,200.300541 222.679092,199.53857 221.744508,198.503048 C220.368021,196.978203 218.871777,194.919437 218.871777,194.919437 L216.709949,197.593739 Z" id="Fill-180" fill="#F2C344" mask="url(#mask-11)"></path>
                </g>
                <g id="Group-184" transform="translate(182.654321, 156.916667)">
                    <mask id="mask-13" fill="white">
                        <use xlink:href="#path-12"></use>
                    </mask>
                    <g id="Clip-183"></g>
                    <path d="M27.6835032,7.52930243 L14.6972963,3.3415603 L0.146477418,28.9654271 L10.4864349,37.8025636 C9.76078873,40.5074556 9.19419076,43.2665321 8.79939404,46.0601062 L41.875416,51.3961992 C43.1175591,40.8379813 49.0520808,31.2400939 58.1045309,25.3796752 L36.2491528,0.0312464154 C33.1713052,2.30501014 30.3111696,4.81754704 27.6835032,7.52930243" id="Fill-182" fill="url(#linearGradient-14)" mask="url(#mask-13)"></path>
                </g>
                <g id="Group-209" transform="translate(216.000000, 174.000000)">
                    <path d="M6.51785562,86.1850451 C6.51785562,86.1850451 4.64559378,87.7024867 3.07090636,88.0410401 C1.49603694,88.3795936 0.669926658,89.1783991 0.658278484,90.1057646 C0.646266306,91.0331302 5.18978187,91.6439709 6.99179066,90.7092023 C9.68124465,89.3141816 9.95461272,89.7345295 10.2527332,89.0373803 C10.5508536,88.3400505 10.311156,86.4945281 10.3306303,86.2726176 C10.3544727,85.9987053 6.51785562,86.1850451 6.51785562,86.1850451" id="Fill-185" fill="#8A7272"></path>
                    <path d="M6.64618572,85.6805734 C6.64618572,85.6805734 6.44143268,86.4374886 6.47200913,86.4537392 C6.50222158,86.4696286 10.0203339,86.8607255 9.91404432,86.2533155 C9.82759303,85.7605623 9.7045592,85.225377 9.7045592,85.225377 L6.64618572,85.6805734 Z" id="Fill-187" fill="#2E2626"></path>
                    <path d="M28.8974362,87.4010207 C28.8974362,87.4010207 27.7322549,89.1508454 26.2538469,89.5025798 C24.7958232,89.8494391 24.2578232,90.4003332 24.1862961,91.2733497 C24.1149511,92.1463661 27.6234173,93.2896836 30.0886439,91.7563525 C31.708468,90.748637 32.312535,90.8058751 32.6388658,90.1657834 C32.9651967,89.5255112 32.717673,87.7222402 32.7504335,87.5142329 C32.7908381,87.257474 28.8974362,87.4010207 28.8974362,87.4010207" id="Fill-189" fill="#8A7272"></path>
                    <path d="M29.289379,86.7634027 C29.289379,86.7634027 29.2165779,87.5004561 29.2442424,87.5172483 C29.2717248,87.5340406 32.5201091,88.1042548 32.5004528,87.5232069 C32.4851645,87.0616908 32.2947897,86.4878653 32.2947897,86.4878653 L29.289379,86.7634027 Z" id="Fill-191" fill="#2F6B8C"></path>
                    <path d="M15.8765986,42.3176932 C15.8765986,42.3176932 11.4624869,53.180654 10.1935641,56.8693516 C8.52350724,61.7230341 7.60439357,65.9990993 7.39418045,68.3259996 C7.12991252,71.2525457 6.09468112,85.0631783 5.90958437,85.9190414 C5.72448762,86.7747239 10.864244,86.4878112 10.864244,86.4878112 C10.864244,86.4878112 13.755721,69.0724422 14.5430647,65.9555839 C15.2759896,63.0534137 22.2173909,49.8877479 22.8864328,50.6800532 C23.5552928,51.4727196 25.7779098,64.9491323 26.2733212,67.237934 C26.7689145,69.5267358 28.0969883,87.5448201 28.0969883,87.5448201 C28.0969883,87.5448201 32.6077434,88.2623728 33.5159369,87.5448201 C33.5159369,87.5448201 32.8043063,71.478248 32.4885316,67.186835 C32.3682278,65.5516671 33.5314071,47.6086965 30.7438537,40.3728618 C29.2707237,36.5489234 15.8765986,42.3176932 15.8765986,42.3176932" id="Fill-193" fill="#323657"></path>
                    <path d="M14.6489721,45.2710347 C14.6489721,45.2710347 24.0388558,48.0962857 32.3103327,47.0298875 C32.3103327,47.0298875 30.5004978,36.1701769 30.8341088,33.4736665 C31.0690743,31.5367798 31.859512,27.2285746 32.5081697,23.8210117 C32.7798997,22.3990873 33.0208713,21.1306405 33.1941379,20.2601519 C33.3422881,19.4942086 33.4347455,19.0283591 33.4347455,19.0283591 C33.4347455,19.0283591 33.0787482,17.3928301 32.3436392,16.7738641 C31.6085303,16.1550787 25.2218733,15.04029 25.2218733,15.04029 L20.6412292,15.0386649 C20.6412292,15.0386649 16.8235405,15.817067 16.323215,16.252221 C15.785579,16.7178899 14.7168591,21.406539 14.6553422,22.6688467 C14.5996494,23.931335 14.9268903,29.1407243 15.4643442,31.1079455 C16.0019802,33.0751666 14.9887712,42.5501485 14.6489721,45.2710347" id="Fill-195" fill="#F2C344"></path>
                    <polygon id="Fill-197" fill="#C6CAD9" points="15.5607693 26.9124108 17.4672476 26.9124108 17.4672476 24.0246855 15.5607693 24.0246855"></polygon>
                    <path d="M19.8021058,15.2203643 C19.8021058,15.2203643 18.9042864,16.5456881 20.155737,16.7713904 C21.4071876,16.9970927 23.8283696,16.7213748 25.2217823,15.0403442 C25.2217823,15.0403442 21.5626179,14.7133467 19.8021058,15.2203643" id="Fill-199" fill="#EEA886"></path>
                    <path d="M24.594783,28.4297441 C24.594783,28.4297441 31.0626132,24.7831174 32.5080787,23.821084 C32.7799907,22.3991596 33.0209623,21.1305321 33.1940469,20.2602241 C33.1940469,20.2602241 28.7893994,22.0315357 24.594783,28.4297441" id="Fill-200" fill="#BF9A36"></path>
                    <path d="M10.539351,22.7429493 C10.539351,22.7429493 10.2607049,22.4823986 10.2364985,22.1779713 C10.1944559,21.6525364 10.74192,20.9925829 10.1480452,20.5005519 C9.55380636,20.0087015 7.33646739,21.4049861 7.10150189,21.8493488 C6.8667184,22.2937114 7.43911691,23.1883953 8.81596739,24.0664675 C10.1929999,24.9445397 10.539351,22.7429493 10.539351,22.7429493" id="Fill-201" fill="#EEA886"></path>
                    <path d="M10.321785,20.6943489 C10.321785,20.6943489 9.84366387,19.6725495 9.16224574,18.6012762 C8.56436685,17.6614519 7.65690135,16.6158183 7.42830595,16.7241554 C6.89849608,16.9747753 7.83981407,17.775567 8.36525589,18.7469896 C8.84901908,19.6413124 8.62697578,19.5243083 8.62697578,19.5243083 C8.62697578,19.5243083 8.70196089,19.5476008 7.97067402,18.6758483 C7.18478633,17.7390935 6.27604682,16.857049 5.98466049,16.9384823 C5.84306238,16.9782059 5.80702585,17.0634311 6.03216319,17.4494723 C5.85143451,17.2555489 5.76789526,17.2764941 5.67270785,17.3431214 C5.18020853,17.6869111 6.10241624,19.2411873 6.46896969,19.8585282 C6.18431746,19.3859979 5.92077754,19.0700147 5.75733911,19.4625561 C5.57042233,19.9116134 6.98130731,22.0503683 7.40719364,22.8647021 C7.87166455,23.7530663 10.321785,20.6943489 10.321785,20.6943489" id="Fill-202" fill="#EEA886"></path>
                    <path d="M32.4365516,16.8394261 C31.7309271,16.266684 29.3485117,16.1780281 27.5566951,17.9681181 C26.2932323,19.2304259 25.1542593,20.5949316 24.6761382,21.1673126 C23.7754068,22.2452667 21.8287059,25.1561039 21.1926064,25.0645591 C20.556507,24.9728337 15.9667627,23.408446 15.6289657,23.3533747 C15.2915327,23.2983033 10.4478947,21.4132378 10.4478947,21.4132378 L8.86447111,24.3693961 C8.86447111,24.3693961 18.3979549,28.8966228 19.2686558,29.1873273 C20.1395388,29.4778513 21.97358,30.564653 23.9384813,28.9607222 C25.806739,27.4358776 29.3858223,24.658295 30.377373,23.818863 C30.7442905,23.5086578 35.5795564,19.3913064 32.4365516,16.8394261" id="Fill-203" fill="#F2C344"></path>
                    <path d="M19.7859257,15.9181094 C19.7859257,15.9181094 20.9576591,16.7916675 24.8772694,15.0783163 C24.8772694,15.0783163 24.4925157,12.9809101 25.2616591,10.4904208 C26.0302566,8.00047319 20.2016199,13.0663159 20.2016199,13.0663159 C20.2655028,13.1101924 20.277333,13.3591871 20.2409325,13.706227 C20.2385664,13.7287972 20.2358364,13.7513674 20.2329244,13.7746599 C20.2045319,14.0250992 20.1517512,14.3201372 20.076038,14.6233005 C20.0667559,14.6606768 20.0571097,14.6978725 20.0474636,14.73561 C19.8274223,15.568 19.7859257,15.191348 19.7859257,15.9181094" id="Fill-204" fill="#EEA886"></path>
                    <path d="M20.0760016,14.6233186 L20.0765476,14.6233186 C22.8846674,14.9811921 24.4171302,11.9791711 24.4615388,11.8906959 C22.5390442,14.6708063 20.233434,13.774678 20.233434,13.774678 L20.232888,13.774678 C20.2044955,14.0249367 20.1517147,14.3201553 20.0760016,14.6233186" id="Fill-205" fill="#A77860"></path>
                    <path d="M25.5938323,9.92941521 L25.5918302,9.93302645 C25.17104,10.8222935 24.6587024,11.6673228 24.095768,12.3837921 C22.148703,14.8614616 17.6090095,14.9228526 17.5425786,8.11982456 C17.5298384,6.83169648 17.6918208,5.78624349 17.9528127,4.93904739 C18.8817545,1.91987305 21.0652409,1.41736948 21.0652409,1.41736948 C22.6785129,1.32907474 25.5021029,1.7252274 26.4428749,3.80927202 C27.1108248,5.28987902 26.6277896,7.74353371 25.5938323,9.92941521" id="Fill-206" fill="#EEA987"></path>
                    <path d="M25.5938323,9.92941521 L25.5918302,9.93302645 C25.5918302,9.93302645 25.3590488,9.99459803 24.5211083,8.3150119 C24.3531198,7.97826409 24.2240799,8.21895301 24.1507328,8.07035062 L22.815561,7.55358267 C22.815561,7.55358267 24.0795698,5.76439551 22.3514541,5.15626327 C20.5902139,4.53657507 17.9528127,4.93904739 17.9528127,4.93904739 C16.5810583,-1.01046487 21.3695495,1.09001088 21.3695495,1.09001088 C23.0672707,1.40617464 25.5021029,1.7252274 26.4428749,3.80927202 C27.1108248,5.28987902 26.6277896,7.74353371 25.5938323,9.92941521" id="Fill-207" fill="#665249"></path>
                    <path d="M23.8790392,7.05189163 C23.9782306,6.59687582 24.8838761,6.20559833 25.2686298,7.18279895 C25.6533836,8.16018013 24.3658964,9.19696615 24.0268254,8.98227814 C23.6875723,8.76759012 23.7146907,7.80483445 23.8790392,7.05189163" id="Fill-208" fill="#EEA987"></path>
                </g>
            </g>
        </g>
    </g>
</svg>