<?xml version="1.0" encoding="UTF-8"?>
<svg width="270px" height="270px" viewBox="0 0 270 270" version="1.1" xmlns="http://www.w3.org/2000/svg" xmlns:xlink="http://www.w3.org/1999/xlink">
    <!-- Generator: Sketch 52.6 (67491) - http://www.bohemiancoding.com/sketch -->
    <title>Artboard</title>
    <desc>Created with Sketch.</desc>
    <defs>
        <path d="M0.0725728997,3.1438316 C0.42428442,3.08630565 14.2191046,0.937903114 18.1683584,13.6531326 C22.1741625,26.5295882 23.1143115,39.7153033 42.9209009,47.3558235 C50.363079,50.2264452 54.7710187,50.1830323 57.0124531,48.2547624 C57.2157201,48.0794233 57.4034357,47.8867497 57.5754429,47.676895 C60.4854277,44.122098 58.2645713,36.1532964 54.3131183,27.7316505 C48.8984259,16.2014556 37.8191204,0.126403691 16.8237176,0.127630911 C11.8224709,0.127784314 6.25634945,1.04037601 0.0725728997,3.1438316" id="path-1"></path>
        <linearGradient x1="101.618387%" y1="52.6384862%" x2="-1.85985443%" y2="46.1667601%" id="linearGradient-3">
            <stop stop-color="#3FD4E6" offset="0%"></stop>
            <stop stop-color="#5477FF" offset="100%"></stop>
        </linearGradient>
        <path d="M0.118909814,0.62278852 C4.92339895,5.0463505 7.67743797,10.8144922 10.3351271,16.3928272 C11.7441849,19.3418685 13.0717762,22.1297211 14.6519137,24.6092734 C18.0019118,29.8624466 25.1068907,34.5420232 28.8175349,36.7490088 C29.0202612,36.5721962 29.2074776,36.3779035 29.3790273,36.1662854 C25.761913,34.0173092 18.5833009,29.3194789 15.3166493,24.1945451 C13.7587584,21.7576878 12.4410372,18.9922654 11.0446694,16.0631793 C8.35235692,10.4169347 5.56902128,4.58134745 0.654395642,0.0521310808 L0.118909814,0.62278852 Z" id="path-4"></path>
        <linearGradient x1="114.060469%" y1="112.431664%" x2="17.3332904%" y2="26.2132597%" id="linearGradient-6">
            <stop stop-color="#3FD4E6" offset="0%"></stop>
            <stop stop-color="#5477FF" offset="100%"></stop>
        </linearGradient>
        <path d="M6.45772682,23.5850575 C16.9791649,35.4686933 20.4881309,36.888103 23.1122503,50.4729814 C23.1719993,50.7776698 23.2308123,51.0930767 23.2910293,51.4108479 C23.3075655,51.3744366 23.457328,51.0484689 23.6886798,50.4726661 C26.1383884,44.3997046 37.9334315,10.6316234 1.88560319,0.108130493 C1.88560319,0.108130493 -4.30239517,11.4309379 6.45772682,23.5850575" id="path-7"></path>
        <linearGradient x1="101.178745%" y1="51.6151243%" x2="-3.37881389%" y2="48.5784932%" id="linearGradient-9">
            <stop stop-color="#3FD4E6" offset="0%"></stop>
            <stop stop-color="#5477FF" offset="100%"></stop>
        </linearGradient>
        <path d="M0.0423932424,0.39535135 C0.0708178302,0.443352751 0.157878282,0.649960726 0.25111093,0.866821427 C0.803360065,2.1745101 2.26600814,5.64474735 4.63970486,8.16893756 C6.93381274,10.6056689 14.2345463,24.18758 13.0189485,35.7618209 C13.0811577,36.0621015 13.1423924,36.3729456 13.2050889,36.6861197 C13.2223061,36.6502352 13.3782353,36.3289831 13.6191134,35.7615102 C14.7351439,24.5148906 7.99997842,10.8680455 5.09287401,7.77731447 C2.78999512,5.33188384 1.35382251,1.93046414 0.814080195,0.649650037 C0.678779157,0.331970858 0.618194179,0.187811309 0.571740281,0.109207072 L0.0423932424,0.39535135 Z" id="path-10"></path>
        <linearGradient x1="120.692449%" y1="94.1169136%" x2="-35.5106657%" y2="-4.97069074%" id="linearGradient-12">
            <stop stop-color="#3FD4E6" offset="0%"></stop>
            <stop stop-color="#5477FF" offset="100%"></stop>
        </linearGradient>
        <polygon id="path-13" points="0 270.457697 265.953372 270.457697 265.953372 0.0533407026 0 0.0533407026"></polygon>
        <polygon id="path-15" points="0.0115763735 0.0736518122 173.862268 0.0736518122 173.862268 15.4948556 0.0115763735 15.4948556"></polygon>
        <linearGradient x1="-7.77460135e-06%" y1="49.9999639%" x2="99.9999624%" y2="49.9999639%" id="linearGradient-17">
            <stop stop-color="#3FD4E6" offset="0%"></stop>
            <stop stop-color="#5477FF" offset="100%"></stop>
        </linearGradient>
        <polygon id="path-18" points="0 270.457697 265.953372 270.457697 265.953372 0.0533407026 0 0.0533407026"></polygon>
        <path d="M25.1864838,8.19574186 C22.9466887,11.1975806 20.3045473,11.0373762 18.1439579,10.8773282 C15.5244687,10.6832074 13.6125913,10.4890866 13.9838102,15.9293137 C15.1685054,33.3010917 -5.73039274,21.3922038 3.9111275,39.5287427 C13.5528018,57.6654379 -4.60209695,49.7840091 1.38964374,64.4077746 C7.38138443,79.032009 -0.38462528,96.4741207 8.6306461,89.3063437 C8.6306461,89.3063437 16.5689359,71.6502615 24.7554754,66.1872151 C32.942169,60.7244813 19.8510408,54.2428478 22.4124356,46.8229639 C26.1327914,36.0462909 35.0964404,36.469543 28.633318,24.8884097 C22.1703497,13.3071202 40.9134355,5.00384605 31.0031706,0.196308938 C30.7996089,0.0975292812 30.5957391,0.0515779852 30.393256,0.0515779852 C27.6965644,0.0509527975 25.1864838,8.19574186 25.1864838,8.19574186" id="path-20"></path>
        <linearGradient x1="99.9999546%" y1="50.0000156%" x2="-0.000252293385%" y2="50.0000156%" id="linearGradient-22">
            <stop stop-color="#3FD4E6" offset="0%"></stop>
            <stop stop-color="#5477FF" offset="100%"></stop>
        </linearGradient>
        <path d="M0.668896733,0.765119087 C0.0747895185,1.3157262 -0.426883031,2.3943019 0.557359983,4.4061234 C1.45629114,6.2444356 2.62281337,7.40849946 3.56011059,8.34380332 C4.82117195,9.60190417 5.65421711,10.4333557 5.22069691,12.090243 C5.11887309,12.4788976 5.00118482,12.8718265 4.88365843,13.2661803 C4.04106223,16.083332 3.08660552,19.2764733 8.01688599,21.44344 C9.06329172,21.9033346 10.0166153,22.2691923 10.8575926,22.5919893 C14.2992055,23.9127815 16.3768001,24.7101961 18.7219857,29.5515176 C19.175903,30.4885629 19.5767231,31.3768482 19.9642687,32.235846 C21.8131239,36.3338954 23.2124326,39.433158 27.0333352,39.4333163 C27.5630133,39.4334747 28.1385041,39.3741079 28.7691967,39.2493585 C30.3512702,38.9366934 31.3887724,38.1202814 31.8525646,36.8229194 C32.9595142,33.7279311 30.3953021,28.6998022 28.3141462,26.2760543 C28.2796653,26.2355266 24.7962868,22.0725696 25.1678062,16.3016434 C25.2301308,15.3345189 25.3326021,14.4392679 25.4230942,13.6492939 C25.6850194,11.36581 25.8740977,9.71573008 24.8709144,8.61340767 C23.9872002,7.64232543 22.2808012,7.2218503 19.1653807,7.20760227 C13.7018607,7.18243075 11.5415444,4.9703453 9.80584479,3.19266638 C9.06879571,2.43767922 8.37237902,1.72480291 7.5263833,1.27298212 C5.97765749,0.446279889 4.37680565,0.0205804844 3.05390534,0.0205804844 C2.05120777,0.0205804844 1.20812592,0.265171626 0.668896733,0.765119087 M20.5855722,31.9678248 C20.1962458,31.1048692 19.7934832,30.2123095 19.3356807,29.2671903 C16.875235,24.1879267 14.5799091,23.3072403 11.105596,21.9737832 C10.2717414,21.6538358 9.32651197,21.2909861 8.29532316,20.8378988 C3.90427188,18.907766 4.69652275,16.2579495 5.5350719,13.4523545 C5.6551884,13.0508767 5.77449549,12.6508238 5.8782619,12.2548869 C6.40680687,10.2356248 5.36444819,9.19567707 4.04510928,7.87884269 C3.09599468,6.93182378 2.02028829,5.85863067 1.16959799,4.11957974 C0.723774756,3.20802259 0.356140564,1.96986898 1.13576464,1.24701904 C2.16161134,0.295884042 4.76936969,0.557572817 7.20100033,1.85588476 C7.95423762,2.25815408 8.58476831,2.90374804 9.31485646,3.65113625 C11.1392674,5.51968592 13.4101492,7.84512235 19.162305,7.87140205 C22.0266464,7.8845419 23.6308977,8.24960803 24.3637379,9.05493821 C25.1655398,9.93594126 24.9903834,11.4625383 24.7483697,13.5753625 C24.6570682,14.3727771 24.5534637,15.276577 24.4901678,16.2600075 C24.1010033,22.3032293 27.6426593,26.5257114 27.7935334,26.7025453 C29.8534828,29.1012799 32.1870129,33.8761106 31.2116734,36.603658 C30.8323837,37.6643446 29.9655052,38.335585 28.6343489,38.5986985 C28.0491452,38.7142659 27.5173626,38.7703081 27.0305832,38.7703081 C23.6548563,38.7703081 22.4415501,36.0818636 20.5855722,31.9678248" id="path-23"></path>
        <linearGradient x1="100.000029%" y1="50.0000691%" x2="-0.000150054319%" y2="50.0000691%" id="linearGradient-25">
            <stop stop-color="#3FD4E6" offset="0%"></stop>
            <stop stop-color="#5477FF" offset="100%"></stop>
        </linearGradient>
        <path d="M0.0845554787,0.726249623 C0.141351234,0.735873882 5.79220983,1.73313041 6.83032775,5.213904 C7.83637841,8.58682479 9.94691506,13.6102296 16.6319031,18.2761619 C22.3186579,22.2451757 23.1672439,36.5654617 23.1750613,36.7096728 L23.8433687,36.6760643 C23.8105037,36.0752355 22.9675015,21.9055768 17.0261231,17.7585906 C10.5076934,13.209066 8.45267617,8.31963704 7.47374708,5.03791756 C6.32044226,1.17079872 0.450218039,0.137183879 0.201018685,0.0951732257 L0.0845554787,0.726249623 Z" id="path-26"></path>
        <linearGradient x1="99.9999562%" y1="49.999969%" x2="2.98814144e-05%" y2="49.999969%" id="linearGradient-28">
            <stop stop-color="#3FD4E6" offset="0%"></stop>
            <stop stop-color="#5477FF" offset="100%"></stop>
        </linearGradient>
        <path d="M4.90949481,0.294653188 C0.084099654,1.95580014 6.01241522,8.48918012 0.938665744,19.2221601 C-4.13492595,29.9552985 16.4240471,35.2322836 10.7451903,40.5477638 C5.06649135,45.8632439 6.00231696,48.1436378 11.7378187,50.0989627 C17.4733204,52.0539708 15.0566782,68.5087671 20.5715958,72.0637737 C26.0863557,75.6184634 21.4539322,61.6433479 26.5276817,48.5762711 C31.6012734,35.5091943 14.6156678,45.4756007 22.1156844,30.5015158 C29.6160166,15.5272725 11.7477592,18.8985168 9.98308651,12.9186413 C8.35836955,7.41337915 8.96505467,0.126098891 5.81234325,0.126415722 C5.54063668,0.126415722 5.24084429,0.180593889 4.90949481,0.294653188" id="path-29"></path>
        <linearGradient x1="99.9998968%" y1="49.999969%" x2="-7.80268346e-05%" y2="49.999969%" id="linearGradient-31">
            <stop stop-color="#3FD4E6" offset="0%"></stop>
            <stop stop-color="#5477FF" offset="100%"></stop>
        </linearGradient>
        <polygon id="path-32" points="0.14594831 0.111084596 5.72861891 22.864225 18.2046882 22.864225 23.7873588 0.111084596"></polygon>
        <linearGradient x1="1.84327766e-05%" y1="49.9997949%" x2="100.000019%" y2="49.9997949%" id="linearGradient-34">
            <stop stop-color="#FF933F" offset="0%"></stop>
            <stop stop-color="#FFCD44" offset="100%"></stop>
        </linearGradient>
        <path d="M0.14594831,0.111084596 L5.72861891,22.864225 L11.4971225,22.864225 C11.4971225,2.5900167 23.7873588,0.111084596 23.7873588,0.111084596 L0.14594831,0.111084596 Z" id="path-35"></path>
        <linearGradient x1="1.84327766e-05%" y1="49.9997949%" x2="100.000019%" y2="49.9997949%" id="linearGradient-37">
            <stop stop-color="#C87231" offset="0%"></stop>
            <stop stop-color="#FFCD44" offset="100%"></stop>
        </linearGradient>
        <polygon id="path-38" points="0 270.457697 265.953372 270.457697 265.953372 0.0533407026 0 0.0533407026"></polygon>
        <path d="M37.3516313,0.216090743 C29.7888862,0.908729054 25.1095593,3.62933167 20.9812268,6.0297539 C17.4286438,8.09525874 14.3605748,9.8792096 10.203595,9.89782473 C1.76243488,9.93583064 0.134517998,6.73712919 0.125176471,6.70563858 L0.125176471,8.5344209 C0.168458882,8.7081622 2.75512789,11.55814 10.2115353,11.3038883 C14.8251601,11.1465903 18.2320152,9.30431204 21.8351981,7.2091781 C25.8145332,4.89531628 30.3250898,2.27290852 37.51106,1.61470822 C48.7646427,0.584049998 57.2107849,4.34803118 65.3791724,7.98791143 C71.995465,10.9363944 78.3420989,13.7652751 85.6429699,13.7648097 C88.334264,13.7646546 90.7429769,13.5240539 93.7545297,12.619203 L93.7545297,11.1155651 C83.1894176,14.2900669 74.8338882,10.6311061 66.0776073,6.72906263 C58.6769377,3.43108044 51.0540954,0.0338175032 41.2937559,0.0339726294 C40.0180146,0.0341277555 38.7045958,0.0921449399 37.3516313,0.216090743" id="path-40"></path>
        <linearGradient x1="111.002387%" y1="50.0000838%" x2="8.97121408%" y2="50.0000837%" id="linearGradient-42">
            <stop stop-color="#3FD4E6" offset="0%"></stop>
            <stop stop-color="#5477FF" offset="100%"></stop>
        </linearGradient>
        <path d="M73.091849,0.791557093 C66.076206,2.67001153 58.9459737,7.81174164 51.381983,13.2071511 C41.3954229,20.330842 35.6447785,15.7830219 28.9862932,10.5167935 C25.7036804,7.92073818 22.309592,5.23651672 18.2226737,3.91031142 C11.7718818,1.8172549 7.09520164,2.70634371 4.30768979,3.82053057 C1.24615979,5.04452134 0.187764706,6.32632065 0.125176471,6.39963091 L0.125176471,8.54484429 C0.178111794,8.48283737 6.11091601,1.43051903 17.7073327,5.2927105 C21.5069991,6.55820069 24.7987978,9.1238985 27.9716476,11.6330796 C32.156185,14.942699 36.4302452,18.3236909 41.8193725,18.3233679 C44.8974059,18.323045 48.3397589,17.219677 52.3351302,14.3697809 C67.4184279,3.61044983 79.5301855,-4.83331027 93.7545297,8.49414072 L93.8040398,6.54592849 C88.9097021,1.98034602 83.7710834,0.0331026528 78.6805736,0.0332641292 C76.8063518,0.0332641292 74.9385133,0.297116494 73.091849,0.791557093" id="path-43"></path>
        <linearGradient x1="-8.86166201e-05%" y1="49.9999698%" x2="99.9999813%" y2="49.9999698%" id="linearGradient-45">
            <stop stop-color="#3FD4E6" offset="0%"></stop>
            <stop stop-color="#5477FF" offset="100%"></stop>
        </linearGradient>
    </defs>
    <g id="Artboard" stroke="none" stroke-width="1" fill="none" fill-rule="evenodd">
        <g id="Group-5" transform="translate(2.000000, 0.000000)">
            <path d="M133.460208,259.557093 C202.084932,259.557093 257.716263,203.925763 257.716263,135.301038 C257.716263,66.6763136 202.084932,11.0449827 133.460208,11.0449827 C64.8354832,11.0449827 9.20415225,66.6763136 9.20415225,135.301038 C9.20415225,203.925763 64.8354832,259.557093 133.460208,259.557093 Z" id="Oval-Copy-2" stroke="#4A90E2" stroke-dasharray="9" fill-rule="nonzero"></path>
            <g id="Group-208">
                <g id="Group-3" transform="translate(21.169550, 86.519031)">
                    <mask id="mask-2" fill="white">
                        <use xlink:href="#path-1"></use>
                    </mask>
                    <g id="Clip-2"></g>
                    <path d="M0.0725728997,3.1438316 C0.42428442,3.08630565 14.2191046,0.937903114 18.1683584,13.6531326 C22.1741625,26.5295882 23.1143115,39.7153033 42.9209009,47.3558235 C50.363079,50.2264452 54.7710187,50.1830323 57.0124531,48.2547624 C57.2157201,48.0794233 57.4034357,47.8867497 57.5754429,47.676895 C60.4854277,44.122098 58.2645713,36.1532964 54.3131183,27.7316505 C48.8984259,16.2014556 37.8191204,0.126403691 16.8237176,0.127630911 C11.8224709,0.127784314 6.25634945,1.04037601 0.0725728997,3.1438316" id="Fill-1" fill="url(#linearGradient-3)" mask="url(#mask-2)"></path>
                </g>
                <g id="Group-6" transform="translate(48.782007, 98.484429)">
                    <mask id="mask-5" fill="white">
                        <use xlink:href="#path-4"></use>
                    </mask>
                    <g id="Clip-5"></g>
                    <path d="M0.118909814,0.62278852 C4.92339895,5.0463505 7.67743797,10.8144922 10.3351271,16.3928272 C11.7441849,19.3418685 13.0717762,22.1297211 14.6519137,24.6092734 C18.0019118,29.8624466 25.1068907,34.5420232 28.8175349,36.7490088 C29.0202612,36.5721962 29.2074776,36.3779035 29.3790273,36.1662854 C25.761913,34.0173092 18.5833009,29.3194789 15.3166493,24.1945451 C13.7587584,21.7576878 12.4410372,18.9922654 11.0446694,16.0631793 C8.35235692,10.4169347 5.56902128,4.58134745 0.654395642,0.0521310808 L0.118909814,0.62278852 Z" id="Fill-4" fill="url(#linearGradient-6)" mask="url(#mask-5)"></path>
                </g>
                <g id="Group-9" transform="translate(47.861592, 67.190311)">
                    <mask id="mask-8" fill="white">
                        <use xlink:href="#path-7"></use>
                    </mask>
                    <g id="Clip-8"></g>
                    <path d="M6.45772682,23.5850575 C16.9791649,35.4686933 20.4881309,36.888103 23.1122503,50.4729814 C23.1719993,50.7776698 23.2308123,51.0930767 23.2910293,51.4108479 C23.3075655,51.3744366 23.457328,51.0484689 23.6886798,50.4726661 C26.1383884,44.3997046 37.9334315,10.6316234 1.88560319,0.108130493 C1.88560319,0.108130493 -4.30239517,11.4309379 6.45772682,23.5850575" id="Fill-7" fill="url(#linearGradient-9)" mask="url(#mask-8)"></path>
                </g>
                <g id="Group-12" transform="translate(57.986159, 80.996540)">
                    <mask id="mask-11" fill="white">
                        <use xlink:href="#path-10"></use>
                    </mask>
                    <g id="Clip-11"></g>
                    <path d="M0.0423932424,0.39535135 C0.0708178302,0.443352751 0.157878282,0.649960726 0.25111093,0.866821427 C0.803360065,2.1745101 2.26600814,5.64474735 4.63970486,8.16893756 C6.93381274,10.6056689 14.2345463,24.18758 13.0189485,35.7618209 C13.0811577,36.0621015 13.1423924,36.3729456 13.2050889,36.6861197 C13.2223061,36.6502352 13.3782353,36.3289831 13.6191134,35.7615102 C14.7351439,24.5148906 7.99997842,10.8680455 5.09287401,7.77731447 C2.78999512,5.33188384 1.35382251,1.93046414 0.814080195,0.649650037 C0.678779157,0.331970858 0.618194179,0.187811309 0.571740281,0.109207072 L0.0423932424,0.39535135 Z" id="Fill-10" fill="url(#linearGradient-12)" mask="url(#mask-11)"></path>
                </g>
                <g id="Group-37">
                    <path d="M227.067661,38.3703294 L224.313935,33.8631182 C224.088148,33.4934875 224.204875,33.0109184 224.574459,32.785198 C224.944199,32.5594777 225.42691,32.6761703 225.652698,33.0456446 L227.599974,36.2329471 L232.776803,33.1698455 C233.149673,32.9492872 233.63082,33.0725496 233.851443,33.4453088 C234.072067,33.8179116 233.948768,34.2989165 233.576055,34.5194748 L227.067661,38.3703294 Z" id="Fill-13" fill="#F0C141"></path>
                    <path d="M228.916439,26.9323308 C224.235935,26.9323308 220.428066,30.7390737 220.428066,35.4181952 C220.428066,40.0973167 224.235935,43.9040597 228.916439,43.9040597 C233.596944,43.9040597 237.404812,40.0973167 237.404812,35.4181952 C237.404812,30.7390737 233.596944,26.9323308 228.916439,26.9323308 M228.916439,45.3184486 C223.455929,45.3184486 219.013416,40.8770921 219.013416,35.4181952 C219.013416,29.9592983 223.455929,25.5179418 228.916439,25.5179418 C234.37695,25.5179418 238.819619,29.9592983 238.819619,35.4181952 C238.819619,40.8770921 234.37695,45.3184486 228.916439,45.3184486" id="Fill-15" fill="#F0C141"></path>
                    <path d="M176.143369,21.7338961 L171.919133,14.8199399 C171.572707,14.2530581 171.751709,13.5125452 172.318915,13.1663781 C172.885965,12.8202111 173.626383,12.9991605 173.972809,13.5658859 L176.959989,18.4552418 L184.901185,13.7565672 C185.473085,13.4182213 186.211156,13.6073384 186.549446,14.1790694 C186.887892,14.7508004 186.698719,15.4884976 186.126975,15.8268434 L176.143369,21.7338961 Z" id="Fill-17" fill="#F0C141"></path>
                    <path d="M178.979242,4.18824627 C171.799433,4.18824627 165.958229,10.0277236 165.958229,17.2054112 C165.958229,24.3832553 171.799433,30.2227326 178.979242,30.2227326 C186.159208,30.2227326 192.000412,24.3832553 192.000412,17.2054112 C192.000412,10.0277236 186.159208,4.18824627 178.979242,4.18824627 M178.979242,32.3921819 C170.602902,32.3921819 163.787982,25.5794322 163.787982,17.2054112 C163.787982,8.83154661 170.602902,2.01864057 178.979242,2.01864057 C187.355739,2.01864057 194.170502,8.83154661 194.170502,17.2054112 C194.170502,25.5794322 187.355739,32.3921819 178.979242,32.3921819" id="Fill-19" fill="#F0C141"></path>
                    <path d="M131.463694,38.307087 L128.672415,33.7385575 C128.443342,33.3637648 128.56179,32.8746258 128.936537,32.6459334 C129.311128,32.4170846 129.800411,32.5353414 130.029484,32.9098213 L132.003204,36.1406098 L137.250602,33.0358993 C137.628478,32.8122125 138.116354,32.9371956 138.339794,33.3149604 C138.563546,33.6927252 138.43837,34.1802999 138.060494,34.4038303 L131.463694,38.307087 Z" id="Fill-21" fill="#F0C141"></path>
                    <path d="M133.337664,26.7132741 C128.593319,26.7132741 124.733502,30.5717935 124.733502,35.3147362 C124.733502,40.0576788 128.593319,43.9163546 133.337664,43.9163546 C138.081852,43.9163546 141.941668,40.0576788 141.941668,35.3147362 C141.941668,30.5717935 138.081852,26.7132741 133.337664,26.7132741 M133.337664,45.3499838 C127.802516,45.3499838 123.299606,40.848091 123.299606,35.3147362 C123.299606,29.7813813 127.802516,25.279645 133.337664,25.279645 C138.872654,25.279645 143.375565,29.7813813 143.375565,35.3147362 C143.375565,40.848091 138.872654,45.3499838 133.337664,45.3499838" id="Fill-23" fill="#F0C141"></path>
                    <path d="M92.2497701,16.3615488 L88.7557819,10.6423618 C88.4691278,10.1734016 88.6171489,9.56100027 89.0862478,9.27458729 C89.5553466,8.98817431 90.1677725,9.13630816 90.4544266,9.60511193 L92.9252536,13.6494634 L99.4942019,9.76278768 C99.9672125,9.48278809 100.577761,9.63936887 100.857687,10.1122397 C101.137612,10.5852669 100.981142,11.1954783 100.507975,11.4753214 L92.2497701,16.3615488 Z" id="Fill-25" fill="#F0C141"></path>
                    <path d="M94.5957493,1.84799724 C88.6567516,1.84799724 83.8249399,6.6783811 83.8249399,12.6156236 C83.8249399,18.5528662 88.6567516,23.38325 94.5957493,23.38325 C100.534747,23.38325 105.366559,18.5528662 105.366559,12.6156236 C105.366559,6.6783811 100.534747,1.84799724 94.5957493,1.84799724 M94.5957493,25.1779066 C87.6669187,25.1779066 82.0297528,19.5424066 82.0297528,12.6156236 C82.0297528,5.68884068 87.6669187,0.0533407026 94.5957493,0.0533407026 C101.52458,0.0533407026 107.161746,5.68884068 107.161746,12.6156236 C107.161746,19.5424066 101.52458,25.1779066 94.5957493,25.1779066" id="Fill-27" fill="#F0C141"></path>
                    <path d="M47.7395364,44.7933477 L43.865794,38.4528432 C43.5480022,37.9328887 43.7122964,37.2538506 44.2322481,36.9363092 C44.7523564,36.6189242 45.4314387,36.7830133 45.749074,37.3028114 L48.4884046,41.7865589 L55.7710152,37.4775374 C56.2955046,37.1673479 56.9723964,37.3406661 57.2826775,37.8650005 C57.5931152,38.3893349 57.4194328,39.0658702 56.8950999,39.3762161 L47.7395364,44.7933477 Z" id="Fill-29" fill="#F0C141"></path>
                    <path d="M50.3403905,28.7028823 C43.7559516,28.7028823 38.3993375,34.0580699 38.3993375,40.6404064 C38.3993375,47.2228994 43.7559516,52.578087 50.3403905,52.578087 C56.9246728,52.578087 62.2814434,47.2228994 62.2814434,40.6404064 C62.2814434,34.0580699 56.9246728,28.7028823 50.3403905,28.7028823 M50.3403905,54.5676482 C42.6586234,54.5676482 36.4090316,48.3199034 36.4090316,40.6404064 C36.4090316,32.9610659 42.6586234,26.7133211 50.3403905,26.7133211 C58.0221575,26.7133211 64.2715928,32.9610659 64.2715928,40.6404064 C64.2715928,48.3199034 58.0221575,54.5676482 50.3403905,54.5676482" id="Fill-31" fill="#F0C141"></path>
                    <mask id="mask-14" fill="white">
                        <use xlink:href="#path-13"></use>
                    </mask>
                    <g id="Clip-34"></g>
                    <polygon id="Fill-33" fill="#8F8F8F" mask="url(#mask-14)" points="149.415642 238.455309 171.264569 238.455309 171.264569 172.112458 149.415642 172.112458"></polygon>
                    <path d="M75.6032085,204.070469 L245.076972,204.070469 C250.376474,204.070469 254.672687,199.775526 254.672687,194.477433 L254.672687,80.6091111 C254.672687,75.3110184 250.376474,71.0160751 245.076972,71.0160751 L75.6032085,71.0160751 C70.3037061,71.0160751 66.0074932,75.3110184 66.0074932,80.6091111 L66.0074932,194.477433 C66.0074932,199.775526 70.3037061,204.070469 75.6032085,204.070469" id="Fill-35" fill="#F0F0F0" mask="url(#mask-14)"></path>
                    <polygon id="Fill-36" fill="#FFFFFF" mask="url(#mask-14)" points="73.3962847 183.219682 247.283771 183.219682 247.283771 56.8547756 73.3962847 56.8547756"></polygon>
                </g>
                <g id="Group-40" transform="translate(74.553633, 57.986159)">
                    <mask id="mask-16" fill="white">
                        <use xlink:href="#path-15"></use>
                    </mask>
                    <g id="Clip-39"></g>
                    <polygon id="Fill-38" fill="url(#linearGradient-17)" mask="url(#mask-16)" points="0.0115763735 15.4948556 173.862268 15.4948556 173.862268 0.0736518122 0.0115763735 0.0736518122"></polygon>
                </g>
                <g id="Group-64">
                    <path d="M226.122876,192.760707 C226.122876,196.120702 229.326611,198.844676 233.278589,198.844676 C237.230723,198.844676 240.434615,196.120702 240.434615,192.760707 C240.434615,189.400712 237.230723,186.676895 233.278589,186.676895 C229.326611,186.676895 226.122876,189.400712 226.122876,192.760707" id="Fill-41" fill="#CCCCCC"></path>
                    <mask id="mask-19" fill="white">
                        <use xlink:href="#path-18"></use>
                    </mask>
                    <g id="Clip-44"></g>
                    <polygon id="Fill-43" fill="#CCCCCC" mask="url(#mask-19)" points="111.192538 240.959194 209.487518 240.959194 209.487518 235.951268 111.192538 235.951268"></polygon>
                    <path d="M103.386392,67.3697766 L82.7329004,67.3697766 C81.5875356,67.3697766 80.6590392,66.4415546 80.6590392,65.2965283 L80.6590392,63.6756592 C80.6590392,62.530633 81.5875356,61.6024109 82.7329004,61.6024109 L103.386392,61.6024109 C104.531757,61.6024109 105.460253,62.530633 105.460253,63.6756592 L105.460253,65.2965283 C105.460253,66.4415546 104.531757,67.3697766 103.386392,67.3697766" id="Fill-45" fill="#F5F7FF" mask="url(#mask-19)"></path>
                    <polygon id="Fill-46" fill="#E6E6E6" mask="url(#mask-19)" points="86.13612 128.424859 177.176811 128.424859 177.176811 125.296372 86.13612 125.296372"></polygon>
                    <polygon id="Fill-47" fill="#E6E6E6" mask="url(#mask-19)" points="86.13612 134.05942 153.660376 134.05942 153.660376 130.930933 86.13612 130.930933"></polygon>
                    <polygon id="Fill-48" fill="#E6E6E6" mask="url(#mask-19)" points="86.13612 146.30291 128.951949 146.30291 128.951949 143.174423 86.13612 143.174423"></polygon>
                    <polygon id="Fill-49" fill="#E6E6E6" mask="url(#mask-19)" points="86.13612 151.937472 163.057687 151.937472 163.057687 148.808985 86.13612 148.808985"></polygon>
                    <polygon id="Fill-50" fill="#E6E6E6" mask="url(#mask-19)" points="86.13612 165.400603 158.195364 165.400603 158.195364 162.272272 86.13612 162.272272"></polygon>
                    <polygon id="Fill-51" fill="#E6E6E6" mask="url(#mask-19)" points="86.13612 171.035164 174.128138 171.035164 174.128138 167.906677 86.13612 167.906677"></polygon>
                    <polygon id="Fill-52" fill="#78C2FF" mask="url(#mask-19)" points="81.6934506 134.05942 83.9810506 134.05942 83.9810506 125.296372 81.6934506 125.296372"></polygon>
                    <polygon id="Fill-53" fill="#78C2FF" mask="url(#mask-19)" points="81.6934506 151.937472 83.9810506 151.937472 83.9810506 143.174423 81.6934506 143.174423"></polygon>
                    <polygon id="Fill-54" fill="#78C2FF" mask="url(#mask-19)" points="81.6934506 171.035164 83.9810506 171.035164 83.9810506 162.272272 81.6934506 162.272272"></polygon>
                    <path d="M207.412733,174.981171 L200.121204,174.981171 C198.67213,174.981171 197.497349,173.806737 197.497349,172.358092 L197.497349,165.068561 C197.497349,163.619758 198.67213,162.445324 200.121204,162.445324 L207.412733,162.445324 C208.861964,162.445324 210.036745,163.619758 210.036745,165.068561 L210.036745,172.358092 C210.036745,173.806737 208.861964,174.981171 207.412733,174.981171" id="Fill-55" fill="#78C2FF" mask="url(#mask-19)"></path>
                    <path d="M203.369878,171.474325 L200.199783,168.711715 C199.939886,168.485056 199.912816,168.09071 200.139386,167.830889 C200.366268,167.571069 200.760574,167.544164 201.020472,167.77051 L203.262382,169.72425 L206.45892,166.159652 C206.689088,165.903116 207.083863,165.881529 207.340632,166.111786 C207.5974,166.34173 207.618836,166.736545 207.388668,166.993081 L203.369878,171.474325 Z" id="Fill-56" fill="#F3F3F3" mask="url(#mask-19)"></path>
                    <path d="M200.34879,144.136871 C199.211875,144.136871 198.28729,145.061652 198.28729,146.1987 L198.28729,153.032567 C198.28729,154.169147 199.211875,155.093927 200.34879,155.093927 L207.185147,155.093927 C208.322062,155.093927 209.246647,154.169147 209.246647,153.032567 L209.246647,146.1987 C209.246647,145.061652 208.322062,144.136871 207.185147,144.136871 L200.34879,144.136871 Z M207.185147,155.889502 L200.34879,155.889502 C198.772975,155.889502 197.491481,154.608073 197.491481,153.032567 L197.491481,146.1987 C197.491481,144.623194 198.772975,143.341453 200.34879,143.341453 L207.185147,143.341453 C208.761119,143.341453 210.042456,144.623194 210.042456,146.1987 L210.042456,153.032567 C210.042456,154.608073 208.761119,155.889502 207.185147,155.889502 Z" id="Fill-57" fill="#78C2FF" mask="url(#mask-19)"></path>
                    <path d="M219.228704,163.235001 C218.091788,163.235001 217.166421,164.159626 217.166421,165.296361 L217.166421,172.130228 C217.166421,173.266808 218.091788,174.191588 219.228704,174.191588 L226.06506,174.191588 C227.201975,174.191588 228.12656,173.266808 228.12656,172.130228 L228.12656,165.296361 C228.12656,164.159626 227.201975,163.235001 226.06506,163.235001 L219.228704,163.235001 Z M226.06506,174.987006 L219.228704,174.987006 C217.652888,174.987006 216.370612,173.705734 216.370612,172.130228 L216.370612,165.296361 C216.370612,163.721012 217.652888,162.439427 219.228704,162.439427 L226.06506,162.439427 C227.641032,162.439427 228.922213,163.721012 228.922213,165.296361 L228.922213,172.130228 C228.922213,173.705734 227.641032,174.987006 226.06506,174.987006 Z" id="Fill-58" fill="#78C2FF" mask="url(#mask-19)"></path>
                    <path d="M226.29249,155.88337 L219.000961,155.88337 C217.551887,155.88337 216.377105,154.708936 216.377105,153.260133 L216.377105,145.970915 C216.377105,144.522113 217.551887,143.347679 219.000961,143.347679 L226.29249,143.347679 C227.741721,143.347679 228.916502,144.522113 228.916502,145.970915 L228.916502,153.260133 C228.916502,154.708936 227.741721,155.88337 226.29249,155.88337" id="Fill-59" fill="#78C2FF" mask="url(#mask-19)"></path>
                    <path d="M222.249619,152.376649 L219.079525,149.614038 C218.819627,149.387379 218.792558,148.992877 219.019127,148.733213 C219.245853,148.473392 219.640315,148.446487 219.900213,148.672833 L222.141967,150.626573 L225.338661,147.061975 C225.568829,146.805283 225.963605,146.783696 226.220373,147.013953 C226.477298,147.244053 226.498734,147.638712 226.268566,147.895404 L222.249619,152.376649 Z" id="Fill-60" fill="#F3F3F3" mask="url(#mask-19)"></path>
                    <path d="M219.228704,125.039273 C218.091788,125.039273 217.166421,125.964054 217.166421,127.100946 L217.166421,133.934969 C217.166421,135.071548 218.091788,135.996329 219.228704,135.996329 L226.06506,135.996329 C227.201975,135.996329 228.12656,135.071548 228.12656,133.934969 L228.12656,127.100946 C228.12656,125.964054 227.201975,125.039273 226.06506,125.039273 L219.228704,125.039273 Z M226.06506,136.791747 L219.228704,136.791747 C217.652888,136.791747 216.370612,135.510475 216.370612,133.934969 L216.370612,127.100946 C216.370612,125.525596 217.652888,124.243855 219.228704,124.243855 L226.06506,124.243855 C227.641032,124.243855 228.922213,125.525596 228.922213,127.100946 L228.922213,133.934969 C228.922213,135.510475 227.641032,136.791747 226.06506,136.791747 Z" id="Fill-61" fill="#78C2FF" mask="url(#mask-19)"></path>
                    <path d="M207.412733,136.785693 L200.121204,136.785693 C198.67213,136.785693 197.497349,135.611259 197.497349,134.162613 L197.497349,126.873082 C197.497349,125.424436 198.67213,124.250002 200.121204,124.250002 L207.412733,124.250002 C208.861964,124.250002 210.036745,125.424436 210.036745,126.873082 L210.036745,134.162613 C210.036745,135.611259 208.861964,136.785693 207.412733,136.785693" id="Fill-62" fill="#78C2FF" mask="url(#mask-19)"></path>
                    <path d="M203.369878,133.278972 L200.199783,130.516205 C199.939886,130.289703 199.912816,129.895357 200.139386,129.63538 C200.366268,129.375559 200.760574,129.348654 201.020472,129.575157 L203.262382,131.52874 L206.45892,127.964299 C206.689088,127.707606 207.083863,127.686176 207.340632,127.916276 C207.5974,128.146377 207.618836,128.541035 207.388668,128.797727 L203.369878,133.278972 Z" id="Fill-63" fill="#F3F3F3" mask="url(#mask-19)"></path>
                </g>
                <g id="Group-67" transform="translate(22.089965, 140.823529)">
                    <mask id="mask-21" fill="white">
                        <use xlink:href="#path-20"></use>
                    </mask>
                    <g id="Clip-66"></g>
                    <path d="M25.1864838,8.19574186 C22.9466887,11.1975806 20.3045473,11.0373762 18.1439579,10.8773282 C15.5244687,10.6832074 13.6125913,10.4890866 13.9838102,15.9293137 C15.1685054,33.3010917 -5.73039274,21.3922038 3.9111275,39.5287427 C13.5528018,57.6654379 -4.60209695,49.7840091 1.38964374,64.4077746 C7.38138443,79.032009 -0.38462528,96.4741207 8.6306461,89.3063437 C8.6306461,89.3063437 16.5689359,71.6502615 24.7554754,66.1872151 C32.942169,60.7244813 19.8510408,54.2428478 22.4124356,46.8229639 C26.1327914,36.0462909 35.0964404,36.469543 28.633318,24.8884097 C22.1703497,13.3071202 40.9134355,5.00384605 31.0031706,0.196308938 C30.7996089,0.0975292812 30.5957391,0.0515779852 30.393256,0.0515779852 C27.6965644,0.0509527975 25.1864838,8.19574186 25.1864838,8.19574186" id="Fill-65" fill="url(#linearGradient-22)" mask="url(#mask-21)"></path>
                </g>
                <path d="M28.019285,223.6609 C32.2967166,220.903056 37.3027958,201.684433 37.6015076,190.23741 C37.7544898,184.373803 39.6450943,181.930788 41.3130565,179.775386 C42.9076479,177.715238 44.284657,175.935899 43.4824699,171.850393 C41.9496112,164.04292 45.9797748,160.672737 46.0207612,160.639646 L45.5542244,160.152249 C45.3747611,160.296211 41.1776158,163.772161 42.7862066,171.965593 C43.5356005,175.782814 42.3002729,177.37907 40.7362105,179.400251 C39.0948979,181.520861 37.0523231,184.159948 36.8941121,190.221792 C36.5736421,202.506606 31.4557357,220.652554 27.6124567,223.130361 L28.019285,223.6609 Z" id="Fill-68" fill="#FFFFFF"></path>
                <g id="Group-72" transform="translate(0.000000, 185.923875)">
                    <mask id="mask-24" fill="white">
                        <use xlink:href="#path-23"></use>
                    </mask>
                    <g id="Clip-71"></g>
                    <path d="M0.668896733,0.765119087 C0.0747895185,1.3157262 -0.426883031,2.3943019 0.557359983,4.4061234 C1.45629114,6.2444356 2.62281337,7.40849946 3.56011059,8.34380332 C4.82117195,9.60190417 5.65421711,10.4333557 5.22069691,12.090243 C5.11887309,12.4788976 5.00118482,12.8718265 4.88365843,13.2661803 C4.04106223,16.083332 3.08660552,19.2764733 8.01688599,21.44344 C9.06329172,21.9033346 10.0166153,22.2691923 10.8575926,22.5919893 C14.2992055,23.9127815 16.3768001,24.7101961 18.7219857,29.5515176 C19.175903,30.4885629 19.5767231,31.3768482 19.9642687,32.235846 C21.8131239,36.3338954 23.2124326,39.433158 27.0333352,39.4333163 C27.5630133,39.4334747 28.1385041,39.3741079 28.7691967,39.2493585 C30.3512702,38.9366934 31.3887724,38.1202814 31.8525646,36.8229194 C32.9595142,33.7279311 30.3953021,28.6998022 28.3141462,26.2760543 C28.2796653,26.2355266 24.7962868,22.0725696 25.1678062,16.3016434 C25.2301308,15.3345189 25.3326021,14.4392679 25.4230942,13.6492939 C25.6850194,11.36581 25.8740977,9.71573008 24.8709144,8.61340767 C23.9872002,7.64232543 22.2808012,7.2218503 19.1653807,7.20760227 C13.7018607,7.18243075 11.5415444,4.9703453 9.80584479,3.19266638 C9.06879571,2.43767922 8.37237902,1.72480291 7.5263833,1.27298212 C5.97765749,0.446279889 4.37680565,0.0205804844 3.05390534,0.0205804844 C2.05120777,0.0205804844 1.20812592,0.265171626 0.668896733,0.765119087 M20.5855722,31.9678248 C20.1962458,31.1048692 19.7934832,30.2123095 19.3356807,29.2671903 C16.875235,24.1879267 14.5799091,23.3072403 11.105596,21.9737832 C10.2717414,21.6538358 9.32651197,21.2909861 8.29532316,20.8378988 C3.90427188,18.907766 4.69652275,16.2579495 5.5350719,13.4523545 C5.6551884,13.0508767 5.77449549,12.6508238 5.8782619,12.2548869 C6.40680687,10.2356248 5.36444819,9.19567707 4.04510928,7.87884269 C3.09599468,6.93182378 2.02028829,5.85863067 1.16959799,4.11957974 C0.723774756,3.20802259 0.356140564,1.96986898 1.13576464,1.24701904 C2.16161134,0.295884042 4.76936969,0.557572817 7.20100033,1.85588476 C7.95423762,2.25815408 8.58476831,2.90374804 9.31485646,3.65113625 C11.1392674,5.51968592 13.4101492,7.84512235 19.162305,7.87140205 C22.0266464,7.8845419 23.6308977,8.24960803 24.3637379,9.05493821 C25.1655398,9.93594126 24.9903834,11.4625383 24.7483697,13.5753625 C24.6570682,14.3727771 24.5534637,15.276577 24.4901678,16.2600075 C24.1010033,22.3032293 27.6426593,26.5257114 27.7935334,26.7025453 C29.8534828,29.1012799 32.1870129,33.8761106 31.2116734,36.603658 C30.8323837,37.6643446 29.9655052,38.335585 28.6343489,38.5986985 C28.0491452,38.7142659 27.5173626,38.7703081 27.0305832,38.7703081 C23.6548563,38.7703081 22.4415501,36.0818636 20.5855722,31.9678248" id="Fill-70" fill="url(#linearGradient-25)" mask="url(#mask-24)"></path>
                </g>
                <g id="Group-75" transform="translate(4.602076, 193.287197)">
                    <mask id="mask-27" fill="white">
                        <use xlink:href="#path-26"></use>
                    </mask>
                    <g id="Clip-74"></g>
                    <path d="M0.0845554787,0.726249623 C0.141351234,0.735873882 5.79220983,1.73313041 6.83032775,5.213904 C7.83637841,8.58682479 9.94691506,13.6102296 16.6319031,18.2761619 C22.3186579,22.2451757 23.1672439,36.5654617 23.1750613,36.7096728 L23.8433687,36.6760643 C23.8105037,36.0752355 22.9675015,21.9055768 17.0261231,17.7585906 C10.5076934,13.209066 8.45267617,8.31963704 7.47374708,5.03791756 C6.32044226,1.17079872 0.450218039,0.137183879 0.201018685,0.0951732257 L0.0845554787,0.726249623 Z" id="Fill-73" fill="url(#linearGradient-28)" mask="url(#mask-27)"></path>
                </g>
                <g id="Group-78" transform="translate(9.204152, 155.550173)">
                    <mask id="mask-30" fill="white">
                        <use xlink:href="#path-29"></use>
                    </mask>
                    <g id="Clip-77"></g>
                    <path d="M4.90949481,0.294653188 C0.084099654,1.95580014 6.01241522,8.48918012 0.938665744,19.2221601 C-4.13492595,29.9552985 16.4240471,35.2322836 10.7451903,40.5477638 C5.06649135,45.8632439 6.00231696,48.1436378 11.7378187,50.0989627 C17.4733204,52.0539708 15.0566782,68.5087671 20.5715958,72.0637737 C26.0863557,75.6184634 21.4539322,61.6433479 26.5276817,48.5762711 C31.6012734,35.5091943 14.6156678,45.4756007 22.1156844,30.5015158 C29.6160166,15.5272725 11.7477592,18.8985168 9.98308651,12.9186413 C8.35836955,7.41337915 8.96505467,0.126098891 5.81234325,0.126415722 C5.54063668,0.126415722 5.24084429,0.180593889 4.90949481,0.294653188" id="Fill-76" fill="url(#linearGradient-31)" mask="url(#mask-30)"></path>
                </g>
                <path d="M27.7395471,227.342561 C28.2727178,225.102798 32.8272581,205.392383 28.5775928,203.009869 C24.8322608,200.909844 24.9245404,192.74227 25.5088173,185.029595 C26.0259672,178.202452 17.1693738,175.011492 16.7922452,174.878893 L16.567474,175.506045 C16.6551076,175.536816 25.3173693,178.660524 24.8386691,184.980108 C24.2385317,192.900565 24.1742884,201.30574 28.246604,203.588645 C31.4736645,205.397934 28.5026156,221.238689 27.0854197,227.189817 L27.7395471,227.342561 Z" id="Fill-79" fill="#FFFFFF"></path>
                <g id="Group-83" transform="translate(19.328720, 219.979239)">
                    <mask id="mask-33" fill="white">
                        <use xlink:href="#path-32"></use>
                    </mask>
                    <g id="Clip-82"></g>
                    <polygon id="Fill-81" fill="url(#linearGradient-34)" mask="url(#mask-33)" points="0.14594831 0.111084596 5.72861891 22.864225 18.2046882 22.864225 23.7873588 0.111084596"></polygon>
                </g>
                <g id="Group-86" transform="translate(19.328720, 219.979239)">
                    <mask id="mask-36" fill="white">
                        <use xlink:href="#path-35"></use>
                    </mask>
                    <g id="Clip-85"></g>
                    <path d="M0.14594831,0.111084596 L5.72861891,22.864225 L11.4971225,22.864225 C11.4971225,2.5900167 23.7873588,0.111084596 23.7873588,0.111084596 L0.14594831,0.111084596 Z" id="Fill-84" fill="url(#linearGradient-37)" mask="url(#mask-36)"></path>
                </g>
                <g id="Group-201">
                    <path d="M146.599626,204.532093 C146.599626,204.532093 147.054486,205.277455 147.111597,205.885789 C147.156661,206.367263 147.561607,207.086815 147.73701,207.484446 C147.91257,207.88192 148.476803,209.681269 148.496988,210.149135 C148.505437,210.340598 148.078116,211.547256 148.13867,211.933154 C148.199224,212.318897 148.420161,213.083655 148.073422,213.134337 C147.726683,213.185175 147.333786,212.558382 147.333786,212.558382 C147.333786,212.558382 147.366488,212.913779 147.073106,213.049242 C146.502927,213.313286 146.200938,213.08084 146.200938,213.08084 C146.200938,213.08084 145.990642,213.471744 145.72652,213.524303 C145.144136,213.640213 144.859047,213.406985 144.859047,213.406985 C144.859047,213.406985 144.602435,213.626135 144.200149,213.61847 C143.685674,213.608616 143.469275,213.164058 143.469275,213.164058 C143.469275,213.164058 142.817418,213.295767 142.628402,212.991834 C142.439386,212.687745 142.472088,212.363478 142.393853,212.088171 C142.315461,211.812708 142.374763,209.325091 143.220017,207.533876 C144.065584,205.742504 143.00487,203.995557 143.00487,203.995557 L146.599626,204.532093 Z" id="Fill-87" fill="#EEA886"></path>
                    <path d="M147.425352,212.325216 C147.425352,212.325216 147.483403,210.092884 146.895699,209.617824 C146.308152,209.142607 146.241339,209.948348 146.241339,209.948348 C146.241339,209.948348 146.321139,209.152305 145.678984,209.044685 C145.036829,208.937065 145.009759,209.882963 145.009759,209.882963 C145.009759,209.882963 144.904611,209.269154 144.230066,209.395075 C143.555522,209.52131 143.716217,210.304839 143.716217,210.304839 C143.716217,210.304839 143.072027,209.536483 142.654094,210.274493 C141.948412,211.520257 142.628433,212.991897 142.628433,212.991897 C142.628433,212.991897 142.827307,213.329304 143.469306,213.163964 C143.469306,213.163964 143.898662,214.028834 144.859078,213.407047 C144.859078,213.407047 145.842652,213.948119 146.20097,213.080902 C146.20097,213.080902 147.284998,213.595695 147.425352,212.325216" id="Fill-89" fill="#DB9C7C"></path>
                    <path d="M154.173616,172.378802 C154.173616,172.378802 150.351509,185.113934 149.06,189.811514 C148.654898,191.284875 147.674766,205.354463 147.50171,205.920875 C147.32881,206.487444 142.480725,207.263465 142.480725,207.263465 C142.480725,207.263465 143.068116,189.662441 143.12288,188.702465 C143.177802,187.742489 148.47214,168.087144 150.011811,167.385893 C151.165312,166.860777 151.774296,167.295167 153.227907,168.374026 C155.267971,169.888214 154.173616,172.378802 154.173616,172.378802" id="Fill-91" fill="#323657"></path>
                    <polygon id="Fill-93" fill="#4DA8F2" points="191.873248 155.189237 191.447961 154.539763 200.196388 148.814788 200.621675 149.464262"></polygon>
                    <path d="M201.554866,152.106097 C201.554866,152.106097 201.47131,152.600867 201.329392,152.79937 C201.329392,152.79937 201.04305,153.140688 200.85419,153.39566 C200.794732,153.476844 200.744348,153.548799 200.717122,153.598698 C200.601803,153.807056 200.411379,154.29901 199.994072,154.721669 C199.577703,155.144171 197.95479,156.4877 197.95479,156.4877 L196.564236,155.307947 L195.120639,154.660976 C195.120639,154.660976 195.928966,151.148467 196.271636,150.709853 C196.305434,150.667306 196.340327,150.626166 196.376002,150.590502 C196.702087,150.24715 197.089352,150.128893 197.280872,149.968089 C197.351596,149.909587 198.094206,149.374615 198.358954,149.443755 C198.726347,149.539017 198.942433,149.754257 199.026144,150.000313 C199.026144,150.000313 199.737616,150.218837 200.014569,150.636021 C200.014569,150.636021 200.677379,150.816535 200.874219,151.433473 C200.874219,151.433473 201.525762,151.692042 201.554866,152.106097" id="Fill-95" fill="#EFAA88"></path>
                    <path d="M151.072322,259.331797 C151.072322,259.331797 150.723862,261.749335 150.680363,262.112396 C150.636864,262.475613 146.804586,261.898564 146.804586,261.898564 L146.494149,259.020512 C146.494149,259.020512 150.593209,258.990635 151.072322,259.331797" id="Fill-97" fill="#424773"></path>
                    <path d="M150.721186,261.8051 C150.721186,261.8051 151.935398,263.26188 153.10971,263.896806 C154.284021,264.531889 156.129435,264.78342 156.823852,265.440558 C157.325184,265.91515 158.649707,267.957739 153.772206,267.916443 C148.894861,267.875303 146.543265,268.205046 146.020653,267.421829 C145.498041,266.638612 146.776875,261.641324 146.776875,261.641324 C146.776875,261.641324 147.931941,262.056943 150.721186,261.8051" id="Fill-99" fill="#292C47"></path>
                    <path d="M178.530782,259.331797 C178.530782,259.331797 178.182322,261.749335 178.138823,262.112396 C178.095324,262.475613 174.263047,261.898564 174.263047,261.898564 L173.952765,259.020512 C173.952765,259.020512 178.051669,258.990635 178.530782,259.331797" id="Fill-101" fill="#424773"></path>
                    <path d="M178.179615,261.8051 C178.179615,261.8051 179.393827,263.26188 180.568295,263.896806 C181.742607,264.531889 186.064168,265.053565 186.758584,265.710703 C187.25976,266.185138 188.093435,268.09508 181.230791,267.916443 C176.355011,267.789583 174.00185,268.205046 173.479238,267.421829 C172.956627,266.638612 174.235304,261.641324 174.235304,261.641324 C174.235304,261.641324 175.323557,262.0851 178.179615,261.8051" id="Fill-103" fill="#292C47"></path>
                    <path d="M154.245749,197.209791 C154.245749,197.209791 150.644734,202.929291 150.913394,208.099115 C151.182054,213.26894 149.607804,218.913356 149.066885,224.314063 C148.464004,230.334993 145.995993,244.588379 145.906492,247.809 C145.816991,251.029465 146.289532,261.313584 146.289532,261.313584 L151.229778,261.426522 C151.229778,261.426522 155.378752,236.50781 156.453236,233.965289 C157.527876,231.422768 162.856482,213.296314 163.03564,211.262172 C163.214643,209.22803 154.245749,197.209791 154.245749,197.209791" id="Fill-105" fill="#292C47"></path>
                    <path d="M173.201284,197.984733 C173.201284,197.984733 175.914954,212.154432 176.273115,215.31874 C176.631432,218.483049 176.87005,230.631433 177.049209,232.609262 C177.228211,234.586935 178.722036,258.428821 179.198332,261.426538 L172.882866,261.426538 C172.882866,261.426538 168.034625,244.051077 168.034625,235.829883 C168.034625,227.609001 164.289345,217.957619 161.871562,212.533448 C159.453935,207.109121 153.919883,206.980853 152.433412,196.917137 C152.433412,196.917137 171.189229,194.792894 173.201284,197.984733" id="Fill-107" fill="#292C47"></path>
                    <path d="M160.254423,149.124868 C160.254423,149.124868 165.087799,147.320044 167.316253,150.998206 C169.544864,154.676055 169.33003,162.039575 166.893939,162.945116 C164.457536,163.8505 160.798001,163.377003 159.550618,161.075532 C158.303391,158.774217 157.177272,155.446758 157.231411,153.223342 C157.285393,150.99977 158.985446,149.766834 160.254423,149.124868" id="Fill-109" fill="#EEA886"></path>
                    <path d="M166.369152,163.113413 C166.369152,163.113413 166.168088,164.417992 166.500431,165.060583 C166.832931,165.703331 160.238791,165.719912 160.238791,165.719912 C160.238791,165.719912 159.703349,162.224453 158.688637,159.271318 C157.673769,156.31787 166.369152,163.113413 166.369152,163.113413" id="Fill-111" fill="#EEA886"></path>
                    <path d="M158.688637,159.27124 C158.688637,159.27124 159.143654,160.02192 161.001429,159.730658 C162.859204,159.439396 165.125681,156.96836 165.901305,156.697121 C166.67693,156.425881 166.684441,155.970217 166.684441,155.970217 L167.169969,156.679601 L167.993943,156.731534 C167.993943,156.731534 167.242415,154.521258 168.376044,153.619784 C169.509517,152.718311 167.199542,146.46556 161.241455,148.547256 C161.241455,148.547256 156.665472,149.808192 156.831801,152.410155 C156.998129,155.011961 157.664537,157.975577 158.688637,159.27124" id="Fill-113" fill="#D88A51"></path>
                    <path d="M166.891889,164.983325 C166.891889,164.983325 166.871079,163.755394 166.314356,163.637606 C165.757634,163.519819 160.169287,162.982814 159.48598,163.251395 L159.48598,164.681582 C159.48598,164.681582 160.80268,165.491704 166.891889,164.983325" id="Fill-115" fill="#E2D2CA"></path>
                    <path d="M166.561376,155.023943 C166.457167,154.587676 165.347008,153.340504 164.922034,154.675899 C164.49706,156.011137 165.564189,157.807202 166.15956,157.653436 C166.754774,157.499671 166.825342,156.130333 166.561376,155.023943" id="Fill-117" fill="#EEA886"></path>
                    <path d="M176.134826,166.842381 C172.303331,166.3376 166.891795,164.983122 166.891795,164.983122 L159.485886,164.681535 C159.485886,164.681535 152.688804,166.177265 150.011905,167.385956 C149.75811,167.500459 149.757014,173.448025 149.060094,175.007576 L151.279317,179.688262 C151.279317,179.688262 152.561593,188.960158 152.827437,193.083817 C152.94964,194.976865 150.183397,210.834852 150.183397,210.834852 C150.183397,210.834852 153.147419,211.707231 158.202045,212.264258 C163.256514,212.821285 175.885568,212.06294 175.965212,211.466181 C176.045012,210.869109 173.51942,189.242974 173.407544,188.123132 C173.236052,186.404341 174.000254,177.270098 174.000254,177.270098 C175.167212,176.365183 185.414001,171.610508 188.209348,169.132434 C188.957434,168.469038 192.115011,165.3953 193.012526,164.334273 C196.190913,160.576804 198.796618,157.353524 199.113627,156.658843 C199.473822,156.263403 195.578487,154.164657 195.232687,154.049373 C194.92976,153.948322 190.715068,159.540024 189.061174,161.330926 C188.323728,162.129316 185.258626,164.358363 185.258626,164.358363 C185.258626,164.358363 178.531799,166.980035 176.134826,166.842381" id="Fill-119" fill="#323657"></path>
                    <path d="M158.877982,149.558867 C158.877982,149.558867 152.715232,150.040967 158.688653,159.271255 L158.877982,149.558867 Z" id="Fill-121" fill="#D88A51"></path>
                    <polygon id="Fill-123" fill="#DFE1E8" points="200.621691 149.464309 201.127247 148.693137 200.196404 148.814835"></polygon>
                    <path d="M77.2368553,193.780828 C77.2368553,193.780828 80.2349882,193.961655 81.0747659,194.428738 C81.9147,194.895665 87.5834729,193.109768 87.6884647,192.697746 C87.7934565,192.285568 87.6884647,192.082529 87.6884647,192.082529 L76.5607459,192.082529 L77.2368553,193.780828 Z" id="Fill-125" fill="#DE9673"></path>
                    <path d="M63.7777716,180.563565 C63.7777716,180.563565 62.8214234,188.076783 63.7777716,189.061318 C67.4313599,192.823011 80.9723246,192.524553 80.9723246,192.524553 L80.9668481,194.05407 C80.9668481,194.05407 60.3840811,196.620212 58.471854,192.629514 C56.1737705,187.833856 57.0656528,180.013265 57.0656528,180.013265 L63.7777716,180.563565 Z" id="Fill-127" fill="#DE9673"></path>
                    <polygon id="Fill-129" fill="#2F4563" points="56.9847419 259.739345 58.2074031 258.346073 56.0000725 256.037875 54.1358819 257.34308"></polygon>
                    <path d="M54.1358819,257.343033 C54.1358819,257.343033 56.6550584,259.240148 57.3557336,259.316483 C58.0564089,259.392818 58.3871878,259.705197 58.3037889,260.77248 C58.2202336,261.839607 59.3277325,266.334617 60.098976,266.406729 C60.870376,266.478841 63.4965784,266.493075 63.9731878,268.224067 C64.4499536,269.954746 55.6409725,269.591059 55.095516,268.171821 C54.5499031,266.75227 50.7573689,259.871633 51.206596,259.31789 C51.6559795,258.764148 52.8429654,257.519949 54.1358819,257.343033" id="Fill-131" fill="#1E2D40"></path>
                    <path d="M70.3006393,203.567424 C70.3006393,203.567424 86.7586852,232.228901 80.0778605,238.158791 C77.4580734,240.484196 74.9360805,242.587477 71.3109699,245.69954 C69.3838781,247.353414 67.0571605,249.269613 64.2992099,252.140312 L64.1845169,252.26029 C62.2175252,254.310231 60.5941428,256.04263 60.0937499,256.578384 C60.0759122,256.59606 60.0602652,256.612797 60.0466522,256.62844 L59.9907922,256.687881 L58.1589911,258.435297 L55.4712958,256.073446 C55.4712958,256.073446 58.5177781,251.859218 60.2358252,248.622172 C62.6470369,244.079296 66.6982169,238.739438 68.5724216,237.249497 C71.7833546,234.697746 72.6658487,234.196563 72.6658487,231.756656 C72.6658487,229.139676 57.5808322,214.519787 57.5808322,214.519787 C57.5808322,214.519787 55.3924346,205.369902 60.6201169,202.975827 C65.713704,200.642132 70.3006393,203.567424 70.3006393,203.567424" id="Fill-133" fill="#23344A"></path>
                    <path d="M57.7495232,264.178495 C57.7495232,264.178495 57.6456267,262.858743 57.8684408,262.014677 C58.0914114,261.170612 54.4611373,261.655058 54.4611373,261.655058 C54.4611373,261.655058 53.9939161,265.180237 54.1289502,265.987543 C54.2639844,266.794849 57.7495232,264.178495 57.7495232,264.178495" id="Fill-135" fill="#41608A"></path>
                    <path d="M58.4275102,262.019261 L53.5321714,262.901181 C53.5321714,262.901181 53.1793302,256.656565 53.2428573,251.872639 C53.3113914,246.730345 53.0524326,242.687088 54.6235538,238.594089 C56.0931255,234.765603 55.7587479,233.306633 55.8870538,230.693408 C56.0162985,228.07987 54.6320032,214.620337 54.6320032,214.620337 C54.6320032,214.620337 52.9599585,208.594558 56.8308844,204.343727 C60.6021385,200.200984 70.3590185,204.326363 70.3590185,204.326363 C70.3590185,204.326363 68.326622,222.713263 63.4466173,234.086096 C62.0652949,237.304683 62.8121291,239.260457 61.0505832,244.233969 C61.0505832,244.233969 58.3750926,255.079964 58.4275102,262.019261" id="Fill-137" fill="#2F4563"></path>
                    <path d="M62.6888928,167.972485 C62.4324375,168.404685 62.2449858,168.958584 62.1086999,169.546114 C61.9791422,170.100482 61.8949611,170.685039 61.8401964,171.225173 C61.7214352,172.39773 61.7416199,173.362868 61.7416199,173.362868 C61.7416199,173.362868 55.2117893,171.941753 56.2832999,170.419744 C57.3543411,168.896796 56.724234,164.282904 56.724234,164.282904 C56.724234,164.282904 63.5343034,166.54871 62.6888928,167.972485" id="Fill-139" fill="#EEA987"></path>
                    <path d="M66.3629005,155.39775 C66.3629005,155.39775 68.0343193,156.849056 67.2871722,161.030122 C67.2871722,161.030122 67.6567558,164.360396 68.1666934,164.941043 C68.6767875,165.521534 66.7975758,165.736305 66.5999534,166.15474 C66.4021746,166.573019 66.0283664,168.530513 64.7182381,169.710109 C63.4082664,170.890018 56.9220911,167.333241 56.6063334,165.324127 C56.2904193,163.314699 51.7961146,154.702288 58.9095805,154.307942 C66.0232028,153.913753 66.3629005,155.39775 66.3629005,155.39775" id="Fill-141" fill="#EEA886"></path>
                    <path d="M70.8380375,186.246493 C70.7055069,186.665867 71.2040222,193.098818 71.1588022,193.653812 C70.9097011,196.696422 71.6956528,201.320169 72.0051516,202.975764 C72.0788493,203.367451 72.1196881,203.567361 72.1196881,203.567361 C65.0688105,207.014797 55.2617034,206.713368 55.2617034,206.713368 C55.2967528,206.446664 56.6658705,203.134222 56.7007634,202.880658 C57.2812693,198.742296 58.1388846,196.853159 57.9055869,194.054258 L57.9063693,194.053945 C57.7760293,192.481411 57.3757775,190.837235 56.5467964,188.800903 C54.1521705,182.919504 54.282354,179.00389 54.6729046,175.772475 C55.0626728,172.54153 56.0318516,170.698695 56.0318516,170.698695 L61.9886869,171.338158 C63.2531258,172.738156 64.3784622,173.484769 67.9721222,176.673792 C71.7954811,180.067731 72.4643928,181.097942 70.8380375,186.246493" id="Fill-143" fill="#EB4747"></path>
                    <path d="M53.9098758,265.072445 C53.9098758,265.072445 57.3553581,264.092916 57.4575334,263.996715 C57.5597087,263.900827 57.5828664,263.692157 58.058224,263.882212 C58.5335816,264.072268 58.7301087,264.792289 59.1965475,265.020199 C59.6631428,265.248266 62.5062134,266.079348 64.0640346,266.845671 C64.6271722,267.122542 67.0092805,268.030586 67.3525769,268.789244 C67.6958734,269.547902 67.5893169,270.68714 63.4963593,270.417152 C59.4032452,270.146851 54.9259958,270.724057 54.0297322,270.276527 C53.1334687,269.82884 53.6751699,266.256264 53.9098758,265.072445" id="Fill-145" fill="#23344A"></path>
                    <path d="M67.4650636,159.527087 C67.4650636,159.527087 68.2649413,150.84538 59.844946,152.395545 C51.4247942,153.94571 55.7651319,163.434098 56.8995436,166.526764 C56.8995436,166.526764 56.7618495,161.723442 60.815846,161.567017 C64.869686,161.410593 65.707586,160.472672 67.4650636,159.527087" id="Fill-147" fill="#464240"></path>
                    <path d="M60.1570892,160.348174 C59.6502809,159.46641 57.9117362,159.936622 58.1104539,161.279368 C58.3091715,162.622271 59.7022292,163.962202 60.1639739,163.312729 C60.6258751,162.663098 60.9014198,161.643368 60.1570892,160.348174" id="Fill-149" fill="#EEA987"></path>
                    <path d="M60.3488595,177.404701 C60.3488595,177.404701 59.6549125,184.842053 60.6112607,185.826744 C64.2646925,189.588437 78.6803278,189.660079 78.6803278,189.660079 L79.3689548,191.822489 C79.3689548,191.822489 57.9407772,193.280677 56.0287066,189.289979 C53.7306231,184.494322 54.6223489,176.67373 54.6223489,176.67373 L60.3488595,177.404701 Z" id="Fill-151" fill="#EEA987"></path>
                    <path d="M57.1761993,154.532223 C57.1761993,154.532223 53.9335028,151.422194 51.6282216,154.945027 C49.3229405,158.467703 54.3667699,163.381305 56.4115275,160.464617 C58.4564416,157.547772 57.1761993,154.532223 57.1761993,154.532223" id="Fill-153" fill="#464240"></path>
                    <path d="M62.1086999,169.546051 C61.9791422,170.100575 61.8949611,170.684977 61.8401964,171.22511 C59.6707316,170.236665 58.0486011,167.216736 58.0486011,167.216736 C59.6195658,168.570589 62.108074,169.545425 62.108074,169.545425 L62.1086999,169.546051 Z" id="Fill-155" fill="#A77860"></path>
                    <mask id="mask-39" fill="white">
                        <use xlink:href="#path-38"></use>
                    </mask>
                    <g id="Clip-158"></g>
                    <polygon id="Fill-157" fill="#6E6760" mask="url(#mask-39)" points="72.6677576 192.963042 93.1048506 192.963042 93.1048506 191.822396 72.6677576 191.822396"></polygon>
                    <polygon id="Fill-159" fill="#6E6760" mask="url(#mask-39)" points="102.310938 174.722571 93.1043655 192.963058 92.085742 192.449204 101.292315 174.208717"></polygon>
                    <path d="M75.6709133,189.660001 C75.6709133,189.660001 78.6690462,189.429901 79.5088239,188.835175 C80.348758,188.24045 86.0175309,190.514391 86.1225227,191.039194 C86.2275145,191.563842 86.1225227,191.822411 86.1225227,191.822411 L74.9948039,191.822411 L75.6709133,189.660001 Z" id="Fill-160" fill="#EEA987" mask="url(#mask-39)"></path>
                    <polygon id="Fill-161" fill="#EB4747" mask="url(#mask-39)" points="56.0320081 170.698758 56.4515058 169.559832 62.1728528 170.698758 62.1728528 171.711293"></polygon>
                    <path d="M60.3400033,177.502763 C60.3400033,177.502763 60.9539939,173.191708 57.9517927,172.813161 C54.949748,172.434458 54.6205339,176.689982 54.6205339,176.689982 L60.3400033,177.502763 Z" id="Fill-162" fill="#EEA987" mask="url(#mask-39)"></path>
                    <path d="M255.913875,258.770859 C255.913875,258.770859 256.262178,261.211235 256.305833,261.577737 C256.349176,261.944396 260.180984,261.361715 260.180984,261.361715 L260.491109,258.456602 C260.491109,258.456602 256.392988,258.426569 255.913875,258.770859" id="Fill-163" fill="#5C544D" mask="url(#mask-39)"></path>
                    <path d="M256.26501,261.267391 C256.26501,261.267391 255.050955,262.737937 253.8768,263.378964 C252.702644,264.019991 250.857387,264.273867 250.163127,264.937263 C249.661951,265.416078 248.337741,267.478064 253.214303,267.436455 C258.090866,267.394846 260.442149,267.727717 260.964604,266.937148 C261.48706,266.14658 260.208538,261.102207 260.208538,261.102207 C260.208538,261.102207 259.053629,261.521581 256.26501,261.267391" id="Fill-164" fill="#3C4145" mask="url(#mask-39)"></path>
                    <path d="M228.459858,258.770859 C228.459858,258.770859 228.808162,261.211235 228.85166,261.577737 C228.895159,261.944396 232.726968,261.361715 232.726968,261.361715 L233.037092,258.456602 C233.037092,258.456602 228.938815,258.426569 228.459858,258.770859" id="Fill-165" fill="#5C544D" mask="url(#mask-39)"></path>
                    <path d="M228.810994,261.267391 C228.810994,261.267391 227.596938,262.737937 226.422627,263.378964 C225.248471,264.019991 220.927693,264.546359 220.233433,265.209911 C219.732257,265.688726 218.898582,267.616812 225.760287,267.436455 C230.635128,267.308343 232.987976,267.727717 233.510588,266.937148 C234.033043,266.14658 232.754522,261.102207 232.754522,261.102207 C232.754522,261.102207 231.666426,261.550207 228.810994,261.267391" id="Fill-166" fill="#3C4145" mask="url(#mask-39)"></path>
                    <path d="M254.552862,195.768215 C254.552862,195.768215 256.592143,201.823871 256.323483,207.0425 C256.055136,212.261129 257.378095,217.971557 257.918857,223.423258 C258.521739,229.500657 260.98928,243.888568 261.078781,247.139379 C261.168282,250.390346 260.695897,260.771292 260.695897,260.771292 L255.75659,260.885325 C255.75659,260.885325 251.608086,235.731977 250.533759,233.165366 C249.459432,230.598912 244.131452,212.301487 243.952449,210.248261 C243.77329,208.195035 254.552862,195.768215 254.552862,195.768215" id="Fill-167" fill="#33373B" mask="url(#mask-39)"></path>
                    <path d="M233.788417,196.84576 C233.788417,196.84576 231.075217,211.149046 230.717056,214.343075 C230.358895,217.53726 230.120277,229.800303 229.941118,231.796591 C229.762116,233.792722 228.747404,257.919613 227.792464,260.885262 L234.106835,260.885262 C234.106835,260.885262 238.954137,243.346182 238.954137,235.047714 C238.954137,226.74909 242.698948,217.006981 245.116262,211.53166 C247.533576,206.056339 253.066845,205.926819 254.552846,195.768153 C254.552846,195.768153 235.800316,193.623888 233.788417,196.84576" id="Fill-168" fill="#3C4145" mask="url(#mask-39)"></path>
                    <path d="M246.621446,147.963151 C246.621446,147.963151 241.64396,146.104674 239.349006,149.892489 C237.053739,153.680305 237.274989,161.263601 239.783838,162.196046 C242.292844,163.128648 246.061907,162.640917 247.346374,160.270932 C248.630842,157.900634 249.790602,154.474002 249.734742,152.184106 C249.679194,149.89421 247.928445,148.624357 246.621446,147.963151" id="Fill-169" fill="#EEA886" mask="url(#mask-39)"></path>
                    <path d="M240.619485,161.963287 C240.619485,161.963287 240.82055,163.26771 240.488206,163.910144 C240.155862,164.552736 246.748907,164.569473 246.748907,164.569473 C246.748907,164.569473 247.284193,161.07464 248.298748,158.121661 C249.313617,155.168995 240.619485,161.963287 240.619485,161.963287" id="Fill-170" fill="#EEA886" mask="url(#mask-39)"></path>
                    <path d="M248.298764,158.121724 C248.298764,158.121724 247.843904,158.872248 245.986442,158.581142 C244.128823,158.28988 241.862816,155.819314 241.087191,155.548074 C240.311723,155.276834 240.304212,154.821327 240.304212,154.821327 L239.81884,155.530555 L238.995023,155.582488 C238.995023,155.582488 239.746395,153.372681 238.612922,152.471364 C237.479449,151.56989 239.789268,145.318078 245.746416,147.399461 C245.746416,147.399461 250.321616,148.660397 250.155131,151.261734 C249.988959,153.862915 249.322708,156.826218 248.298764,158.121724" id="Fill-171" fill="#FCCCA2" mask="url(#mask-39)"></path>
                    <path d="M240.096904,163.832902 C240.096904,163.832902 240.117715,162.605127 240.674281,162.487496 C241.230847,162.369709 246.818411,161.83286 247.501562,162.101285 L247.501562,163.531316 C247.501562,163.531316 246.185018,164.341281 240.096904,163.832902" id="Fill-172" fill="#E2D2CA" mask="url(#mask-39)"></path>
                    <path d="M240.427417,153.87521 C240.531627,153.438942 241.641316,152.192084 242.066447,153.527165 C242.491421,154.862247 241.424291,156.657842 240.829077,156.504234 C240.23402,156.350469 240.163295,154.981443 240.427417,153.87521" id="Fill-173" fill="#EEA886" mask="url(#mask-39)"></path>
                    <path d="M240.096904,163.832902 C240.096904,163.832902 237.033836,164.933817 233.486178,166.440965 C233.486178,166.440965 229.4048,167.964538 228.962927,172.470342 C228.728221,174.861914 226.18088,187.555437 225.703488,188.629446 C225.22594,189.703769 219.577038,206.957687 219.378164,207.315742 C219.179134,207.673641 223.988257,209.669303 224.306518,209.510219 C224.624936,209.351136 229.775948,193.773148 230.29324,192.619518 C230.29324,192.619518 233.258201,183.278638 233.337844,181.886462 C233.337844,181.886462 233.422964,185.85526 233.582095,186.969002 C233.741382,188.082899 230.945409,209.711538 231.024896,210.30814 C231.104383,210.904899 243.73156,211.662931 248.785403,211.106217 C253.838934,210.54919 257.917183,209.386801 257.917183,209.386801 C257.917183,209.386801 253.940483,192.317776 254.06253,190.425041 C254.32853,186.302165 255.70688,178.535539 255.70688,178.535539 L259.827533,186.302165 L254.552909,199.86791 L255.760862,203.990943 C255.760862,203.990943 265.562336,189.184127 265.880597,187.831526 C266.198858,186.478924 265.400233,184.75591 264.882941,183.642169 C264.365649,182.528271 260.96789,174.05054 260.171924,172.857179 C259.376115,171.663661 258.031407,166.884428 254.78073,165.554352 C252.06268,164.442331 247.501562,163.531316 247.501562,163.531316 L240.096904,163.832902 Z" id="Fill-174" fill="#EB4747" mask="url(#mask-39)"></path>
                    <polygon id="Fill-175" fill="#D6D6D6" mask="url(#mask-39)" points="233.357356 215.135192 210.267304 209.216095 214.397815 193.112365 237.488023 199.031618"></polygon>
                    <path d="M217.367423,210.837198 C217.367423,210.837198 216.707587,211.903074 216.466622,212.207319 C216.225814,212.511095 217.05902,212.70209 217.416086,212.394246 C217.773308,212.08656 217.367423,210.837198 217.367423,210.837198" id="Fill-176" fill="#C98462" mask="url(#mask-39)"></path>
                    <path d="M222.175827,214.477866 C222.175827,214.477866 222.565752,214.071632 222.649464,213.810716 C222.649464,213.810716 222.765565,213.324705 222.868992,212.984013 C222.902164,212.87608 222.933458,212.782539 222.960058,212.724349 C223.070682,212.481265 223.386284,211.980707 223.48799,211.322004 C223.590008,210.66424 223.877601,207.710792 223.877601,207.710792 L222.088986,207.260446 L220.652117,206.957296 C220.652117,206.957296 217.547897,210.052777 217.381881,210.655011 C217.366078,210.713983 217.352465,210.772642 217.344015,210.828798 C217.253106,211.352351 217.405508,211.780015 217.388922,212.060171 C217.383602,212.162942 217.398624,213.189868 217.637867,213.381957 C217.969741,213.648973 218.308187,213.699498 218.586079,213.610336 C218.586079,213.610336 219.258902,214.104637 219.820319,214.07476 C219.820319,214.07476 220.42633,214.550916 221.114331,214.315028 C221.114331,214.315028 221.783242,214.728927 222.175827,214.477866" id="Fill-177" fill="#DE9D7D" mask="url(#mask-39)"></path>
                    <path d="M229.15756,195.800439 C229.15756,195.800439 225.059283,208.208018 224.306503,209.510251 C224.306503,209.510251 221.301172,208.878453 219.378149,207.315774 L223.877617,193.925224 L229.15756,195.800439 Z" id="Fill-178" fill="#EB4747" mask="url(#mask-39)"></path>
                    <path d="M231.485968,97.0668765 C231.485968,101.592389 229.858204,105.73654 227.156583,108.948401 C223.774315,112.966786 218.702634,115.536056 213.011486,115.536056 C207.146812,115.536056 201.810069,112.786272 198.391343,108.35915 C195.974029,105.23692 194.535908,101.319742 194.535908,97.0668765 C194.535908,86.8661319 202.807726,78.5967588 213.011486,78.5967588 C223.214307,78.5967588 231.485968,86.8661319 231.485968,97.0668765" id="Fill-179" fill="#EEF0F7" mask="url(#mask-39)"></path>
                    <path d="M226.224973,106.969273 C226.156908,106.901385 226.003724,106.845385 225.914848,106.787195 C225.909215,106.782502 225.903426,106.77953 225.897793,106.775776 L225.896698,106.777653 C225.086337,106.329497 222.708922,105.149276 218.020751,103.804183 C218.019812,103.804183 218.018091,103.803244 218.016995,103.803244 C217.166578,103.544049 216.52411,103.375267 216.302704,103.318954 L215.905268,102.686687 C215.840802,102.049571 215.85379,101.099449 215.873348,100.463428 C216.533185,99.6977307 217.128712,98.5006151 217.464028,96.6335341 C217.570741,96.7139362 217.653827,96.5384281 217.653827,96.5384281 C217.594525,96.433311 218.545397,94.1129122 218.374061,93.5893599 C218.276893,93.2924665 218.079271,93.3300083 217.925304,93.4163546 C217.948305,93.2808911 217.971932,93.140422 217.996028,92.9908803 C217.996028,92.9908803 218.37281,89.433165 216.571364,87.4509556 C216.38532,87.2718498 215.721885,87.2277381 215.721885,87.2277381 C212.829057,86.3423763 211.093485,86.7376606 210.00664,87.2027102 C208.396088,88.5218367 208.273572,90.7671518 208.347113,92.0038427 C208.37919,92.2965127 208.412831,92.5912161 208.445846,92.877942 C208.446472,92.8838861 208.447254,92.8868581 208.447254,92.8868581 C208.460711,93.0012043 208.474324,93.112422 208.48778,93.2233269 C208.337099,93.1299416 208.140259,93.0830143 208.030573,93.3767792 C207.837801,93.8928231 208.541293,96.2097806 208.629073,96.3529088 C208.629073,96.3529088 208.780537,96.5906738 208.899454,96.4828975 C208.900393,96.4822718 208.90055,96.4785176 208.901332,96.477579 C209.233675,98.5131291 209.832332,99.7706244 210.461657,100.543048 C210.415811,101.369438 210.29658,102.340989 210.212712,102.961368 L209.497172,103.708138 L209.497641,103.708764 C209.497485,103.708764 209.497485,103.708764 209.497485,103.708764 C209.460088,103.721121 209.422066,103.733479 209.383887,103.746931 L209.383887,103.742239 C201.297018,105.899487 199.011295,107.401161 199.011295,107.401161 C198.808197,107.525987 198.600247,107.860735 198.391359,108.359103 C201.766899,112.731164 207.078762,115.536009 213.011501,115.536009 C218.712664,115.536009 223.78059,112.95923 227.156599,108.948354 C226.807513,108.09897 226.55716,107.300736 226.224973,106.969273" id="Fill-180" fill="#78C2FF" mask="url(#mask-39)"></path>
                    <polygon id="Fill-181" fill="#E0E0E0" mask="url(#mask-39)" points="82.8898247 113.72316 83.2206035 113.72316 83.2206035 82.5122792 82.8898247 82.5122792"></polygon>
                    <polygon id="Fill-182" fill="#E0E0E0" mask="url(#mask-39)" points="106.414239 113.72316 106.745018 113.72316 106.745018 82.5122792 106.414239 82.5122792"></polygon>
                    <polygon id="Fill-183" fill="#E0E0E0" mask="url(#mask-39)" points="129.938653 113.72316 130.269432 113.72316 130.269432 82.5122792 129.938653 82.5122792"></polygon>
                    <polygon id="Fill-184" fill="#E0E0E0" mask="url(#mask-39)" points="153.462911 113.72316 153.793689 113.72316 153.793689 82.5122792 153.462911 82.5122792"></polygon>
                    <polygon id="Fill-185" fill="#E0E0E0" mask="url(#mask-39)" points="176.987325 113.72316 177.318104 113.72316 177.318104 82.5122792 176.987325 82.5122792"></polygon>
                    <polygon id="Fill-186" fill="#B8B8B8" mask="url(#mask-39)" points="83.0550576 116.656742 86.7978341 116.656742 86.7978341 115.571939 83.0550576 115.571939"></polygon>
                    <polygon id="Fill-187" fill="#D9D9D9" mask="url(#mask-39)" points="83.0550576 79.4798368 88.68972 79.4798368 88.68972 78.6662738 83.0550576 78.6662738"></polygon>
                    <polygon id="Fill-188" fill="#D9D9D9" mask="url(#mask-39)" points="83.0552141 80.9837005 91.0477318 80.9837005 91.0477318 80.1701374 83.0552141 80.1701374"></polygon>
                    <polygon id="Fill-189" fill="#D9D9D9" mask="url(#mask-39)" points="106.325989 79.4798368 112.941096 79.4798368 112.941096 78.6662738 106.325989 78.6662738"></polygon>
                    <polygon id="Fill-190" fill="#D9D9D9" mask="url(#mask-39)" points="106.325989 80.9837005 110.555859 80.9837005 110.555859 80.1701374 106.325989 80.1701374"></polygon>
                    <polygon id="Fill-191" fill="#D9D9D9" mask="url(#mask-39)" points="130.269432 79.4798368 134.368648 79.4798368 134.368648 78.6662738 130.269432 78.6662738"></polygon>
                    <polygon id="Fill-192" fill="#D9D9D9" mask="url(#mask-39)" points="130.269432 80.9837005 135.047261 80.9837005 135.047261 80.1701374 130.269432 80.1701374"></polygon>
                    <polygon id="Fill-193" fill="#D9D9D9" mask="url(#mask-39)" points="153.793689 79.4798368 159.764764 79.4798368 159.764764 78.6662738 153.793689 78.6662738"></polygon>
                    <polygon id="Fill-194" fill="#D9D9D9" mask="url(#mask-39)" points="153.793846 80.9837005 158.571675 80.9837005 158.571675 80.1701374 153.793846 80.1701374"></polygon>
                    <polygon id="Fill-195" fill="#D9D9D9" mask="url(#mask-39)" points="177.152714 79.4798368 180.719305 79.4798368 180.719305 78.6662738 177.152714 78.6662738"></polygon>
                    <polygon id="Fill-196" fill="#D9D9D9" mask="url(#mask-39)" points="177.152871 80.9837005 180.006738 80.9837005 180.006738 80.1701374 177.152871 80.1701374"></polygon>
                    <polygon id="Fill-197" fill="#B8B8B8" mask="url(#mask-39)" points="106.579628 116.656742 110.322248 116.656742 110.322248 115.571939 106.579628 115.571939"></polygon>
                    <polygon id="Fill-198" fill="#B8B8B8" mask="url(#mask-39)" points="130.269432 116.656742 134.012208 116.656742 134.012208 115.571939 130.269432 115.571939"></polygon>
                    <polygon id="Fill-199" fill="#B8B8B8" mask="url(#mask-39)" points="153.793689 116.656742 157.536466 116.656742 157.536466 115.571939 153.793689 115.571939"></polygon>
                    <polygon id="Fill-200" fill="#B8B8B8" mask="url(#mask-39)" points="177.318104 116.656742 181.06088 116.656742 181.06088 115.571939 177.318104 115.571939"></polygon>
                </g>
                <g id="Group-204" transform="translate(82.837370, 90.200692)">
                    <mask id="mask-41" fill="white">
                        <use xlink:href="#path-40"></use>
                    </mask>
                    <g id="Clip-203"></g>
                    <path d="M37.3516313,0.216090743 C29.7888862,0.908729054 25.1095593,3.62933167 20.9812268,6.0297539 C17.4286438,8.09525874 14.3605748,9.8792096 10.203595,9.89782473 C1.76243488,9.93583064 0.134517998,6.73712919 0.125176471,6.70563858 L0.125176471,8.5344209 C0.168458882,8.7081622 2.75512789,11.55814 10.2115353,11.3038883 C14.8251601,11.1465903 18.2320152,9.30431204 21.8351981,7.2091781 C25.8145332,4.89531628 30.3250898,2.27290852 37.51106,1.61470822 C48.7646427,0.584049998 57.2107849,4.34803118 65.3791724,7.98791143 C71.995465,10.9363944 78.3420989,13.7652751 85.6429699,13.7648097 C88.334264,13.7646546 90.7429769,13.5240539 93.7545297,12.619203 L93.7545297,11.1155651 C83.1894176,14.2900669 74.8338882,10.6311061 66.0776073,6.72906263 C58.6769377,3.43108044 51.0540954,0.0338175032 41.2937559,0.0339726294 C40.0180146,0.0341277555 38.7045958,0.0921449399 37.3516313,0.216090743" id="Fill-202" fill="url(#linearGradient-42)" mask="url(#mask-41)"></path>
                </g>
                <g id="Group-207" transform="translate(82.837370, 87.439446)">
                    <mask id="mask-44" fill="white">
                        <use xlink:href="#path-43"></use>
                    </mask>
                    <g id="Clip-206"></g>
                    <path d="M73.091849,0.791557093 C66.076206,2.67001153 58.9459737,7.81174164 51.381983,13.2071511 C41.3954229,20.330842 35.6447785,15.7830219 28.9862932,10.5167935 C25.7036804,7.92073818 22.309592,5.23651672 18.2226737,3.91031142 C11.7718818,1.8172549 7.09520164,2.70634371 4.30768979,3.82053057 C1.24615979,5.04452134 0.187764706,6.32632065 0.125176471,6.39963091 L0.125176471,8.54484429 C0.178111794,8.48283737 6.11091601,1.43051903 17.7073327,5.2927105 C21.5069991,6.55820069 24.7987978,9.1238985 27.9716476,11.6330796 C32.156185,14.942699 36.4302452,18.3236909 41.8193725,18.3233679 C44.8974059,18.323045 48.3397589,17.219677 52.3351302,14.3697809 C67.4184279,3.61044983 79.5301855,-4.83331027 93.7545297,8.49414072 L93.8040398,6.54592849 C88.9097021,1.98034602 83.7710834,0.0331026528 78.6805736,0.0332641292 C76.8063518,0.0332641292 74.9385133,0.297116494 73.091849,0.791557093" id="Fill-205" fill="url(#linearGradient-45)" mask="url(#mask-44)"></path>
                </g>
            </g>
        </g>
    </g>
</svg>